<mxfile host="app.diagrams.net" agent="Mozilla/5.0 (Macintosh; Intel Mac OS X 10_15_7) AppleWebKit/537.36 (KHTML, like Gecko) Chrome/134.0.0.0 Safari/537.36" version="28.0.7">
  <diagram name="Page-1" id="Zr1A3UdoerF5QhIdxCiu">
    <mxGraphModel dx="905" dy="627" grid="1" gridSize="10" guides="1" tooltips="1" connect="1" arrows="1" fold="1" page="1" pageScale="1" pageWidth="827" pageHeight="1169" math="0" shadow="0">
      <root>
        <mxCell id="0" />
        <mxCell id="1" parent="0" />
        <mxCell id="hr-9_k5K6Eu0wiCesBMs-2" value="" style="shape=image;verticalLabelPosition=bottom;labelBackgroundColor=default;verticalAlign=top;aspect=fixed;imageAspect=0;image=data:image/png,iVBORw0KGgoAAAANSUhEUgAAA4QAAAKUCAYAAABc7/YUAAAAAXNSR0IArs4c6QAAIABJREFUeF7snQecJEX1x1/17O7dTlfPJThBEAElyeJfQAUBiYoiCiiKKBgQiRLEiCACEgQDiqKAKIiYUBGRLEiQpCQFVkBQJEgUjrud6tnbMF3/eb3dczV9PXEn9Mz86vPxIzfTXf3qWzW9/ev36j1BaCAAAiAAAj1OQBCR7vExYnggAAIgAAIgAAKNEOCnBDQQAAEQAAEQAAEQAAEQAAEQAIE+JABB2IeTjiGDAAiAAAiAAAiAAAiAAAiAABOAIMQ6AAEQAAEQAAEQAAEQAAEQAIE+JQBB2KcTj2GDAAiAAAiAAAiAAAiAAAiAAAQh1gAIgAAIgAAIgAAIgAAIgAAI9CkBCMI+nXgMGwRAAARAAARAAARAAARAAAQgCLEGQAAEQAAEQAAEQAAEQAAEQKBPCUAQ9unEY9ggAAIgAAIgAAIgAAIgAAIgAEGINdC9BFBru3vnDpaDAAiAAAiAAAiAAAgkggAEYSKmAUaAAAiAAAiAAAiAAAiAAAiAQPsJQBC2nzmuCAIgAAIgAAIgAAIgAAIgAAKJIABBGDsNiEVMxOqEESAAAiAAAiDQ6wTwyNHrM4zxgUDiCUAQJn6KYCAIgAAIgAAIgAAIgAAIgAAItIYABGFruKJXEAABEAABEAABEAABEACBmgjAVV4TphYdlBBBiEXQovlFtyAAAiAAAiAAAiAAAiAAAiBQlkBCBCFmCARAAARAAARAAARAAARAAARAoN0EIAjbTRzXAwEQAAEQAAEQAAEQAAEQAIGEEIAgTMhEwAwQAAEQAAEQAAEQAAEQAAEQaDcBCMJ2E8f1QAAEQAAEQAAEQAAEQAAEQCAhBCAIEzIRMAMEQAAEQAAEQAAEQAAEQAAE2k0AgrDdxHE9EAABEAABEAABEAABEAABEEgIAQjChEwEzAABEAABEAABEAABEAABEACBdhOAIGw3cVwPBEAABEAABEAABEAABEAABBJCAIIwIRMBM0AABEAABEAABEAABEAABECg3QQgCNtNHNcDARAAARAAARAAARAAARAAgYQQgCBMyETADBAAARAAARAAARAAARAAARBoNwEIwnYTx/VAAARAAARAAARAAARAAARAICEEIAgTMhEwAwRAAARAAARAAARAAARAAATaTQCCsN3EcT0QAAEQAAEQAAEQAAEQAAEQSAgBCMKETATMAAEQAAEQAAEQAAEQAAEQAIF2E4AgbDdxXA8EQAAEQAAEQAAEQAAEQAAEEkIAgjAhEwEzQAAEQKAfCPAfHd0PA8UYQQAEQAAEQKBLCEAQdslEwUwQAAEQAAEQAAEQAAEQAAEQaDYBCMJmE0V/IAACIAACIAACIAACIAACINAlBCAIu2SiYCYIgAAIgAAIgAAIgAAIgAAINJsABGGziaI/EAABEAABEAABEAABEAABEOgSAhCEXTJRMBMEQAAEQAAEQAAEQAAEQAAEmk0AgrDZRNEfCIAACIAACIAACIAACIAACHQJAQjCLpkomAkCIAACIAACIAACIAACIAACzSYAQdhson3dHyqM9fX0Y/AgAAIgAAIgAAIgAAJdRwCCsOumDAaDAAiAAAiAAAiAAAiAAAiAQHMIQBA2hyN6AQEQAAEQAAEQAAEQAAEQAIGuIwBB2HVTBoNBAARAAARAAARAAARAAARAoDkEIAibwxG9gAAIgAAIgAAIgAAIgAAIgEDXEYAg7Lopg8EgAAIgAAIgAAIgAAIgAAIg0BwCEITN4YheQAAEQAAEQAAEQAAEQAAEQKDrCEAQdt2UwWAQAAEQAAEQAAEQAAEQAAEQaA4BCMLmcEQvIAACIAACINAWAqj42hbMuAgIgAAI9A0BCMK+mWoMFARAAARAAARAAARAAARAAARKCUAQYkWAAAiAAAiAAAiAAAiAAAiAQJ8SgCDs04nHsEEABEAABEAABEAABEAABEAAghBroAEC2MHSADScAgIgAAIgAAIgAAIgAAKJIwBBmLgpgUEgAAIgAAIgAAIgAAIgAAIg0B4CEITt4YyrgAAIgAAIgAAIgEBXEnjhhRfk0NDQIBufz+fzixYtGuvKgcBoEACBWAIQhFgYINBjBMbGxhYNDAzMjRvW+Ph4Fn/IOz/hWuvB8fHxxeUsGR4eflYI4XXe0t6wQCl1JBEdQkT/FUJ83rbtvyV9ZC+99FJmaGjojUKI1xPRw7Zt/0kIMZV0u2djn1JqZyL6KhHN0Vqf5jjOxbPpr9FzzXuo1np1IcSz5frSWnu2bZf9vlEbknaeUmo5z0tol5QSz49JmyTYAwKzIIAf9Czg4VQQSCIBpZQiIruCbfyH/TEiusPzvKMzmcyLSRxHL9vkuu4xBVF4SoUxaiJ6gYgeIKILpZQ/62UerRyb67qbaq3vNa7xlJRyrVZeczZ9u657sNb6JCJaJaafl7XWv3Ec56DZXCOJ52qtLdd1c4boYKHlCCH4s7a2Gu6hJfakUql1h4eH/9NWI9t8MQjCNgPH5UCgzQQgCNsMHJcDgVYTqOdhRgihpqenN503b96/Wm1XL/bvuu7+Wuuvh2PTWp/tOM6Xq421BkFY0oXW+hzHcdjDhVYngWw2+wEhxK+N0yallEVPR53dtfRwpdRNRLRdDRe5y7btrXvBYximKGOvueu6E0RkPpdsKqX8O/NQSl1ERO8yfmvvcxzn5hpY1X1IPfdQ7nxgYOA1c+fO5ZdsPdsgCHt2ajEwEPAJQBBiIYBAjxGo92GGiCa11ps7jjPaYyhaPpxsNnuSEKIoAIUQl9i2/f5qF65XEPo36xr7rnbtfvxeKcUP6+sQEYfhfktK+YWkcVBKnUFER8XYxWGi/t6tSHtASsnhpD3TXNf9tdaafz9CCHE7i95wcEqpe4hos/DfWuu9WxVSWu89FIKwZ5YgBgICfUsAgrBvpx4D71UCMQ8zH/E8704ebyqV2kBr/eHCnqS9zfFrrX/vOM57e5VJq8bVREH4hOd5vH+Kn4SHLMvaTWt9BBG9wrBd27adFkJwyC9anQRc1109nU6/mFSvmlLquch8cwjiW6SUzxe80Gml1C+EELtHfrebNP1FToerCvHeycHBwcFMJvOSOdYOC8KPep7317glx3sI+yHCAh7COm84OBwEuowABGGXTRjMBYFqBKKC0PO8bTKZzG2Rh6tvEtFnjc9ekFKa4oOy2eyORHSkEOK1RLSQiJ4UQtxNROfbts1v66mQ+GGu67q/LSSCsMK+2ENm7vvJZrMfFEJ8LPxeCPEXIcS1nucdH36mtf5mKpVSnucdTkRvJqJhIuIw1s9wyBjvL8rlcl/SWr+DiNYjIn6wvyWdTh8uhMjHMWH7hRAfIaLNg/1Y3N9fJycnT164cOGy8JylS5cuGBgY+Llh36We5/2ek1sIIbYiolV57IWH9bOllBfycUqpNxDRqUS0AxFFE/hcTUT3SymPLjdXMR7CR6SUG5jHL1myZN7Q0BCLBLP/j7MNuVzuzZ7nnWAc/x0hxJpaa95b9moi+o6U8rTwe9d136W13itgsYiIHiGiv1iWdVY6nf5vOTuVUh8TQuxaeGHA4+VEH/dalnVVOp2+qJwwXbZs2WtTqRTP4xaBLc9qre8RQnxPSnl/hbli7xjP7TwhxGNa67ssy/pFOp32X2ZEWzabPUwIwS8x1uV3HUT0EHuVhBA/NscUnV8iuk9K+aVgHvk3sJOxdt/tui6/LPkoEY0QUa5wjfumpqYOnD9//stRG1ioua57XLAOeF8ic7264HG/XAjBvzG/eZ53aiaTubXSb1cpxd7L4t/kOK9TITkO2zDf6OcLUspvmP26rntAQbzsQkT/J4TwuRDRH6WU3y53/Ww2y2Gq+woh3kREnOzoYT7HsqyL0un00+F5Y2Njq1iW9VPjd3un4zjFdZjNZl9njpuIruPrFvZEplzX5d8U28PtBs/z7rAs6ytE9HqtNfezu1LqR0T0Sj5Aaz3BL6mUUh8nIl67PCazcSKXv/M9SWv9RsOmJ6Lh1dls9mQhRNG7KIT4oW3bbE9sq+UeGj1RKXWBIeizUsoPmsdks9lLhRBhqPIzUspPBmvwx0S0enDso7ZtH5XL5XhN7ay15rX9v8KLgWtt2/6imWhKKTWrtcvXq/UeGdiJpDKVfsD4DgS6nAAEYZdPIMwHgZgHk5KkMnGCkLPoWZZVkkzGtm2bhVwg8u4KHojjAHPCky+GD6LRN8da68MdxzkrPDGbzf5bCMEPNmHj/Vx/ISIOkQsbe0PWjglj10KIA7TWxwYhf1F7lti2vZrp9QnEI4ee7VlmdSwXQuxp2/ZVwUMRP8T+wziWRRg/dMdlar1YSrk3P3RrrX9YYfWtJLDNY2sRhMFD2I1EtL1x7pVSyncHWTO/Y3z+fMS7dIWU8j1a6zmu615pip6IzdNCiINt2+aH0mILxOgtRLRJmTG+oLUecRyHH1aLLXhI5T2VxRcExtdaa32y4zgsAvwWJBK5PRCP5XCeKaX8dPhlLpdb0/M8zhIal3SFD5vSWn/IcZxL+B9jY2MbWpbFoihsz0kp/QdwpRTvT/s/w547Ci8r3hJjyCR714eHhx8PvwuEL4vVBXHHF14YDIWfF9bnsbZt8wuEsk0pNRkJDf20lPJM84RABG9j2Mt7Vv19dEopfqHzZyJav8xFnkqlUtuaYwjO+wkRFV/YRM5llm8PrxGToOdJKSW/gPCbUupDhev/wujjb1LKzbhkQTqdzho8FItpY528KKVcNc4LpZTiFyzvrICO912avxEW4KuGybKCNcZht8U1yWGp4fqI67dBQWjOn5ZSlvwGlFJ83wzbROGFjX9/UUrxvslwrbCdfP95VYxdJcmQZrN2671HBnZCEFb6AeM7EOhyAhCEXT6BMB8EogRqeZjJ5XJreZ73hHEuhyPOYWEVfdAoR1gIcaBt2+fFPLD9VUq5JZ8XiEvOEmjea/gBnL0ypiBseCILaeHPdRzn4LAD13Vv0VoXH5rLdKyDzICPB14NUxBWtKWQ5XFjy7K2bpMgZOHMnraw/Zo9DzGCsMTmMARYKcWenhLPY9zghBCHFIT1OeF3MeGLcadlJyYm1gzLmBQe5tkj+rVqE6m1PtRxnLP5OPYuVxDuZlfflVJy6Qh+gH7G8KiUvZzWekfHcW6sRxBWsl1r/RfHcYpi0XXdbMGzLauNl7+vURCyaN0w0t/VqVTqU9UyWAYeOPYeOlXseVlKyd5+vwVeqz2qnONprd/GLJslCGOu97yUcrVGBKHW+g9CCN5ryJ5vvwkhjrdtm8tX8BjrTipUyz00OoaIoG9UEFacCt6vbNu2n5241vs0Hxuzduu6RwbXgyCs5ceOY0CgSwl0kSDs8MaGLp1gmN1/BGp5mFFK3RCEuYWA/LfPgfflKYMae+jYo3Ov1ppD015nPHT5SR/GxsbealkWeybCNiWl9N94u657IAs247slUspFSikOD4wKwqe01lcFHpqVkmVwOKDnefcLITgUy/TKFD0+MbbwpdnT9SgR8f6r4kNjIfz0DsdxtiojCNmbcYnWen6wb8u8V54phDidk1oQ0QFEtJExPt73dIrWmsPWfldu9dXiIQzCQu8wPRtCiN1s2768iiDk0MNfERF7BouhsIEtzILDGpmF6WHL2bbNY53KZrNHCCFMzxQLgssty+LkQxyiORCOS2t9mOM43w9CJ1mQzHg6Zm7Xj2utrw0e1jn8cuYrIVQ6neawUC/iHeG1dpAQ4uogHHZ/g5/vcQ1Cdc0agtnC/th3CSGWCCF4zEWPJgsFDkNsQBDyw/I/hBAslFaLW9dKqS8WPMjFkNzgGP6NcEj12yIe8ZoEYS6X26Kwj5S9pXHe1aeFEGen0+lvCiHYo1TSXNf9LnvmjQ89IcSlHK2qtea5XslbOT4+vk4+n/+3+bKGfxOF3xcL0/dFQlOvl1K+vUWCkNcrexrXiROEARcO3T494kG9hsNaOXTc87xP8toxxj8qpfTXglKKj+NQ87BdK6Ws5HHkc6Klex7QWjOrlVohtPVLmUzm4SYKwulCCOwVQgj+PfF+bzMj7oNSyo2DcZV4t8Pfd7W128g9MrgeBGG5Gzo+B4EeINBFgrAHaGMIINAGAjEPMw9qrcOyEosLKfhZ1GUipvxESrmfUuptRGTWvLtRSslhYMTJHubMmVPce8f7qwpho369wxhvyTuklH90Xfc2rTU/zPlNa/0jx3EOiBOEZqHjwvd8HdPGYkbFGNFqhl9FH5J+IaXch68dhK1xiGMYCuq/xY8ThBMTE/MMzxenu9/X4HWNlNLfz9TEpDLM5g/cpxCCM0qyp4hD8UxxwHXZBgMhxd4yM2SUTz26EPb7jXCfkVKK9z0WQ8/M0hWB55b3YJn70Y6WUp6ulOLPi0LI9B66rsv7Ca8wWPD62FEpxeKIRVLYouFtvHewKNYK+754r97NZhghLzEpZVGkFvaOcXhm6M3ilwyLYsRqcS6CEM5ivcFCWOAoC/56BKGZ2TIIt2Xvtrk/di4LMqUU77tcw1jXlzmOU/S0RcIDaxKEwXri/ba8R68o4CK/UxZPF9i2fWBkP5kZdsjXe2+4Ry54sWAmRPHDPLPZ7O+CPZjhJXifoS+cgpByDl0Mxf9YYS/gvGYKQl7v4+Pj+yxevJjFl98qJS6plFQmJuKBfytDvL84ej8MPceVbsV1ZhndR0r5i2YJQsuytkyn0/58xfzeir+RqIewjrVb9z2y2ty04c8aLgECINBiAhCELQaM7kGg3QTqfJhh854uJFF5Q7RAPYeh5XI5TviwsRDiNZ7nDZglFljfhftklFLsnSkmUdBaX+o4zvsiHiDOcroO72GKEYS+59B4MLyPk00YD9xHOo7zXeN7TiQTPqibdpQISfbiaa05xNBvlmXxXjlOXOI3Dhudnp4ejuwhJFOcxng5/X1RfH4zBWGVdRLdt7mSIDRtDh7gTJHAIcHSTPajlOK9fp83GPuiRinF+5hCITAtpSwpeaCUepCIeP8Xi9i/B+dEPc4/9zyv6Bm2LOtAU1RrrU/kZCRRAcBrkYguGhgYOC+urlsZby6LwIsmJycvMJMFheOqRxBy4h3HcX5jrDP2+BZDLD3P2yjwBpV4S1hAczZQ4zwOx+YkM36rJWQ0PDZ48cKeXa65F+ct5ENfmJ6e3pAT3QT7PZca60d7nldSy9CyrOsNkbm8IPyHlVIlIaqe522byWTYg+w3pdTFRrgyv3TZoJmCMLpeg2uW9UJVyzIaFensXSuEIz9Q2C/8gMHGlVJWDfOt8x7aVEFocgleSphZhcu+/Kpj7dZ9j+SQZWQZrXKHxtcg0OUEIAi7fAJhPghECdTzMCOEuC2dTm9nZuoMPGmcOZT3+RXDA2NIF4VYNpsdiTx4vczhhUIITvgQtmellH4GwRhByJkfOZNl+DDKyTo442HY/Icu4/vYBA7RTI01rA5+aLwvIghL9v8opThsywy9/LuUclPuu02CcIrDF8MkOAG/qCD0k3KE440m8WBTpZQlXmGlFIfNccKOsD00MTGxZcQLXLLnrBxPpVSJAKrG3XhhwF5Of29gTBsjomts2+ZMp8WHYqUU7/cshi5HznsmyCB5Yvh5nYJwTzPUN7qXkl+OFDzm/3Rdd9q4bvEh3VifJQK5HkEY9hGIAU6mc0jgLY4i4ky2/xfjRaqG33/hEfXC27btez8rnZxwQcj7V83MvtdrrR/jvc7hmIQQv7FtmzOWVmwx91CXRXjcSZZl7ZNOp+9olocw5sVOuWQ00YRIVdeu4zgPNnKPLLwM+CUEYbVVg+9BoLsJQBB29/zBehBYiUCVh5lxIhrVWt80MDBwdTTjIHdWyBT4zzKZCvnBxLxnRIUTZy0tevmIiDNkclmGsH1TSul7pGIE4Z+klByu6jelVN2CMAiD5PHV3Hjfked5t0YE4dNSyjUNW9olCDnTKnuT2PvJted4/+B1tm3fGK2dF7OH8AYpZbF8QkxYbUk4Jl8n2JvFSWvC5mehzOfzvh1Bq5gt1WAULYdQbQ6K+7iCcFNOoR/78oH3HAoh3haG0QXzfBmn5a9wkUemp6e3ZA9aswXh5OTkf03RzPbZtl2SzCWaaKkRQWiOLQiH5TGXCGEWqIXMolxe5XvVgJvf27bNZSB4n6zv6eUW57GL9tlEQbi0kEF1peysjYaMsp0xmZM53JfXZTG0l4g25TI21VjVsg872keTBGE9yWjqFoRSysdc1637Hmnb9g8hCKutGnwPAt1NAIKwu+cP1oPASgQaeZgJO8lms4cIIX5gdMqeuE/atv3rYO+UGU5Y8vCSzWbPiSR2KLHNTAXfCkHIF1NKmaGkHNLID9FlGyfM0Vpz6QUzy2gnBOFKdQgr2V1NEAYszLp2fpig2adSims0FmvKhXuQzP1vcWInzi7XdR/VWnO9Sr+xZ4aIzFC9ktOEEJdIKXlvZng81/PjBD28X5W9r9E9dMVkGuE5geg9rFBXkBPdcBhw9O+ZX66i2YIw8LKY6ywurLYk5LmaIMxms+cVai9y7cOw/UxKaSbV8T9XSpWEsBZ0/Rc4kY0Qgj2SxVZp3VuWNc21QqPZWrXWi6NlRKJznWRBGPDhhEnFkPCI/SVh6VV+X1VL90TP7wZBGLN2a7pHcv1QCMJKKwbfgUD3E4Ag7P45xAhAoITALAXh74OsmmGfX5NSHhP+I5Iso0QQxiR2MB9QH3Mc5zVGP9Eso7P2EAYPhJwIg+uxhW2lWm65XG4NFqehpyBmX1rDgjAMhay2JGvJMlrlgTUaMlriIQxYcMhl0XNlWdYWZpF3pRTvKyt6FcPyHTEe5uL+uKC8wRJDsHGo75bZbDa6bvxkMxGRwl6pnTjZEH/uuu4enueZ9e+OcxxnNLCdi5Gfb4g8vyxKLpf7oud5m/MxlmVNpdPpvTm5CtullPqBGR4YZK58dYsEYck+rCCkt/jyIbp3tpogDOo3FgvZcy26sFaiyTCm5Mbptm0fV1hP/OImbHpgYOC10T2YuVzuLZOTkw+z15QPzGaznFHULw8TtKOklMVERcGevdAjyS8UFgSeSs7YG7ZoIiDORPw54/vYOoRENGsPIe8R5FDGCB+OQOC9sXHtx2Ex+Gq/z0buoYXMs+x5K9YuNUNwY6IXytUhbKmHMBCEdd8jg98ksoxWWzj4HgS6mAAEYRdPHkwHgTgCjTzMhP0opfhh/e1Gv34hdP6367pcXuBQ47u4h5eS7IvhsWb9rODholWCkB8QuRxE2Hiv18d4/yEXYy7sP+OaZOwVE4Ush5uxAJmNIFRKRR9A/yOlXLfaymyTILyKiPxsqEHjkN4RTn7iuu4nOOOr6VULsxsqpXjfp5mU5IHC/sU38z4+pVSU7684C202m30fe/3McQshzkqn00cGWVF5fyjbs3pYh9B13YO11n49wqD5pQ34v4Ni4iUhjYUMqrbrulxKoRgqGpa94HNiXkj4YqVFgjC6R1BNT09vOm/evH+x0OUXAxEWFQvTu67LXIrJj4Jzb7Isa990Ov10sJ/wJDMJEB/jed42mUzmtpiEKku01tvx+g5KghwXZIF93rbtdYK55DBdU4S6lmW9Lp1OP1nI8MqC/AJjDMWXJDF70N4ppbzWdd3Ng7Ib5tCbJghj6oueH/Wilql76tsT1B01w6HL/kwbuYcqpTghkr9HmhtHWti2/anAk/17IvJfZAStk4Kw7nsk2wwPYdnlgi9AoCcIQBD2xDRiECCwgkAjDzPh2Uop9tj8JMKTPU385nulVPi2bXPmUQ6f85tS6lQi+lLk/LgMly0RhMGDM3uwinujAlvC8EnznudnHJyNIIxJpsOX42uNV8pm2A5BGFM6IJwWtq8ke2Vhj96ttm2/lQ8IhBWXfIj+fYjuIWVB8tZMJnNrMPdcg8986OWP+Rz+n3k9rbV+faEcyKPBfibzOs8VQicf01qzZ8osieGLuzixVXgB8DARsccuGmrql6RohSBcvnw5Z6eNq0u3EqNAHFQUhAE/Luexa8y9bKX5Co4pZsx0XfeNWuu7Ys7lEO+SLLFmeYKYENRw/UbXx9m2bfsvgwrhynH7RcvZ2DRBGM2KG4yVX/hwSRo/629gH9epLCaoCj4uJrSq5W9FI/fQqMfdsC9ub2zHBGEj98iAKzyEtSweHAMCXUoAgrBLJw5mg0A5Ao08zIR9aa0HC2UW2FNhFi0vC9uyrK04w154QExiB/6qWEPQeGhriSAMHlw4eyaH75Wr5eabURjrKY7jfHk2gjC4XkmoWPggGC3XYEJshyDk6wV7Qs+qUL6AD3tRCPF627a5/qDfstnsCUKI46v8yr4rpSxmCFVKcagu750zQ3bjurhTSrlFwI4T9vBewnLlFYKp0js5jsNJiti2cyOhoXHX4IL162QymZdaIQgDO84WQhxcy52oWsiowf12IcRbauiTBdjmZoKUIOPtsTFC3uyOw2vf7jiOv+cwqDt6ZZXfyt9s294iTGwUU4alkrlNE4QVRO/DUsqNQiNc190/8H6bdn1LSmmGslZE3Mg9dHx8fO18Ps97Z2t5ruqYIGzkHhmcA0FYww8Th4BAtxKo5cbVrWOD3SDQlwSiReKje8eqQQnCrm4LPC7mPSIsbu0/zAdP6j90HOcg/xEoSI4eLcodhgia140pMH6dlLIYClgoicDZL83r7O04DtdF81tkj9ZKoatBbbbLC2ULeI9UiYeEa91x8hvbtvlBmLMTbmhZFtdkC1tJUfVsNsvFwrnOYtjulVIWPWGBoGR7zUyTXEi9rCAt7DfiIu5czD1sD0kpy5VSWGnKstnspzgk0/iiGG4ZPTiwj8fKhe7N+ZwUQvwh2IdX9PKG52ezWc5eyeFlXM7CPO+lIAT4nLi15LruD7TW+5n7qYLjXCHEqYWC4exFLjbe2+Z5Hpf14Myu0bl6wLKsg8yXDsH8czkGZsji07SNhdLVQogDQoEbs+/NLH/CNQz9EiJX1hWZAAAgAElEQVTchBC72bbN68ZvSikWyauF//Y8b4NMJsOJS8Lv+cUGlzuYYwzpJa31skJoshk6/JlCYfdvx/GKfua67nu01hzKuX7M8ewRu8ayrEPS6TSHZ5c0pRR7xn4XzHWJV7ZQ1/BOz/M+atrPJwfhqn8iog0iwpxLLfxWSsnho9Hr8Bwyf/MafDyXyCgmKiIi/7cShK3y92GLLWcS3YcXzXwahDqfF7luScKhYJ+rWRaEX/5UTZhjDrDReyiHTluWdWFh/sxah2wL7808yLhHFJM8RUIxq+0hNM+b1dqt5x4Z/BZKXnzVkpW2lvWOY0AABJJBAIIwGfMAK0AgcQR4H1c2m93asqzhXC53++LFiznzXtUWKWzuJwOJlk2o2kkTD+AH3sL+tTfn8/kXHcfhjIwVa601emlOVpPP57ewLGtiYmLi1rgi6Y323azzOEskF0z3PO/2ahklw2sa62CObdu31MovqIW4FT+8T05O3lELj7GxsfWFEFzT8jHbtrmo+EpCNcpibGxs61QqtTCVSv0jrph9s9jF9cNeK9u27+Yw20Jmz02npqb+zElbomGVqVRqnbgSL9VsYzE7MDCwsdZ6Qmt9T61zxv3yiwAi2rCQfOWRMFlPtevxOZZlrZfP529l72ql43ld5HI5Xk+v4hIpvDe1Wv/N+p5DtYmIvYJcf5PLxnBorN9iohQel1Ku06xr19IPhxTn8/nXe57H7B+s5ZxOHtOue2Qnx4hrgwAIVCYAQYgVAgIg0DQChVArDsviTINh+ytnoWzaBdARCCSEgBGaeLPneXuygGLvVC6Xu1hrvadhZnGvX0JM72kzlFIcWrx9OMjCS4XjCnudT+7pQWNwIAACIDBLAhCEswSI00EABHxvBJcdeEdMmOAuBUF4DRiBQC8RCPaLcfkFM2EIe545TLjk72ohm+0fHMfZvZfGn8SxFDKjciIkLkJvzonH2Wk5q2oSbYZNIAACIJAUAhCESZkJ2AECXUwgeBjjPWpmq2tfXBcPH6b3GYFsNruqEOKBGhLoXC2lfFef4enIcGPKYbAdJYmPOmIYLgoCIAACXUAAgrALJgkmgkDSCcQIwoeCkgQV9yElfVywDwTKEQjS93Ninb0iZU44sc2zWusLHMfh+n9obSAQIwj9GpltuDQuAQIgAAJdTwCCsOunEAMAgc4T4KLURPQOz/PGtNZ/jGYy7LyFsAAEWkcgKLnxBs/znshkMlwXEa3NBFzX5bDcN2it/621vraeBDxtNhWXAwEQAIHEEYAgTNyUwCAQAAEQAAEQAAEQAAEQAAEQaA8BCML2cMZVQAAEQAAEQAAEQAAEQAAEQCBxBCAIEzclMAgEQAAEQAAEQAAEQAAEQAAE2kMAgrA9nHEVEAABEAABEAABEAABEAABEEgcAQjCxE0JDAIBEAABEAABEAABEACBLiHAakJ3ia0wM5YABCEWBgiAAAiAAAiAAAiAAAiAAAj0KQEIwj6deAwbBEAABEAABECgtwjAUdNb84nRgEC7CEAQtos0rgMCIAACIAACIAACIAACIAACCSMAQZiwCYE5IAACIAACINByAnAltRwxLgACIAAC3UIAgrBbZgp2ggAIgAAIgAAIgAAIgAAIgECTCUAQNhkougMBEACB1hOAe6f1jHEFEAABEAABEOgPAhCE/THPGCUIgAAIgAAIgAAIgAAIgAAIrEQAghCLAgRAAARAAARAAARAAARAAAT6lAAEYZ9OPIYNAiAAAiAAAiAAAiAAAiAAAhCEWAMgAAIgUC8BbOGrlxiOBwEQAAEQAAEQSCgBCMKETgzMAgEQAAEQ6BUCeIPQKzOJcYAACIBALxKAIOzFWcWYQAAEQAAEQAAEQAAEQAAEQKAGAt0rCPHCtYbpxSEg0BkC+Hl2hjuuCgIgAAIgAAIgAAL1EuheQVjvSHE8CIAACIAACIAACIAACIAACIBACQEIQiwIEAABEAABEAABEAABEAABEOhTAhCEfTrxGDYIgAAIgAAIgAAIgAAIgAAIQBA2aw1g01SzSKIfEAABEAABEAABEAABEACBNhGAIGwT6HZdBrq0XaRxHRAAARAAARAAARDoNQJ4kmz/jHaeOQRh+2cdVwQBEAABEAABEAABEAABEACBRBCAIEzENMAIEAABEAABEAABEKifQOd9C/XbjDNAAASSRQCCMFnzAWtAAARAAARAAARAAARAAARAoG0EIAjbhhoXAgEQmD0BvAufPUP0AAIg0G8EcOfstxnHeEGgPgIQhPXxwtEgAAIgAAIgAAJNIgCh0iSQ6AYEQAAEZkEAgnAW8HAqCIAACIAACIAACIAACIAACHQzAQjCbp492A4CIAACIAACIAACIAACIAACUQJ1hGBAEGL5gAAIgAAIgAAIgAAIgAAIgECfEoAg7NOJx7BBAARAAARAAARAAARAAARAAIIQawAEQAAEQAAEQAAEQAAEQAAE+pQABGGfTjyGDQIgAAIgAAIgAAIgAAIgAAIQhFgDIAACIAACIAACIAACIAACINCnBCAI+3TiMWwQAAEQAAEQAAEQAAEQAAEQgCDEGgABEAABEAABEAABEAABEACBPiUAQdinE49hgwAIgAAIgAAIgAAIgAAIgAAEIdYACIAACIAACIAACIAACIAACPQpAQjCPp14DBsEQAAEQAAEQAAEQAAEQAAEIAj7ag3wdOu+GjEGCwIgAAIgAAIgAAIgAAIgUJ4ABCFWBwiAAAiAAAiAAAiAAAiAAAj0KQEIwj6deAwbBEAABEAABEAABEAABEAABCAIsQZAAARAoOMEEM7d8SmAASAAAiAAAiDQVwRWPHtAEPbVxGOwIAACIAACIAACIDBLAniHNUuAOB0EkkUAgjBZ8wFrQAAEQAAEQAAEQAAEQAAEQKBtBCAI24YaFwIBEAABEAABEAABEAABEACBZBGAIEzWfMAaEAABEAABEAABEAABEAABEGgbAQjCtqHGhUAABEAABEAABEAABEAABEAgWQQgCJM1H7AGBEAABEAABEAABEAABEAABNpGoC5BiKRSbZsXXAgEQAAEQAAEQAAEQAAEQAAEWk6gLkHYcmu64AIjIyPbB2aG/7+dYXb42U3BZzdHhnTT6Oho+F0XjLayiQELHnPIIBx/148NAwABEAABEACBHidwYjC+nno26fE5w/BAoCUEIAhrwBoIn+OJqFmCx78Jj46OnlDD5RN5yMjICNvOTNBAAARAAARAAAS6m8CJ3fxM0t3oYT0IdJ4ABGGZOSgnAqfXf6N/xlTw/9PrbV7sIfxs8JG7/c8GHr2npPfhK86Ju1pXicMoF+YxvutBJUw6v6xhAQgYBDQR4U6HJQECILASgf6+OQxfea5PJPJsskMvRTJh0YMACNRGAI9JEU5xnq9mix6+CbNoHAiEo2FC4t/QjYyM8F9QCpmEIri25YajQAAEQAAEQAAEkkaAn0sMYQhRmLQJgj0g0GICEIQB4MDzdWPIu9kisNw8lnlDl0hhGIrl8XcfXPQKtnh9onsQAAEQAAEQAIE2EMh8+4DwRTXvKdyhDZfEJUAABBJCoO8FYbkQyHZ7vpIuDE3BvOTsvyVk+cIMEAABEAABEACBZhFYeMimYVfwEjYLKvoBgS4g0NeCcGRkhD2CfqKYpIRARsI22LREeAvhHeyCXzNMBAEQAAEQAIFZEDC8hIl49pjFUHAqCIBAHQT6UhCa3q6kCMHonMUIw46+rYMgrONXhUNBAARAAARAoAsJcH4D59sHsOUIG+3C+YPJINAogb4ThGbSGBaDY0ed1yi7tpwXEYYde2MXJpNBuGhbph0XAQEQAAEQAIG2E4AgbDtyXBAEEkGgrwShKQa7KTFKEkRhGF6bPeq8YsmNRKxgGAECIAACzSDQ3xUImkEQffQAgV4QhGNjY+tblvUlrfUGhSphxzqOU0wYmLQpUkp9lohWlVIenTTb2B6t9VzXdc8WQlxm2/bvk2gjbGoOgb4RhOZ+wW4Sg+E0d1oUQhA25weHXkAABEAABEAgqQSMZ42mRSQppf5JRKvbtr1YCLHcHLtS6lQiOoqIjpZSnlkvF6XUfUS0jpQyw+eOjY2tYlnW00Q0JIRQWutDpJQ/K9dv9Px6rz/b45VSTxLRYinl3Gw2u6MQ4johxIm2bX91tn0Hgm4O/78QYiKuv2rjd113da31M1rryxzH2aMVNimlvkNEhxPR5lLKv2utLSKaK4TINeN66KM2An0hCE3PYDd7uIw3dzy7bY3vD/dddkOYbW1LH0eBAAiAAAiAAAiYBFokCH9ORB8mos9JKb8VEYTPEdErPM9bNZPJvFjvbCilzhdCrG/b9jZ8bjab/ZQQ4iwi+oaU8gvV+oueX+34Zn8fEYSvE0JcobX+vOM4lzTjWkopl4iWSinXKCMIS/hFj2mFIIza5Lru/p7nHWNZ1ja2bT/ruu6XtdYnaa3f3ywOzWDZ6330vCDsFTEYLsSIKGzaG7xqCx1lJ6oRwvcgAAIgAAIg0N0EWlF2IgjhZC/hw1LKjUJCxuf/lFJuGH4+Pj6+9vT09Ju01jeaIpE/11pPT05OuqlUaufx8fErpZTzhBBDw8PD/wnEy7lE9B4hxCcty7rB87zlnuctcBznwbD/JUuWzBscHFxDSvnv8fHxVcLztdZppdTaUspHc7ncKp7nbet53j3z5s37V3RWc7ncFtyvbds3jo+Pr8rfp9Pp/5ab/Vwut1Y+n98in89fP3/+/JfD40xBqLWeo5R6zfj4+JOLFy9W4TFLly5dkEqldtRaP5DJZB4JP89ms6t6njeP7ctmsyNEtFHILByLEOIBIhrXWr+ZxyWEmDJtzOVya4TjDz/XWg/mcrm3CyFe1Fo/FechLGdTMEdTw8PDzyqltrcsa246nf4TeyjL2bRs2TKZSqVWl1I+PD4+vqbneScQ0X5E9CXLsi6yLGuO53nT6XSaval+Y7unp6dtk0d3//I6b31PC8JGxSCLrrAuIE9RWJNwer3NE7F/rq2ikFcI760hIoSNdv4HCwtAAARAAARAoBUEDO9g0yOQlFIcxrn6xMTE/EWLFo2x/UqpC4jo41rrwxzH+f4LL7wg0+n0rUT0f8b4/iilfAf/23XdLIsKjoCciYIU79VafzcMuVRKPUxEvG+wqBuI6A4i2omIdpFSXsNfZLPZ24UQb9FabyKEuMo4/4uFUMXTiIiFx1qGQDrHcZxD+N8sePL5/L1EtCD4fpqIOMTxRSnlK6LzwqJNCHEnEa1tfHeLbdvbCyE8UxC6rru71vr3BUF2iuM4Xw4Y/YiI9jfOfboQvrmp4zj/c133Vq311kTEbEMPoNZaf4BZCyG+Z9ojhNjNtu3Lzc/M6weM2YbfEtFAcBx7GG0zZFQpVckmniM+l+fID1dl/UZE67JdcTZprfdmD7LneRtYlvVXIppv2PgUETlElLFtm8NIfUGrlGLBPMChtq34LfRjnz0rCE2PVq17BiNCK3Y91NpXqxdTZE9hW0pSIGy01bOK/kEABEAABECgMwRaES4ajiSbzZ4khPiyEOL4cH+cUoo9ZTJ40M8rpa4moncKITiJyUUF79e3iWiLUDAGglAWBN4tWuuLhRAsXO4KBV0ul2PvEqeO5z4OyufzNwkh1hRC/ImIrpNS7hyIiUnWhVLKRaYgUkqFgpAP208I8b+CaOTQzSEpJYs+FiIsBjctCLyfeJ73YyHEZ1iYBoLQ9xRGBBeLwTcFQuinhf1xvDdwFyI6nRPJVBKEruseqLVmj+c9lmUdqrXeV2vNe+2ul1K+3RCELGAP5Pf2BZ7fLNj+RC6XG0mn068lIrZ3vDD+rW3bfii6lzDioUy5rstCa4jDe7XW9xXCcX/BIb2hIKxmUyDUbCK6xvO8U1Kp1JEc+klEF+VyuUPjbHJd9/xQEA4NDU1PT0+fSET78lqxLOun+XyexfH+WutDHcc523XdzbXWdxPRtVLKd3bm19J7V+1lQej7tWoVcEYx1qqznJTahaYoHB0dbctchuUnunkvZtUJxgEgAAIgAAIg0EcEzBfirXieeOmllzJz5sxZWvAIPi6lXNd4qL9RSrljILY8IcS/bdtej//NoYuu63IylPuklJuGYkNKWXzeifFwfZ+Fg+d522Qymdu4n0BIDrI3yXXdd2mtr9Ra/8hxnAPKCMILpZQfD2xij9q7U6nUOsPDw48rpbxwDOHyUErx8+a0lHLQXDKFfXAssNiD+KCUcmPj+GdYqEkp311JECqlHmfPn23bMhRySikOS10lGIvvIZyenl4YhqEqpf7H0atSShZlLGDZw7dMSvnKuOUc2cP4QSHErwre0fOllL5XcmxsbEPLsh4KBWE1mwIWFM4Rh8G6rsuJhO6UUm4RZ5NSyt9jyh5CDgF1XfcrWusTtdZ7OY7zm8Ar+x8i+puUcjOl1E+J6CNa6x2TnEG2224fbRER7YZSbxH1mCLwVU1OSnIVQ8g2PcQjDkIYNpqU8VedKBwAAiAAAiDQVwSMnQ59Ne7ZDLaV3kFDCPneNU4gk0qlzinsidszfKjPZrOcUOUfwbHswQsbe6uek1KuHgjCYSllyuizmKUzEH8rCUKlFGcZ3UcIsStnHQ0E3rq877CMINxHSsmeMRZUF7G3Smu98eDg4PLp6el/CyF+Y9v2XhFBWBRB4eeu626qteYxFwVWdI6qCEIWn7ycTR4sOgULrtBbGRHITxDRalJKP1yzHkGolPoaZ3vleXEc53cBzzDL6B2O42wVCOJKNvnOmIhNPI77pZRvaEQQBufwPLM4ZlHPgprXAXuLSxp++43fBXpOEJr7Bmspol4uTJQ9i7xnkNvAo/cQHzfwCHuoV7RavY+NT09tZxqisOWho0guU9uc4CgQAAEQAAEQ6BYCYTKZVngHDeG0L4cOcrhkIcTyMCLywnIRSikWC38LxA97jMz2SMEjdlrg6XOllKsZfVYVhKGXi0MthRBbaq05XNT3mNUjCFOplPI87wkOVbVtm/fp+S3qFTM+fz17N4noAinlJ+LWQhVBmA/2J/JeS7Mxt0+GIaPNEoTZbParQojjzOyeYZZRIcSttm2/VSlVzSbeQxido1kLwmw2ewKHkHL2UbYxOgfd8jtLsp29KAjrChWN8w6WC4eMO7YW0dnqBdDuQrJILtPqGUX/IAACIAACINAeAu3wDhoiKayHx56/olDi2nNBeOWzZomEZcuWvTbM8tmoIAxE27PsOQvs+JaU8nP1CkLOVBp4yJ6RUq4ZEYRTUkoeU7EZY/pXweO4vnE8i8R7WCRWEYScLGa16enpVcKQUK6z6Hlenv/dbEHoui57UK8gol9JKT/E9rqu+0at9V1GyGg1m1oiCIOEQ5yMyNctQojNbNvmFwhoTSLQU4KwXu8gMzRSLPtIq3n9onsNk7KXrhNeQoSNNulXiG5AAARAoJcJ8Gvannra6K3JMp6DWl7KSinl78ljgpZlvdosJaCUupaIdhZC3O553neFEFsFBct/XShJsPcsBeHXC/rm83xdrfViztLZoCC8gYh2YG8jZwTl5DVEtAkRvRCXZVQp5R8fHHuJEOIQrfVW7OWybfvkKkllDtZan01Ez3MoJxFxxlLeX8d7AtesURByncdFgZ1Xc50/c/VG92AqpZZxVk8hBIfecvgpJ3hJG0llqtlUiyAssUlrzYlwinsIlVKhJ/n6gi0s3v3ssEopFtLsdX1ZSrmwt36FnR9NT92iw4Qn1USdiT0qCKt5/JIqCFu9ITy6VOEl7PyPFxaAAAiAAAiAwGwItDs5XehxCsJFi3sBA6HG+8O4DMT2xiuER7TW2wRlFlhsKN5PGI45EDSrSimH+TPXdb/HWUkty9oqnU5zyQm/jY2NLbIsiwvf6zBjqCEI/fML++1YMLJw/LCU8pfB92ECk43ZQ8g1DIeGhjhzqO/xE0IorTUncPlfnCDkMhmu695IRG8OTOHwSU5a44eQmva7rvserfUfCmUbTnYc57jgey6DwXb5WU65yLzW+n2cTMV1Xc62uk0kZJQT0fAeQr8cQ5jdNTi3OK4K/DiDJ9vLpR54fP/SWr+WBa3jOJxNlW2uZFPcHPGY/cRAcTYVMsXuyns88/n8euwNDhIQcfIctsHfPxpcN5yfy6WUu81m3ePclQlEBGH3bsesN5EMo4juH6zF49XIOe1aeIZYbflbPpSgaNes4jogAAIgAAIg0BoC7QwXrXUEnJ1TKbWRlPIxIQTXsJt1Gxsb29qyrFvNsheNdMqhi1LK+dPT08sHBwfl3Llzn3Ndl8s6FLNoxvXLGVOVUhs4jjPayHU5dNayrGWhZ7OePjjMNJVKvSqdTnMZCRZnVdvy5cvXXb58+cthqGrcCa22KdhXyiHE7CFlccvlSA4OhWPVQeCAugj0jIewEe9gI+KukXPqmpFZHNwBL6G/XzMpYbOzQIdTQQAEQAAEQKDvCLQjmUyzodbjugg8dLsXdghxAfuFuVxu3uLFi7nWXkMtCNN8c6Hfr1uW9aTW+pjCXshXF0o7HFUQit9pqFOcVJFALpdby/O89xHRN4iIBeJaQNZ8Aj0hCBvxDjLKOHE3viuHg5dvnHF0+IpzigfU4lVs/rSV77HNewk5rGD7pDFoJ29cCwRAAAR6jUA9D9y9NvZ+Gk8SvYPN5p/NZsPaetz15wvuPd6v1nALMpby3rY1gk6mhBDn2rbNBePRWkDAdd3fcikMIpqyLGubdDrNIbtoTSbQt4KQxSDfDKOlJBrhW8+exUb6r+ecdmYc7fkSFEiEUM/Sw7EgAAIgAAJdRMDIodDyklUtx1LmLUbgIXyr53n3ZDIZ3kPYlMZ7CdPp9KK5c+c+1pQO0UlZAkHpi41t2+aQXy5yj9YCAr0iCP3QxWoJYUJ+jRSir8Y+KV6yDoSN+l5ChI1WWyH4HgRAAARAAASSQaAfvIPJIA0rQKA7CHS9IAzDResRZNHMos2aqqR4CtscNsrZwG6sh3+zeKMfEAABEAABEACB+gm0s9RE/dbhDBAAgXYT6BlBWKsYa4V3MJy0pIiidoaN8thRgqLdP1tcDwRAAAR6lQBi9Vs9s+0uNdGq8SilPlJ4Ib2dlPKTrboG+gWBfiHQC4Kw4+Gi5mKpNWy1lQusA2GjJxRq+xyfFEHcSrbouzkExHiWUi886Xem0xnKr/qq5nSMXkAgSsDzaOCph2bWmpWi/Ks2BCMQ6GsCvRIums1mbxdCvMWsw5fEiQ0Kqq8jpczM1r5m9jVbW3B+bxHoakHYSFKTVnoIeWkkQRCyHZ0IG+XrYi9h994gUv97ioYvP5tSTz5I43scQZNv2LFlgxm6/2aSZ3/a739y051IHdh44reWZET08iQvOJYG/nkXTezwIRrfpQMvoJNgg7ECUs897ifhGnjmUcqvvi5NbbAF5Vdbu6E1IiaX0/BVP6Sh2y+jiR32pvF3fILIKqlR3VC/cScJdxkt+BxHts+0tt2jkzB/SbChaTOJjppFoBtLTcSNvYsE4flCiPVt295mtnOolGpaX7O1Bef3FoFuF4S+Z6rWcFGeOgjC1izgMGy0nrlojSXotVEC9q++RnNu/nXx9JfP+DPpYafR7vzzUs8+RgOPz9Thza+xHk2vtZH/380UhLMxsJx9bHPmdI5Gmmkvn3kH6aG5s7lU2XOTYEO1gQ39/QaS5352pcOyh55JU5tsW+30lb4fuvc6kud9ofh59shzaGrDLeruxzyBhR+vK26enF+0q1OCEGtoVtOJk1tEoJPeQa31XKXUVpZlDafT6T+ZGSPHx8fX1lpPDQ8PP6uU2t6yrLnBMRMmivHx8XWmp6c3y+fzN6RSqSvLeQiz2eyqg4ODzpw5cx4fHx/fwvO8ebZt8zWnomhd130jEb0ialM2m32d1vr5oaGheVNTU29wHOd3/Fk+n3/W8zxvcHDwbZZlPWHb9t3cZy6XWzOfz2+ttb4vk8k8HF4nl8utIYQYGh4e/k/42dKlSxcMDg5uK4R4IZ1O3xG1iXlMT0+z3ffMmzfvX5X64u+y2ewIEa0/OTl5/aJFi8bC45kDj537CI7ZSGt9YzTjarnrtWgZotsEEoAgbPKktO3tcxW7233Tb8Rb22T06G4WBMTUBM3/wk4klrvFXtyPHE8TW+0xi16J5t7wC0r/hmvJEi3feT/KvfcI/7+TIgjL2UfTk5T55ido4Il/0MTWe5C77/Gz4lDp5CTYUMk+Ma5owWfeWjzEcxaSlV3i/1vPtenlb91ct3fPOeswGvzHbcU+J7bYldyPnzwrxgNPPkSZr33Y74NfPIx96Rf+f3dKEGINzWo6cXKLCHQqmYzrugdrrb9HRAPB0Hi7zzFSytP4367rZrXW/B0/l84JjskR0bpSyue11inXdfmmYb458ojIigsZDb2HrJWIKHyzOS2E2MO27Su5f6XU6wtZ0m8iogVRm1hIsVjjIBb+k+VHnFsWF0h/is0tFEm3jSn6mxAip7XeOvxMa/17x3HeG1yH90csLozVf6uYzWZPEEJ8JRgrf8S1DPe0bfvy4PgbiGgHo/+XLMvaLJ1OP6mUKunLdd1NtdZ8/PzweCHEJbZtvz/gemtg19NG7USttf6A4ziXVLtei5ZhF3bbklikRHGAIGxgOniv3NT6/EJp5VatsH0Dl2volHYLQjYSyWUamqpEnDR07/Ukz/t8iS3Tr3kDjX3uglnZ17WCMBg1hza2yjMYgi0rCNtoQ6VJHnzoDnK+e6h/SBgBMHzlD2n4irP9z5Yd88u69uVZy/5H84/eeaVLztYjnThB2Mb5S/oamtVNBCc3jYDxXHDT6OioKTiado24jrTWc1zXHRdCuJ7n7aa1nrQs62oWVVJKP1ZcKaUCkXVNwfl2SiqVOlJrzaLmIinlR5VSpxLRl4joPq31UZxMRgjhv6mrIgj/Fhy/QyDCcoXi9DK4JtclXCCEOERrzULrZ1eIE38AACAASURBVES0kIVfPp+fCAQhH/oTIQTXwLs2EISktT6MiEaFED83hNZ+3I8Q4rfcr2VZa6bT6adNEcdeUmbB0evMwrKsVxPRhewttW3bUUrty2PWWt9RuD7feD9YeJ96NF+/4OF8a1QQKqVeJqJ5BQflFyzLus3zvO8TEYvEkx3HOc513VAQ8vgO5Ee1AjLeo/GElHLtatdr6cJA54kiAEHYwHQkxQtY8SHukbvJ+fYBfEjbbvyhlxDJZRpYVB0+xfn+ETQ4estKViw74VLKv2LFPrGBR++l9KXf8Y+b2nBLGt9tRiiQl6fMGZ/0/5/3go195kf+vwf+/feSPqfX2YTG33MIianJkj2EUxttSXNu+73vkeP9act32nfGOylW3KJYnM299nwa/Oddfr/5V7yaptf9Pxp/9yHkLVzNvw5/nr7kDP+/J7fYlfTQMM257dLi8RNbv4+W77SPb2Pmm/uVtW/6VRuS84Mj/X60PZ+yn/pucRzW2Es09+of0cBj9xGLEB7T9Hqb0/jOHydt89/lmcaetbk3/YoG77uJUs8/TnpwDrHIntjmfTS18cyL5EZtIO3RnD//1ve0sh3Fvrfeg6ZGVnjz5t58MQ391X8ZTuO7HUYD/7yThu670Q/lZS8az4V5fNwyHLrzKn8/JTd3ny/TxDZ70vDV59HwH37gf7b05CvJW/TKmlfw3OsvKs6ReZL70RNo4i27l/Bzvjezvjh0OXs4P+fMtPTFp/trxbfpQ8fQnL9eSXP/xM9yKxrPy+QbdiCec3MPIa/N4WvOp8EHbydvwSto8k270Pi7DiQ9Z3jFyTXynXPHH2jOLfzsR7R8x31o6IFbaPD+m2hy87dTbo8jYtdQ5lv7E+VXilqjgf88MDNP7/wEje9+uP/f1ov/peHrLiT+3fGc+Wt+ndfT8nd+ovi7jF1Da29C47sdQpXWMUcDDF/9Yxp49G7/2uHvafnOH6f8ausUWTRjDdW8OHBgSwl04kWx//vVOl0QMp+wLOsO27bv4c94L1xBlOwnhHgTh1wqpfwEgaG4C0QkFyG/U0q5hVLqGSJa1bZtKYTww0ij55jwlFJ8nc1s2x4QQuSD468iol08z9s2lUo5WusrtdY/chzHf1hyXXcPrfWlRHSa1vqMQBBqKaXF33NIaCAIJ6WUvhfTdd0DtdbnEtELUspXBNfhP5JHCiHea9v2700RFxRZ57E8Ytv2/7EQVEp9TAixhW3bhyqlvsjXJ6LzpZT7c3/ZbPYkIcRSKeW3zL6y2eyegfgsHht4Utmz6kopF4aCcHp6euH8+fNZPDK3//FtVEppV7teSxckOk8UgcQKwlqcs414pJqxh7AbEqe0u/REuKpHRkb8m3o3MErUL7GDxpgeGw4H5AfCUFSxx5u9QmFjMSHP+Yz/z8nN3k7qgK/PfJWfpoWHval43JKz7ir5d8kf6v1OIZprFwVhuaGrT3yNJt/0Tv9ra9mL5Hz7k5R6/omVDuewRV5vLHAG77+ZnCBZTbl+Q1FTrh6p2u8UX+DNP2bm2n5Y5Ldv9f879fSj5Jx5cDFk0rwGC9nsEWeTN38xidwYZb7+0Vh7/QeLvY+m5dt9kBqxgaan/DGyoIlrZmguzyMLsEpt2XG/ofwrX1v2EBaz807wI598ATWx1e7EHkJuU6/bqkSo1bKM552wR5ELsw7FZtQjLdTLtODzM4mNzDngf/PLLr7HcTMFXvT6LL5ZmJmCMM5GFrm8LvxWB9/hq86j4ctnhLHZWGTm3ntk7BqqVgeXkzmpg77lv2wIQ2Cj/ftr/vDv+y9EGllDLDQzZx7iC864xtcPk0o1Yw3Vsi5wTGsJtDv7eHQ0SikOCziHiDildBg2Sp7nvTWTydwaJ+6UUhwSer+U8g1KKRaHL0op1wz7Vkot4/dqcR5CpRR7/xaZ32Wz2SOEEGdqrQ8XQqzBnregLw4L5caPnoMccul53iEsCIUQt9u27b/BMwThQ1LK1/Fnruu+R2v9BxZxUkr2YPJnx7KHjoj2kVL+IsarF4aEaiHEv9kzmU6nWfR5S5YsmTc0NMR7BlfhWywRsYfzDMdxLua+zb6UUuzp483du0gprzG48NuljVnIKqXuZY+hyUEpxX9IV2NRW+16rV2V6D1JBBIrCGuB1ClByLaZD8nlbO1k+GgHBeGNBa/k9vAS1rKCk3EMe1bSv/2Wb8zyt32Elm+3F80/7j3+v1kgLj3tOiLLf0Hqe5dqFYRz/nIFDV/2vRLx5O77FeK1wd6OMMso98seM364HbrzyqJYmH71xjR29IzXx/7Zib4H0bdplTVpYst3+969wYf+4n/mi4nPnk+DD/y5RBBObfBm/3pDd1/jX5MbJ7dZ9uVf+/2Vs08PDMU+zDvfOYgG/3nnzDXX2cS3e+iuq4s2M7/cnp8p8aDx9fh+MfCfUZr7x5kQXJ/r6dfTnNsvq9sGMzyQhcHEtnuRyC2jObf+rrigONSXmUQf5tnryqKO5zzcLxraXGk1yh8fTUN3X1tyCAtwddhZ/lhqbQNPPEiZ0/ZZMQ/HXkzzj92FrJef9z9bduJllF+8lv/f9QhC9h5z2POc22fWCDdea+z1yq/+mhJByMJ9cvN30MB/7i/Zx/jyGbeQHpYl+16r8Y0ThHzO5Bvf4Xsd414qcPImyvsOC7+xHfyiIWz8koVftpiilwUmex15vfBLD27hvstG1rE85ygauo+3TpHPiPsfeOz+4ksGHsPSU67yS8I0aw3VukZwXGsIdMo7yKMZGxtbxbIs/pGzqDuJiPhtDounHUNBGOwhZK/WTLjHjPgxBaEfZimlZCEXfs/JU5wygvAlDv+MCCEONT1Da31oIdRzvcIth/99HxGxaCo2rfUVRHQLC0JzL2AoCCN79HxBGIZo+veeKoKQj8lmsztYlnWo1nqnYA9jUWQGfXxCa82ZzbbiP71CiB/Ytv2piCD8WhBO+u5wX2TA7UEi2oDDcUMPYTlBGA7add3Y67VmNaLXJBLodkFYVw1CnoBmeAhrnchavGQs3AYevYdaIR47kVoayWVqXR3JOW7eV/csiqWxz//EF2bsmWAPhf+H69PnEgsrbvUIQkoN1JRUhvtd8oN7/fDQ1DP/onknfcC/VugV4hDN+V98WxHY0lOv8UUNh6fOO/VDxYdpFhPWc/8pEYRLvn+PL2a5ZMK8E2e8XP71zv6b///l9l6xQIk+zJu2sQhadvKV/v5C08PKYmPZVy7xhe3Af2ce8ic335mmX+2/TPb7LIqf4y/1yzbUY4Pfxxd2Kors7GFnFcNPzXtb6GWKPsyH4+YwWvtnX52xL/BIVVqR6UvPpLl//EnJIWHmVR6/mBgnPTBI3sLVKy7s9G++SXNv4C035Hvulr9jP0pf+t2iUDazFNcjCNmjW+seQvb28tri9bPgs9sVhTG/JGDxXg/fqCBc+tXLyVt1xoERt4aicFiUs0AOPd8T2+1F7t6+k4GGrziHWOhy4zBSFmfWi0/T/OPeXfL7qHsdGx5fPpdfTHiZRUSeR86ZBxU9r6EXu1lrqOLCwJctJ9CJ54FwUEqpjxPRBYVwxpMcx+FkKiz2fA9eHYKQvVpr5nK5eYsXL+b9htVCRn3PmG3bLKb8GG2l1J9YhHKYqud5rw7CLX8tpeR9en5btmzZa4OMnH5SmWYLwiDM8wSt9ZGO47CnkO26n4g24bDOgYGBY4hoZ9u2t+Bw0mDP4VJ+BySlnBcJP30Xh70S0cVSyr25ryDUlvlwiOmq1QShUoqzvpW9XssXJi6QGAIQhC2cimqC0HyAa4VHrVN/ABrx3LZwGtB1BQLmQ7TpDZx73U8p/btv+2dObPkecj82Ix5aJggDgcbZThccsWXR4iXfu9Pf35Q5w99K4bfivkW2557rioIwe8QPiKYmSwVhsd9JWnDEiuR03C8NDNYlxszSC9GsmJwxU0xPkhYWTb1+uxlDvbzvcRl46p9kLX2eaGLc3+sWtrEv/NT3MtYjCM2Mmb5gPuPPRGLGe5t64Umad/zMHjz2oi496fIS787Etu8n90MzewHZy8neTm7Tr92Mxj7747KrJE4M8sEc7jn55ncVXx6E1yzb0fSkHwIaeiaXBYLYn9+vf3TG7gWvoKUnX+WL+FYJQnMPuLn/zg87XmO9ojexFr6mIIyGtdYiCOUFX/ZfHvjzsNZGlP3cT0gPckLDmcb7UAcfuNmfW2vpC2Qte6lkr28jLzZKMvyaYd+c2vGOy8j+KVdzIgrXiykIG11DZdcEvmgLgU56B3mAY2NjG1qWxW8YeQ/bqbxfLkgYQ0KIXW3bvqoGDyEXruU/Sk9orb9hWdb2YR9VkspwqYevaq23FELwTe8lKSWHY7IQ872IhTDWHxcycV5XCN9kj9yuWmsWVzfEC0L9lBBkZvGsy0MYZDZlrySnav6MEGKO1prHNde27UGl1FcLApZv1PdqrU/hfZBCiGM4tNS27fViwk+f5fBPIcTZnIimcNs4sZCkhjcBHyWl/E41QZjNZk+udL22LFBcJBEEEi4IK+8kbER41OshjMsoym9uzRZ3DL+xLpeJlM+Ns6OagKxnxXQqZJRtRHKZemaqs8dycg5OfBK2UGylnvl3SYhg6FVphSA0Q0N5/9bCw2e8kdxYuM25+1qyLzyuKij3YyeRl3aKgtAsPRDXb72CkDkxL27VwixZuGW+8bGyewj9h6QGBCGHFs47eS/fBg71W3bCihBJFloLjlpR93jJD+6h9O++U9xDyKGsbDc3cz9RJUE4+PCdvteIG78wYA+Wef9j73EoLPl+x/ewco1DFDlUMbrWyNPFjKX8XeiRbosg/Nb+NPCvmWgxtt2z59XFl5OyhHsIzb2b3F81QWh6afn4ZV/9A+VX5e1VM80UyuWYNiIIOUlM+ld+pn9avsOHKLfXinqQg/+4nZyzPuV/F+4PNQVhI2uo6g8XB7ScQKdKTZgDy2az5wghOMtl+GDHWS85w+bpUsqjXVdltSYlpSyGGQQho/dJKTflvpRSvI9u5gZIxOGk7DkrCQsNr2mUneAELmHWKy5Bsa2U0s92xt7AVCrFXsOZOHXfwaYv43IRYdkJTjLjOM77+EuuJ+h53n/Zs2jbth/K4rouC8grTO+n67rHBGLuw1LKXwYiblUppZ+5qpAZlDOW8Qb88O0PJ8k5uJD10w/DyGazvxNC8Nu9mbd9RC8Wagdu5zjOg9G+gjDWPwciMORyppTS3+zvuu4tWuttIiGjjwd7CMMyGGWv1/LFiQskhkDCBWFlTu0QhHEZRTPfPoAGgoQGjRZijxOEzfQSdlIQ8qw1MjeJ+VX0iyER8VVp2O5HT6SJt+zWEg/h5KY7kTqQ98bPJPSICsKhf9xWIiSWv/1jsaZyaKZY9r+iICwJhYzpt15ByHvoeC8dt5IkJDHW2Bd+heb8xS8p5Yfbcki4nreK700LPWSNCMJoAqClX+dnmZnGHqT5X3qH/9++t/frfyrxEOY++EVavr0fVVSzIDTDOUMxwAKIPWPRxuGfHAZarnFhe/ayVmu8zni9VRKEZiIVTipTT8hoiYcwIghZZIclMUKGlfiaHkJ+mTK+i5+scGY+YsKOw+9S/32E5p1SjFIjdcA3aHKzFWHRpLUfJh3We2ThNrnle/hxtbgHk/tqRBAO3XsdyfNmRKDp/ed/l6zxIDKgRBA2sIaqzTe+by0B81ljdHS0o898QQbMjQti6h9h5s96R88hkUqp17A4qnRuKAhZCPEeRi5SbxaGN8994YUX5PDw8NqF0NGHGrWr3nHw8blcbi0hRKqcXdls9nWF/Y4vRIvIx10rGMNa1bhUYVbz9RoZL85JNoGO3hxmi6YR0WG+Ga/l+nGC0HwYaVQQlssM16ySFp0OEYGXsJbV1dljzNCxapaEXiSzJh0LHfbm+A+/kX1+nGV0pT2EQcIV/8Hz/ptLyk5UEoSpl5+jeV/ZrWji0tP+SN68VYv/5vDHqfU290tJmFlG6xaEhn1xD/MDj49S5vQZD5vvnTv+0pmyGMFeRi5Ezvu8WOiZ+9DM0h0lQibOQ1jFBhYECw/drDj2cN8bf8AlEOyf+mW5iMt4cMbT2T7Mm+cXBZ/2yA91vIvLiK1ovHeS91DGNRY2zKTW5md1FYIWfLpY59n3FrOIjzKIE4Rh4iC+XqXC9FwCwvQQ8jqqh28jgpBfCMw7Ze9ihs/lO+xNub040/yKxtk/SxI7nX69zyNawzFWEFZZQ6mnHvb33nLzRe+p18xw5eRNxouM4h5PI1NtIy8Vap1zHNcaAp1+FmjNqKr3agrC6kfjCBAAgW4XhLzZ4fh6RFm9gpCXiJlR1E8CE3gHw+VTb8bRSmGr5ljCtOqcdMa3Y9eZ0K1aWhL+CKAERS0z1bljTI8Ne474Yc9s0UQsHNLmi5+gBAEfywkwWATNvfEXxTpq/HkoCM0adiyicu//LHmrvIpSLzxRsyCkVIoyZxxQfHDnvWq53T5FNDTX30/F2TV9r9JHjqfBB26py0NYzj6uSbdShkgeOyfgCUpf+PUEN9mWBu+9rrg3MNxbyGGdYeZIFlKTm77Nz4IZZhllRrxvj4V2XTZw8SjjAZ2Zju/2KX+vGWeKDb2Pav/T/EyXsxWEvDfSOYvrL880nj8Oa+TsrmaosT/n3/sr0cCK/W/mWjLDFKOhrv5xnkfzj3570SPG4b+cSdYU1hyuOrXRW3zRb2YTDQWhteRZmn/su4qX5bIl3qLV/Xp9ZtmJSh5CDnuth28jgtBM4uQz3euLJfsGddqhqfXfRAs+v6JuOM8n76/k/Zxmbc8l37/bfxFS1xryPMqcvm8xaRTveV2+9Xv9uo6m53fpSVeQt8oas15DnbvD4cpMoFO5BDpNH4Kw0zOA63cbgb4ThDxB9e4jTMqk1iN8EyIIUYIiKYsnYocZjsdfmZlEzUPNh1cuAD++yydLHibLDS/05kRFpf8AvMcR5K2+bu2CcGDQL+yeOW3fouCJXpdFxtjRP/df1oR1CGvxEJazj5OlxJUMMD2kURv82nCfPpd4T+Tc6y709+9VauwV5XDZem3gGocsOMNspdFr+Hu/DjvL9yjNVhBylkv5gyOLpTYqjccXwx87acZrGmmmQC53H2NBGxaXDz3S/h7I6y6syNHce817KENRzCexp5TFVD2CsB6+9QrCqGiNG1gomFmIsyCv1MIMofWuoYHH7qPMNzjxY3wb3/1wP7Mpt9muoYTeAvvCrCQ8B3QKtNY6vWzZsjlhMfZO2YHrgkC3EOh2Qbg9Ed3YyN67bhSF9YwzCX8IUIIi5jbAhVIS8KszE1r42RG/eZMf4hltw1f/iIb/8H3/4zCLJIsz+4Iv+x4Fbnw+7+ubc+slRZESegj5e9M7xP/OvfcIyq+27grhZmY6jO71C0JP+TwOS2XRwLUGzYd+3l/FNd+0nO97DJ3vz+xjq7g30eg3zr7JLd5ddi8Zjzv9y68Vx+8Ljw3e7Bebz6/Gyd381AQ0fM2PaO4fLyzaysfozKJiqOXyHfeh3Ac+5x9erw1iPEvp355BvB8sZDGT9OWDNL7L/r7XyH+YN8pFhGUE+HOOOsic8Un/mGrJYDgUloUZ7/8zRSiPZ2Kr3cj+5deKNuTe92l/LZhtJU/zsRdTfs31V1prHLrJIZxhW3rq1aSHHUr/6msl2Vl5ryjz5bFzG/vMj2l6vZkwWhY6zvc+tYL567Yi9YlTSzOHcjhq0EoL3K/op1a+5u9jfPfDaPydK+yP2+9pLXnOr7tYqYWCUEzk/NIgZv3HiW0/4HsIQ++zWUC+3jXE88Jsw7qabJPvcd79cP+3E7amrKGKI8aXrSJghKjvMDo6OlN4Eq3HCFROvthjg8VwWkggAY+mjY+uGfvUWDi1osWFls72OvUIwqT8IWhkn+dsOeH89hAQaqkfquit8spi6YOyV/bylHrpGdKpQfIWLK5+fKUhaO3vpWJR4M1fdXZ9hddpwD4xNUnWy89RnmvvBXuwVjJbe2TxuNMZ/38VWwM2MAO2gUM1/VpyLW4symlynLyFr/RLQ7SrsTjipDn5Ra8sG5ZatIWZLH2exPQU5ResVn5uajG+zXxjTZqeotSSZ8mbv9ive9n0NZSfnunfWThTnxGtJwgk4aVwT4DEIECgTwh0tSDkOUrqPrVa9yqyyOMW3ZcYt/7qCRlNyr6BZoj2PvktYpggAAIgAAIg0BQCSSg10ZSBoBMQAIG2EOgFQejvU2tmDb9mka8UlspCkJPEmLUKzXIWURvqEYPl3wx2JrQAXsJmrSj0AwIgAAIgAAKVCSSp1ATmCgRAoDsI9IIgbHgfYTumqJzIixOw5byK9YhBHpNxzRNHR0c5E2tH28jIiJ8Ntp6Q144ajIuDAAiAAAiAQJcSQLhol04czAaBOgk0083T9YKQ2SU1bJRtKyfyytUbjKtPWK/3MynhouG6NpPL1DuWOn8bOBwEQAAEQAAE+ppA0p4B+noyMHgQ6BICvSIIuy5stFWCMKlvBsOw0Xq9nV3yO4KZIAACIAACINBxAkl9Bug4GBgAAiBQkUCvCMLEho3Gefx4RuKEUaU9h7V61pL6xwAlKHAnAgEQAAEQAIHWEkAymdbyRe8g0KsEekIQ8uQkMWy0UpKYUBROr7e5v7a4LtjwFeeUXWe17L9L+kZyJJfp1dsIxgUCIAACINBpAsYzwE2jo6M7dNoeXB8EQKB7CPSSIExU4pJWFL6vJgqT6h0Mfw4oQdE9NwZYCgIgAAIg0F0Ekv4M0F00YS0I9BeBnhGESfMSlgsVne3yKrf3MOneQUMUav7vWkNgZ8sL54MACIAACIBArxMwE9iNjo721LNdr88dxgcCSSDQUzeNJHmgqoWLNjL5lTyE3bJvIAwbrebtbIQPzgEBEAABEACBfiQA72A/zjrGDALNI9BTgjDwEiYm42h4g2bxwy0sQs9v8gYeubvsLHLCmbCF+wrjCtkXj7ny3OL+w6S/GURymeb9eNETCIAACIAACDABlJrAOgABEJgNgV4UhInNOBpOVLnahPx9I6GU3eIdDMeP5DKz+cniXBAAARAAARBYQQDeQawGEEgygWaWj2/dOHtOEDKqbghLLBdSWm6PYLkl0I1/CJIU2tu6nxZ6BgEQAIH+INAdjzu9Oxfd9lK4d2cCIwOB7iXQk4IwEIV+8pKkFkKPy0Jar63dkkgm7ucBL2H33jRgOQiAAAiAQDIIdPNzQDIIwgoQAAEm0MuC0A8dTaoojAsbrcc7GBGUO4yOjt7UTUsaXsJumi3YCgIgAAIgkEQC3RgllESOsAkE+p1AzwrCwEvo1ybk/25kb16rF4eZdGZ814OKSWeqXTciJk8cHR3lcXZdGxkZQQmKrps1GAwCIAACIJAUAkgmk5SZgB0g0N0EeloQdoMorHf59IoYDObGzwiLEhT1rgIcDwIgAAIg0O8E4B3s9xWA8YNA8wj0vCA0hQf/dxI9hbVOZy+JwWBeimG99YTL1soLx4EACIAACIBAMwjMPnEOB8Q095HLSCbTddtGmjEn6AMEQKB5BJp7d2qeXU3vaWRkpBg+Wm/ylqYb00CHkT2DN42Oju7QQDeJOwXJZRI3JTCo2wk0/7mz24nAfhDoOQLwDvbclGJAINBRAn0jCAOPVFeKwogY7No9g3ErHcllOvr7x8VBAARAAAS6kIBRuqqnngm6cCpgMgj0BIGECMLZB2PUOhvd5imM1CvsyRs/ksvUunpxHAiAAAiAQL8TQKmJfl8BGD8INJ9AQgRh8wdWqcfQKxUek8QQUt4vyDf9gUfuDs3s2T0CoUhHcpn2/g5wNRAAARAAge4jgHDR7pszWAwCSSfQl4IwnBTTW8ifJUEYxgjBntkvWO7HYAr0bk76k/QfO+wDARAAARDofgIoNdH9c4gRgEDSCPS1IOTJiBOFvjjc9aC2zlWcECykJOMQ0a4qON8otDC5DLyEjRLEeSAAAiAAAr1OAN7BXp9hjA8EOkOg7wVhJW9hq4Uhi0BukdBQ/qhF4aHt26vZyHIO9xImwVPbiP04BwRAAARAoN8JtC7NL/YO9vvawvhBoHUEIAgjbKMeQ/6avVZT67+xKV7DCiKQL9WTSWNqXb5m6ChEYa3U+vy41j179TlYDB8EQCBJBHo523iSOMMWEOhXAhCEZWY+EIb87fHRQ1ismG16vc39f7Jo5BaKPv7vgUfvKfnMSBITdsEhoX0TGlrth2YK8lCIM9+QbbXz8T0IgAAIgED9BJIdP1L/eHrhjDIvkPv6xXEvzCvGAAJJJABBWMOsVBKHNZwedwhEYAVwgaeQhfj2DfLFaSAAAiAAAiDQSwTw3NBLs4mxgEDCCEAQ1jkhgViJCpXtgm7Cz81EMDcH3/mf9UuSmDqxxh5uCHHmC3HYDKjoAwRAAARAoFsIhM8SiCLqlhmDnSDQpQQgCLt04mA2CIAACIAACIAACIAACIDAbAggYJ7p9YwgxHTO5seAc0EABEAABEAABEAABJpLAE+nzeWJ3lpFoGcEYasAoV8QAAEQAAEQAAEQAAEQAAEQ6FUCEIS9OrMYFwj0JAG8be3JacWgQAAEQAAEQAAEOkYAgrBj6HFhEAABEACB3iKAFxa9NZ8YDQiAAAj0BwEIwv6YZ4wSBEAABEAABEAABEAABEAABFYiAEGIRQECIAACIAACIAACIAACIAACfUoAgrBPJz7xw0bkVeKnCAaCAAiAAAiAAAiAAAh0PwEIwu6fQ4wABEAABEAABEAABEAABEAABBoiAEHYEDacBAIgAAIgAAIg0G4CCB5pN/HmXQ9z1zyW6AkEmk0AgrDZRNEfCIAACIAACIAACIAACIAACHQJgY4IQrwl6pLVATNBAARAAARAAARAAARAAAR6mkBHBGFPE8XgQAAEQAAEQAAEQAAEQAAEQKBLCEAQdslEwUwQAAEQAAEQAAEQAAEQAAEQLaL2aQAAIABJREFUaDYBCMJmE0V/IAACnSeAuPTOzwEsAAEQAAEQAAEQ6AoCEIRdMU0wEgRAAARAAARAAARAAARAAASaTwCCsPlM0SMIgAAIgAAIgAAIgAAIgAAIdAUBCMKumCYYCQIgAAIgAAIgAAIgAAIgAALNJwBB2Hym6BEEQAAEQAAEQAAEQAAEQAAEuoIABGFXTBOMBAEQAAEQAAEQAAEQAAEQAIHmE4AgbD5T9AgCINCFBJCYtAsnDSaDAAiAAAiAQL8QaOGDCgRhvywijBMEQAAEQAAEQAAEQAAEQAAEIgQgCHtsSYyMjGwfDCn8/+2MIYaf3RR8dnNk+DeNjo6G33U9mYAFjzlkEI6/68eGAYAACIAACCSewImBhT31tzXx1GEgCIBA3QQgCOtGlrwTAuFzPBE1S/D4f8RGR0dPSN5oa7NoZGSEbWcmaCAAAiAAAiDQaQIndvPf1E7Dw/VBAARaSwCCsLV8W9Z7ORE4NPJK/5pDm8z8/+DI6kUbwu8mR5/xP5safbbEPvXLu+Ps7SpxGOXCY7Y/tPkMk4BNyyYFHYMACIAACIBAQMD91T3+f0X+tu7QS5E4mGwQAIHeIABB2GXzGOf5arbo4T9ikw88Q6FwNBAl/g3nyMiIDsUfC0GIwC5b4DAXBEAABHqQAP9dNYQhRGEPzjGGBALdTACCsEtmL/B83Ria22wRWA5DmTeciRSGoViWH3oj2XvPeAXRQAAEQAAEQCAJBF4+9vLwRSvvKdwhCTbBBhAAARBgAhCECV8H5UIg2+35SrowNAXzKy47KOGzCvNAAARAAAT6kcDzu58bDhtewn5cABgzCCSUAARhQieGzRoZGWGPoJ8oJvQItlsIRvFEwl7460R4C+EdTPBChmkgAAIgAAI+AcNLmIi/nZgWEAABEICHMKFrwPR2JUUI1iAMO/q2E4IwoYsZZoEACIAACBQJ8N58FoWFl70IG8W6AAEQSAwBeAgTMxUzhphJY1gMLjjlPQmzsNSciMewY288w2QyCBdN9HKBcSAAAiDQ1wQgCPt6+jF4EEgsAQjCBE2NKQa7KTFKEkRhGF7LArrTYbUJWlIwBQRAAARAIEEEulkQuq67q9b6/ZOTk59euHDhsgRhhSlVCGit57que7YQ4jLbtn8PYCAQJQBBmJA1Ye4X7CYxGOLrtCiEIEzIQoYZIAACIAACZQkYfyubGlGjlOICwwuMCy8loocHBgb2nzt37mPNmBKl1M+J6MOe522QyWQemW2fSqn7iGgdKWVmtn0l7XytteW6bk4IcZdt229l+7TWc/j/hRAT/P/ZbHZHIcR1QogTbdv+aivH4Lru6lrrZ7TWlzmOs0ct14raW8s5OKZ7CUAQJmDuTM9gN3u4jDefTLWt+yPCfZfdEGabgCUHE0AABEAABDpAoIWCcDkRWUT0RyJKEdFriGg9IprM5/Mbz5s371+zHW4LBOH5Qoj1bdveZra2JfF8pdTfiOhGKeVn2D6llEtES6WUawSC8HVCiCu01p93HOeSVo6hEUEYtbeV9qHvzhOAIOzwHPSKGAwxRkRhU9+AVpoqlJ3o8ELG5UEABEAABKoSaFXZCaUUC8KslHLV0AjXdY/RWp9CRN+VUh4Zfj4+Pr729PT0m7TWN2YymRfNzz3Pm0in0y/ncjn2Xr2YTqfvDL8vJwhd193c87x1+UWw4zj/i0JYsmTJvMHBwZ0GBwf/bnorc7ncGkKIoeHh4f/8P3vnASZJUfbxt3p293anq/ciRzpykHCEIyoZBARRQYIEgU9RUEBFEAQDSQwgCEZAQJAgCAgSFFCQICiCHkGWHCQd4RJ3O9Wze7s7Xd/8e7p2a+dmdnLafet5eLid6a7wq56Z/vebjEBKpVLvTp48eVkymdxTCPF+PB5/NLu/ZDK5bRAEU13XfaCvry9cbzwefzsX/PT625VSOziOE4/H4/cZ65x9rO/7WxHRivF4/G9CCHAMWyKR2KjQfMbqv7e3d33HcZa6rptQSq0phHiGiPq01ttIKV+GgFdKrdPX1/dmV1dXFxGt4Hnec2Z8rXUc50kpXxdCJPH6kiVLpsZisd201s8UstJibslkcg/so9b6rVwWwv7+/rUHBwdxLTxp+jPjZs9XCDGIOfT29k6PxWI7plKpBZ7nPSqECApe+HxA0xNgQdjALaqWGIQIQxvseZcGnsn8G828nr1EE2PXsckqw29Vs5B7A0VhWKajla2s1bscNZcZrR5M7okJMAEmUDEByzpYdQ+aXIIwmUyuHgTBG0KIR+C2OH/+fBmPxx8hos2sxfxVSvkx/K2UUqhyFVkYYW1EW+Q4zuYQXNmCUCm1ORE9RES2y+e9Uso9cWLkNnk7EX3CGu99jC+lfF8p9SYRzZRSdiYSiRWEEPOJCP9B5Jn70+ellBvhfAjZVCr1hOUaOxRZRRdKKVfM3qDIJfMuIgpdNaN2gZTylGi9m0LEWv3hh/Pb6fmcW8x8iugfQukprTUsob+w5yeE+BTmrrW+DaJdCLEmEX2WiD4mpYSVF/txJRF9noj2llLeo5S6goi+YPUzL+0COieXCPd9f1+t9R+IqC06HtZJ17iMRjGFYLmh1d87QRBsJoQ4JNd8Xde9Uyl1XTRPc9pAEAS7d3d3P1zxB4Q7aCgBFoQNwm9btMqJGYTo8m+Ym1f0lbMsCEUjEisViFkxhXUpScFuo+XsOp/DBJgAE2AC9SBQK3fRSDwsZyE0Ai4teH4mpfy6UupuItpLCIHkItcGQXAREW2rtf6K53m/Ukr1EVGn1voKrfXVQohTIFy01o96nrddDkEIq9wqQogvp0XBI2n3z+sjsbmHlPK+RCJxlhDiTCHEP4UQJ6VSqX2EEKcT0dNSys3zCEIs57wgCP6cFkm/FUKsnY7D28d13buUUhAwc4jot0EQ/AZ9CiE+TUQQhMOWUbOXSqn3IC611odprec5jgO3zJmO48yKx+PzlFKwjk5NWyKP1VpDnELsTHMcZ/VUKrUsEqhjzadQ/6EgTCaTO8Xj8XWJCPMH4+1d130+mUzuZQSh1vo6x3GeJ6J7pJR7R3sKa2tcSun6vn+M1vrXRDTXcZzjtNaHa62/SkT3SSn3sK9frXXM930j7k/WWj8d7c2KRhAqpW5Ix5gegr0OguC8tra2k7TWxxLRlclk8oQ8891ba/1HInpGaw3RuA2OJ6LXpZSwEHNrYQIsCBu0eaZMQilisBYicKzllzK3XP3YorCnp6cu15rhylbCBl3YPCwTYAJMgAksR8D2nKnF72FkIYQl7CUhBCxPcAGKw8Lnuu4suEIqpQIhxKuu6yK2EBa8dt/3keAEAm2OUgoWMpJSDv9eG9EkpYzlEISHCyESruvCCgiLFiyDfzEuqpEgg2tnl3ErVErh/Q2llKvnEYRaShlaJ5VSnyOiq4QQZ7muezbmny0+ojkPSSnbs6H7vp/AGmOx2AZdXV2vw9U0lUodFQTB+W1tbetrrf8MQeR53tE41/f9/SLBc67W+sJIEOadz1j9I2Yzmu9TUsotovXASrdUShm6Z0VWvNBC6Hned5VS7xLRFCllV19f31qpVOo1IcTNrut+Js3idSJa1XVdadxelVIQ5DNgYbXXnkgkDhZC/B5iTUoZWhR7e3s3gOA0ghDWTcdxEL95qSWgU0T0orHIRjGEw/OFC2xa3MOV92ZYeKM1IWHRLCklLMvcWphAXW7SW5hPTaZeahH1egvB7EVXIgxRgDdyXa26i0yuzTHZRjm5TE0uXe6UCTABJsAEyiBQS+tgdGMOCyEE4RtE5MHShddd1+1A7Bfi4YQQz0ZTH7CWgBv596SUK+cRhH8jot1c14WV6nI7y2gymZwVBMGtkVVwWBBorS/1PO9YpRTGeTuf9SiPIHxOSrlxJJhQ5uJPsBi2tbVdNjQ09KoRSJaIWU7Emvd83/9u2lp2TvQ3rIF3aq1PhYulUupHRHRaFg/cE7cLIW4JguDYSBDmnI+U8rSx+o/2JLQQliAIz01bEE/VWn/UcZwDYbHTWm/ieV5PJC4xP3vvIIKFLeCjccO1peMMD/A8D/sD8WmyjIbWXrjzJpPJ32ut90nzRfyi0QMvSSk/FPUzSsBGr51MRN+CcI3cdfFyTkFexseET2kgARaEdYZvxw0WU0Q9Kx6vzrMdGa5KorDmrqOcXKZhlwgPzASYABNgAnkImGQytbAOWoJwOKmMUgpCCoLqBM/zfh7F+yHrJQQFykfYDSLg3DyCMIzNzyUIo1IXKwkhfgVXx7TbI9wif2oJQlgf55UiCOFC6Xke3EAhYoYFoeM4F0fxkH9wXfegYgQhjkHSlFQqBbdJCJ/V8VIQBLMcx/lO2lp3IqyjkSvnMI9IhD4MQZhvPhCEY/Xf3d29qFQLIRLGtLW1LSIixD3CqthuXGGVUrDewXJ6VdbeBVLKL9qvJRKJ78E1FzUjTfZSIwhNPKnv+zdprcHxXq315Vrr9xzH+TsszPkEoVLqUCKCWzCS3PwwCAJYoxGnCKvmchZa/jJoLQIsCOu8X6W4ijaLGDSIyrW61bsQL9ckrPNFzcMxASbABJhAXgK1tg7mEoS9vb0zHMeBW1+/67pI+qLTFi0kYXnXlD3AeUuXLl3XlKTIIwg/gKERLoG2y6jnef9LZzGFuJwrpUSWTrh4fiPtcXqBJQjh0rii67qdaYECQYNjriWijWE1y2UhHEuARQLrHSnlrCxBOJjtshit/wG4Trqui0yrGPv89P9g4fq61vrtSMzcJKU82PRneJikMvnmEwTBBY7j5O1fSvmzUgVhNEdkGYVLbxsSu7iu+7Xo9XlEtNLQ0NCMKVOmYE/gBjojCIKU+duswRLSv5dSQsRBXG+VFsX/tmIIEZ8o4Z6K91Fz0Pd9WJnHEoR3IkFQW1vbOiZbbK5rhr8KWpMAC8I67lup1kErPXUdZzn2UOXG5lmuo3WzEpYrYJsGNk+ECTABJsAEWp6A9Vtes1JMubKMmiyVRlhE8XuIAftnEAQ/F0Jsl44xRGISiKJDTFIZWPvSdQyvTVvIkLxk+3TimbullB/PEUMIAdGutf6hEAJuqqa0xbVSyiOVUvj7pxAZ6eylP9Ra7yCEgDXrsXTWzA+XIQjvT2c13RWJVCDUhBBfIqJNkJk0V5bRiEkMiW2CIECZh3ORpIaIwqQ3SilY4+Ba+5v0OlEg/ojIqnoIEd1fyEJYRP/ZLqNIQjM9mjcS/GxjksoghhAXeiKROF4I8cvool/JxOr5vv9lrfUlRASRD+sksrKeobVGjN+wQLaE8lK4DsN6q7WGG/HZiCm1BKFJ0HO9EOJFrfXxSLgDl2MpJTKeQkCPmm8QBJgbLKuwqiIBD8RmGB+Z7bba8h/aCbgAFoR13PRSrIOYVjMKwnJFVq0D6rO3ka2EdbyweSgmwASYABPISaBeydUicQJxMFx+ISotAGHgIBkJ4sR834c74i52zBiEWhRXh8yUsBjB8mcSlbyUTCa3nDlzJqpShCUHUqnUerAqRslLYPEz7oLIkokyBmEW0cgydbHWGsLNlLF42nXd7VBXLxKEK8BKZVnk/uh53v7RuR9H4hcIOSnlt1DPsKOjA3UR18f7QgiltXaJaEEuQZhMJrcJggBJbBDvhqa11r8xSWRgDUzX00OMJFxJzfu3w2W1mPkU6j+yED4ppdwyEnvnCCFC4YdYzGj+d2itv+95HrKvYoLIEApL7nIiSymFGEOUzDAsl2it9/c8D269oxpqQ6LOZBRPClavwKXXWDyjtT9mYk2RqZWIJmMKUsqwTEcikRg1X9d1b/V9/19EFO5tdJ3gmpmmtd7YrqHIXwetR4AFYZ32rJxEMrCqNVurUizhqKekuAjDqPAqNi5BUUWY3BUTYAJMgAmURaAe7qKlTgyiQymFTJ/IYhkWPEeL6hAqKeVKiL0bGBhYili4Qv0jg+Xg4OA706dP7813LJLaSCmRFAZxhWU11FGUUk4ZGhrqb29vl52dne/5vo8yDo9LKbfN12kkJNdIxx4+a1xX7WPRb1dXFwrAP5/r/UKTLdS/fT7cPGOx2GrxeBylIMoq6A4xh4L3ueoPZs8V+9jf3/9BtlupOS6ZTK6Kf6MMR6515ppvxGt1FoCFrozWep8FYZ32q1TrIKZluVnWaZaFh6lEEDbAShjqzHLdXAvT4COYABMohgA+iPxjUwwpPma8Eah1Mplq8rIFYTX7rVZfvu8/orWGm+WPHcd5U2v97XSSlTWQHCYtFOGayo0JMIEyCfBvdJngSjmtVOug6bvZkspUIgbNmuocSxhmRyvXzbWUPeZjmQATYAJMgAnYBJrROjjWDjW7IIxq6d2HenzROgaFEL92XRdxkNyYABOogAALwgrgFXtquYIQ/dvxB8WOV4vjqiWq6plxlEtQ1OJK4D6ZABNgAkygGAJWHoCaJ1MrZj6Fjlm0aFF3KpUKEC9Y6NhGvg8XzXg8Pt1kumzkXHhsJjBeCLAgrMNOGnfRYuoO5ptOI4VhNSyDZl0NcBsNrYTsNlqHC52HYALjiAC7uY6jzWzAUlrNOtgARDwkE2ACTUSABWGNN8NYB8uxsMG9smOTVcg9JExQFVoL0dQN/6nxrIkwX3tsDGiS3EBcVdLq7DaKbGoPlMO/kjXyuUyACTABJjBxCdSj1MTEpcsrZwJMoNoEWBBWm2hWf+W6i9qWtFwWOojDgWfeIRxXrQbRhOYeumUoCE2zrZPVEFb1dBvFGrgERbWuEO6HCTABJsAEChGoV6mJQvMo9/2oiPnxQRD8qLu7GzUEq96ikhiXaK3v9Dzv1qoPwB0yASZQEgEWhCXhKv3gct1FcyWUgTBsn73yKLGGGeHYwZ53hycHoWhezzVjW+zBCpivT5zr3zB3lOissiCknp6eml+DlVhpS99xPoMJVE4gWOxTaqEfdhSb4ZIzDaW2uDEBJtAKBJrdXVQphcLia0kpu8FTa406gijgjkLzKD9xKmr/oeaglPL6YphrrcPadcWWlbDq/N3hed6+xYzBxzABJlA7AjW/Ga/d1Ju/50qSmhTKMJpPHFZCxVgbs0Wg3Wc1BCH6a4TbKMblWMJKrhA+1yYQ9PZT/yOvjoKSvPMZ0j5qOhN1fWxDcqbGh99vW2MadWy8clEQ/RufIHX9v8Nj5WFbk3vwFkWdV82D/D8+Tck/Pk3tG69MU07+KFHM1EKu5ihj9JUKaOlFD9DAf+dR/JOzyT2o/gzqtFIeZpwRaPZSE0qpK4UQ67uuu0MkAFFsfFspZXhPWI4gVErhCdYSKaXJADrmrrIgHGcXPS+n5QmwIKzhFpbrLoopFRKE2dOGQDQNFj/TbGug6dc+F+Iv1+v5sFQrwUwxgrCaBeuN22i15l/Dy4a7bhECQ68tpEUn3lL0bOP7zCbvmO2LOr7hgjDQ9P6nLxue69RzPkEdmxZ1n1fU+uyDht76gAZfmh++1LbmNGpfZ4Xw34Mvz6fFJ/9x+NCZN32BxKS2kvvnE5hAPQk0wjqYTCZXF0I4XV1dr5u1KqX2cl3376bwPASY1noqXEBRjFwI0dHV1fW/qJTDXbAYaq03TqVS77a1tR1jLIRCiAeCINgpCIK5kydPfiWbZbomYFwptaYQ4hki6kOdQCnly0KIQRyLIuau6+6utX5dSvmUOT+XIFRKrai1ni6lfN3Me8mSJVNjsdhuWutnbPdVnB8EwWTMKZFIzCaiDbXWD3R3dy+059jX17fm0NDQtvnmX89rg8diAs1MgAVhDXenEkGIaY23wvSjhOjv55rkOGf39PScVcNtCLuuxFpb67lx/61JYFwLQiJKXP4PSv6ph9rWnE7Tzt2XRBe8yqrfYFVNXPHPsGP3gM1JHrlt+G89mKIPvnU7Db68gLr22IC6v7Jz9QfnHplAlQk0IpmMUupFIlrXdd12IUTg+/5+Wms8TblJSnkwlqiUeo2IZkkpO5RSbxLRTNd1p/i+35eF4HdEBHEHl1E8qZlp3tdaX+p53rH28YlE4itCiF/YrwkhPuW67p1KqauI6HPmPSGESqVSe3V3d/8jWxAmEoldhRCoMTgYi8U2hFhVSl1BRF+w+p6ntZ7jed6CqEg9nrDNs+oSaq31QZ7nhU/qlFL3E9Gu1vmLHMfZIh6PY/3cmAATsAiwIKzh5VCpICzVSljOUkw2UduqiH5MTKKd0bSa1rVGPEXl5DLlXCF8Tl4CWpNOhg/Bh9v8w3D/k2lTzvg4dWyw4sib7TESHbGigDbcQhjNUi8bqrlVLp8gNKDqMYeiNoUPYgIFCFi/aw/29PTYQqSm7JRSP06H/J9CRHtLKe9RSv2FiPYkokVSyhlaa8f3fXxZPS2l3MIIQillp1JqUyK6k4hWJ6I5QRC87TgORBgEIdrnhRALtNYQWR1SylG+47AAxuPxdYnoCVgIiWh713Wf933/y+mvwZ8S0fNBEBwthNhSCHEREfVDiCqlpggh5mut73Ac5xyt9aN4DkREW0kp/+v7/jFa618T0VzHcY7TWh+utUYB+vuklHtYghDiDhZNWAkvSM/3DSnlmkqpw4noWvSbHue49DwgjE8TQjziuu6ONd0Q7pwJtCCB2gnCavr7tSBYTLlSQYg+alF/ECIwO5NoIcQQp9nup4XOGev9emcajfaDS1BUsml8bkECC468hoKlmQfu087/NLWvP/xwPXxNJwfI/8OTNNDzLg2++D7FVplMHRuuRPH9N6O2WVOH+88pCLWmxOX/pMFXFoTHObKDJp+6ZyjYUgsU+Tc9QYPPv0dwwWxfbwXq2HxWGHdn3CzxXuIqhAoRde6yXvh6370vhOdgHvE9N6T4pzYZjhVcev59Yb9ok0/ZnWIrSPrgW3eQTgXLccBa0NwD55A8Ypvw36n3eglxiIPPvhvOKVzrBitS/MA51LbqlPCYxafdHo5vt/YPrUh4+NS29gxa8oN7Mmv1JtGU0/cePqxYjsm7nqX+B18Oz5Of3ZoGnplHy/71eobROjPIPWxrmrQV7oO5MYHKCTTiQSdm3dfXt1YqlYIF8HdSysOjeD74V3fEYjG89yEiwofpNCnlebYgxPlp99J8MYRXp903QwufUgqi8RPoz3ZNNdSiMZdKKcMU5UopWO5ghfSsZDUQbN/QWn8F1ksIwrSIfYyItsY5QRDs3N3d/Uh0PtxfV3VdV5pENUqpt4loBoSsEYRDQ0PTpkyZ8kF0Dr4c41JK14qDvFJKGVoZE4nEOUIIxDn+pPLd5h6YwPgiUDtBOL44lbWaalqkqiEMyxGCZS28iJMaIQgxLZP1lZPLFLFJfEjJBMYShBBIH5z551Ao5WpTvrUnTfrwWuFbuQQhrPWmFimOmfqjT1HHRivTwHPv0pLv3U26b7S1EsdAhE3/yf4k4h207N9v0JLvZwRWvtZ93E5hMhy0hV+6YXiu0391MLXNmkKWO1zOLjB/rGPw1YW0+KTc8ZVwPZ161j7UvsGKefubfNJu1D57FVp41HXhODhn5u+PCv9dCsfEVY9S8rb/jrnm6T8/iJDwhxsTqISA7dFTj+zZ2XNVSi2FDnMc58AgCP4phDhWa31J+qviZ3imA9fNIAhmdHd3LypBEA5nGVVKXUtEsNJt7HnecznGR1IZWxAuI6J3Ya0zx/q+P0drDUvi1VrrUyJBaN5+SUoJ4Ro2pRSePOEeNZOlK9Pgty6Q/EYphX7mmEQ40TlvENFKUspJixcvntzR0YGYxxlweiKiJ7XWF3qed2Ml+8znMoHxSoAFYQ13tlJBaG7+qlGYPp+7J37EciWWsV1Jq2kZNLgbKAgfIKJdqpUttYaXD3fdggTGEoRLfvgXWvZYJucDhFrXzuvRwAvv08CTb4WvQfTMuOKz5MhJywnC2IoeLb0I4TCZBotd5w7rkB4KaNHxNw4LNyR+QSbTvodeptQ7uD8kcg/ekuRhWy0nCMNjZ69C/Q+/ElrM0BAvOP1nB4b/ziUIE79+ZJSFcPDF+TT0+qKReX1zD+rcfu1R8c+dO61LnduvQ333vRDOAa1z1/Vp8td3DS2U6trHh62qeA+xgh1IjNXRllMQlsIxWxB27b4BOTNcSt7+32EBHd9vU/I+/5EWvNp4ys1EoFHWQcNAKXUHLHhCiFu11vu6rjvJ93184RiTfqeUciUcXydBiBIW70sp1zBzTCaT2wRBAIvglVpruG9mskll5ghX1MPSovCGaI6p6LURP/zoWCnlF42FMJ8gNGP6vn+U1voIItoOFlMhxMWu6x7fTNcOz4UJNAMBFoQ13IVyaxBiSsUUpg+/NG/4T8EVZItBIwJLKWpfzfhBM+FGpObm5DIFLxc+oAIC+QTh0LwltOi4kQfTK1x9JDlTuogCTR+c/qfhWp/el3ag+Mc3HiUIjRXQTEt+7sPkfnqz8M9lj/6Plpz71/DfoZi7cP/Q5RN1DBd8PmNdcyZ30QrXHLmcIFzxj8cQOYKG3l4SikrTVrz9S+E/cwlCGw0skotOumVYeGLemP/w99KyofDfcBGFyE29n6CFx2RKmtkWv3wxhKlF/nKCsFSO2YLQrA1CtPeXD4VzMVbNCradT2UCw9buRlgHgd9KJIM/n5BSbqmUujBttTsx2p5rpZRHhp/PKKkMXC+jvwuWnSjDQggxutqyZcumTp8+PXSLSCQSlwohviSE+EIQBHdGgvD9WCz24VQqBd9u7TjO2vF4/O3I5XSloaGhGcYltLe3d0YQBCn8XUgQKqXORxyl67rbwmVVaw030yX42pRSwmLKjQkwAYsAC8IaXg7VEoRmisUUps8uSp8t5CpxPa22KGyEIATLSi23NbxkuOsWJ5BPEC57/HVa8gPkeaDQgjb5m3sMr7Tvby9S788fDP/u2msj6j52x1GC0EZixJ15DXGD6neZeoVoiJMzzX4d7pZ4AGS7jBpxpAdSNP8gJPPLtJm3HE2izSkoCGGxNPF5iMebeu5+o5LmIM4SIS2vAAAgAElEQVRv2eNv0NA7S0OBGnyQpGX/GUnuZ8YvRRCWytEWhIYt1ojahhDiaBDccL/lxgTKJdBo6yDmHSWOgVUN/z7B87yfJ5PJWUEQhC4IQRDsgOye+He2IEwkErcJIfYVQpyZjuf7s9Z69+zC9EUIQgQDT4fgS9c0vFtrjaQ6yFj6Ttpl8ztR0peToAshyLKzjJokMOmsom9JKVdHUprI5RUByqcR0QrpDKpnaK3hljqrkCBMJBLfT5e+wLhPaK1/QERbCCG+LYR41XXd9crdaz6PCYxXAiwIa7izlQiPsTKMluvOWYkYtDFVI/6uUS6jWIexErLbaA0v/gnadT5BiOQmcLdEi39iNnlHj9QjHHjiLfrgbJQBI+qYsxpNPevjYwrCGZceEsYEokFIQlAWajN+fWjoFmoEIQTctAsPCE+D2+n8Ay4f7qIYQWhb2HAi5hRbeeShO+oKLj5lpIZgrvmVIwhL5WgLQriFwj0Uzf5+ZUFY6Orh9wsRaESpiVxz8n0/obVG3b8uK5ELMndSlmslnsyskE4w04X3EonEzkII+KQ7KFchhEDGT2QutV04ryGiI/LFEEYJW74bzSs8z/f9M7XWeM0UEH03CIJdUE/QEoS3e563H87zff9mrTV81q+SUh6llEKmU2RPNZlNl2it9/c87wHf9x/WWu+QtS5YJRFDGFo+E4nErRC61vkL07UKd84VA1loj/l9JjDeCbAgrOEO10oQZk/ZCETzOkpIZMf95ROD5jhkHQ1vSGevEt4s5So7YY9rbubKxddIQYg5V7I35a6Zzxv/BPIJwv5/vEZLf3xvCKBrt/Wp+4SRjPT9j7xKyOhpv2cnlcmm1rXnhtR9/E7hy4nfPErJO0aSphhX0uxz4LaJbJ5GENpukqUKwqH/LaJFX//D8BCTT92DOrdbe2RITbTg/0ayrUIAd+62fphQfvE3bh0+rhxBWCrHUYLwmO0pvg8y07MgHP+fxPqt0P5tbZS7aDVWC5fKZDI5Ox6PP2eKwpfaL1w6Y7HYavF4/GnUQzTn9/b2bjA0NPTutGnTMoHNJbalS5eu6zjOUtQfLPHUzPdkIrGR1np+dtH6cvric5jAeCXAgrCGO1up6KikML0t2PKJwWJcQMcSkrAUltsa7WIzoa2EeF7Mn/xyL90xz8sbQ/jaQlp0YibrJtw+Z1x5eOiWidb7sweo7/6Xwn+jKDuKs2cLwmnn7UeLT71teOypZ36cOrZYLbQOGnfT0Op3wf5hXGDYUgENPPsuIXkMmp1ltFxBCDdQrMNkSs22dobDvtcbupuatSJeEtebHdeI93IJwvi+m5J3VCbBS84YwhI5siCsyWXOnVoEGv1bxpvBBJgAE6gGAb4trAbFPH1UWoew3ML02UIvV6r4Ytw+C41fjKDMh7cZfkS5BEUNL/4J2nXeLKOBpsUn3xqWY0CbtPUaYXmHwZfnh+LPtBmXHUbIKGoLQvegOSQP34bUNY+Rf8tTw0Jr+sUHE6U0LfzS9cMZM1FTD/0i4UvfX18Irf3dX9uFuj76oaoIwkVfuWk4IykmAtdX0REbnr9wJ1HHJqvQgiOuHn4trGE43aXE1Y+Nqjm44q1Hhwlw+h96mZZemMmgiuyr3he2o9hK3WHimeXKTpTIkQXhBP0g1nHZjYqFr+MSeSgmwAQmAAEWhDXc5EoFIaZWTtyfLdRynV+MkCskBg22cl1Hm0QQcgmKGl7/E7HrscpODL7w/igrXzYfFHRHYffwc3/jE6SuzySLkYdtTe7BW5BeNkSLvnbzsHUOJRS6v7oz2S6nuZibEg+VWggh/BYenckSmq9B0M245BBa8r27aNncTDmNfG2F3x5BztT4cllOwzUfuS117rJezrITpXBkQTgRP4X1W3Mz/I7Vb7U8EhNgAuOZAAvCGu5uNd0SSxGGtkjLtg5WIgZNfKGNrBhLYy7EzfBDyiUoanjxT9CuRwnCCz5N7evNHEUCJR6QXAZZLk0LrWJHbEOTrDg8/+YnSF0XCcLDtyb3oC3CwweenkcfnJHJjok29XufoI7NVqXBVxdQ4vJ/jrLAwTUVAjO+z8ahJQ4ZPpecc3d4Hsaacmom02l2DKGx3I0qO3HxwSRQF/CLSBqYvxlBqPsHqfeXfw9rHJrWtfdGNPj8+8N1C1HAHq6raHayGPwNQdi163rLlc4wfRXLUV39GPm3ZqyqpqRHyLHnXfrgOyjblombrsT9fYJe6rxsFNnb99eGw649PT2ZVMHcmEA2Adxph6l9uDGB5iXAgrCGe1OpIMSPTba1D9Mdq/agfXOTy8pXyKKXzzJo5pEd11juzVSz/JBWGudZw8uHux7PBFIBpeYnyJkSD10jq9bQ7wIVZiF1usNEew1tEJsB1jndJTHJJBrMM6WICbXFKDbDJRJF/DzVimNDqfHgrUCgGR5qtgInniMTYAKtQaCIX9zWWEizzrLcOLVsYZarnmAucTiWu2gh8VZIDGK8ckRmrr1plriLSkV7s153PC8mwASYABOoHYFmKTVRuxVyz0yACUwkAiwIa7zb5VqgihFnZup2mQj3kEz5CLRsN9Ox3EVLGS/bDbWQ1TEbcbM9WS13j2p86XD3TIAJMAEm0IQExkupiSZEy1NiAkygQQRYENYYfLkWqEJJXSDu0HLVHDRLynbvzCcISxGD6Du731LjCK3zz+7p6TmrxltQsHuT/KeQBbVgR3wAE2ACTIAJjHsCzfZQc9wD5wUyASZQcwIsCGuOOCyCHoYTlyqccpWLyDddU5zethAWI9xKFYMYP3te5a6rWYr42sllSl1LHS4fHoIJMAEmwASaiECzhDw0ERKeChNgAi1OgAVhHTawXJfEcgrT21bAQhbCcsRgLkFYistosz5ZNXtUTBbWOlwyPAQTYAJMgAk0IYFm/Q1rQlQ8JSbABFqIAAvCOmxWrdxGc03ddnvMjiEslIEU/RUSRLnKX4wTQbgLEaEuIZWynjpcPjwEE2ACTIAJNAkBTibTJBvB02ACTKCqBFgQVhVn/s7KdRstpf4gRi8k+iB2yrUMov9SEtVk02j2QPxyLbl1uoR4GCbABJgAE2ggAes37MGenp5dGzgVHpoJMAEmUFUCLAirinNMQYjkKWeWm7ikFGFoW7hyuY3mqmNYyDKIleUSksWcZ6g0u6tNuZbcOl1CPAwTYAJMgAk0kECz/4Y1EA0PzQSYQIsTYEFYxw0s10poCyr8e6zC9HjfToxSjJAsVtTlimks1r2y2a2DhnGle1THy6muQyErEn9Z1BU5D8YEmEATEbAfiDZLQrQmwsNTYQJMoMUJZN3j4c8wISa3GhCopgUKAiufOMy2Qo6VrbRYMZhLWBZ7LubZKnEXxm20XEtuDS4b7pIJMAEmwAQaTICtgw3eAB6eCUxIAvXTZfzQv84XWC3i1OzC9FjOwDPvhFZC0/LFDBYjenCuf8Pc0F3UbsWca45vFesg5muXoCjW+lnnS4iHYwJMwCbA5mu+HupAgEtN1AEyD8EEmEDDCLAgrDP6aloJS5n6WK6jsPTZBe6NwISwzBaCZsxSxFKrWAfN2moh2kvZKz6WCTABJsAEmocAWwebZy94JkyACdSGAAvC2nAds9dGuSUWE09YCAcsg+6hW4bZTItprfhD2ijRXgxPPoYJMAEmwATqS6DVHmrWlw6PxgSYwHggwIKwQbtokpeUEodXjalWIgpLcRPFXFvJVTSbLVsJq3G1cR9MgAkwgdYm0Mq/Y61NnmfPBJhAPQmwIKwnbWssO1at3qIwW6wVQlCqVTBH/7v29PQ8WGicZnqfrYTNtBs8FybABJhAYwi0opdLY0jxqEyACbQyARaEDdy92bNnh7UJMQW7VEQ9p2SyldrxgrY7aCnuoWbeWUlszu7p6cE6W65xCYqW2zKeMBNgAkygqgQ4mUxVcXJnTIAJNCkBFoQN3phmEIXVRDBexCCYNCrWs5r7wX0xASbABJhAeQTYOlgeNz6LCTCB1iPAgrAJ9swID0ylUZbCamAYT2IwEoS7ENED+HcpWVWrwZL7YAJMgAkwgcYSsJLJtFzYQ2PJ8ehMgAm0GgEWhE2yY7alsBExhZViyEpW82BPT8+ulfbZDOdzcplm2AWeAxNgAkygvgTYOlhf3jwaE2ACjSXAgrCx/EeN3qqiMEsM1i9mEFcvilLXsHFymRrC5a6ZABNgAk1K4IPv3Gnq8NbvN61JWfC0mAATGP8EWBA22R63mii0fjRBclz+cHJymSb7kPB0mAATYAI1JDAuSk3U4YFpDbeAu2YCTKDOBFgQ1hl4McPZJSlwfDO6kCJe0L9hrnmCimmO2xgLI9JLrcNYzF7zMUyACTABJtBcBNhdtLn2g2fDBJhA7QmwIKw947JHsK2FzSIMcwjBcRMvmG+jbIHeykl/yr4Qx/2J8Duu71dh/Ucc95vIC2QCVSPApSaqhpI7YgJMoEUI1PcuqEWgNNM0c4lCzM89ZMuC06zmTWcuIRi5iJZVcL7VvFm4BEXBy40PYAJMgAm0PAG2Drb8FvICmAATKIMAC8IyoDXilEqEYbnzhQhEy3INxUvj1j10LFYmlrAZXXjL3WM+jwkwASbABDIExkXsIG8mE2ACTKAMAiwIy4DWyFOyhSHmgti2jk1WKcpqWGjuY4hAnDouk8YUYmLet11HWRQWS42PYwJMgAk0P4GGZctufjQ8QybABCYAARaELbrJkTDE7M/MXgLEit3aZ68c/gnhiGZEH/492PNu5rVnMtZA+72oD7iEQgiW5RraonjzTtsW5EaIg69hO97Wy+thAkyACYxXAnkegE7oB5/jda95XUyACYxNgAXhOLhCxhKHZS6PReAY4CJLIYT4LmXy5dOYABNgAkyguQjw715z7QfPhgkwgToSYEFYR9j1GCoSK9lCZedobPO6be17yLIEElsCi98lS4iDL4vD4tHxkUyACTCBZiBgfgvZC6YZdoPnwASYQMMIsCBsGHoemAkwASbABJgAE2ACTIAJMAEm0FgCLAhz8m+1ogiNvYh4dCbABJgAE2ACTIAJMAEmwARakwALwtbcN541E2ACTIAJMAEmwASYABNgAkygYgJjCEK2klVMlztgAkyACTABJsAEmAATYAJMgAk0MQG2EDbx5vDUmAATYAJMgAkwASbABJgAE2ACtSTAgrCWdLlvJsAEmAATYAJMgAlMRALsaDYRd53X3KIEyhOE/CFv0e3maTMBJsAEmAATYAJMgAkwASbABEYIlCcImSATYAJMgAkwASbABJgAE2ACTIAJtDwBFoQtv4W8ACbABJgAE2ACTIAJMAEmwASYQHkEWBCWx43PYgJMgAkwASbABJgAE2ACTIAJtDwBFoQtv4W8ACbABJgAE2ACTIAJMAEmwASYQHkEWBCWx43PYgJMgAkwASbABJgAE2ACTIAJtDwBFoQtv4W8ACbABJgAE2ACTIAJMAEmwASYQHkEWBCWx43PYgJMgAkwASbABJgAE2ACTIAJtDwBFoQtv4W8ACbABJgAE2ACTIAJMAEmwASYQHkEWBCWx43PYgJMgAkwASZQEgH84OqSzuCDmQATYAJMgAnUngALwtoz5hGYABNgAkyACTABJsAEmAATYAJNSYAFYVNuC0+KCTABJsAEmAATYAJMgAkUJsDeB4UZ8RFjE2BByFcIE2ACTIAJMAEmwARalACLgRbdOJ42E2giAiwIm2gzeCpMgAkwASbABJgAE2ACTIAJMIF6EmBBWE/aPBYTYAJMYIIQYKvFBNloXiYTYAJMgAm0PAEWhC2/hbwAJsAEmAATYAJMgAkwASbABJhAeQRYEJbHjc8qk8Ds2bN3iU41/9/Z6sq89mD02kNZwzzY09Nj3itzBs1zWsQCazYMzPqbZ5I8EybABJhAcxLAb0H4G9HT03NWc06RZ9USBNidoSW2iSdZWwLLC0L+YNSW+ATsPRI+ZxJRtQTP2a1+EzB79mzcwIAJNybABJgAE6iMwNksCisDyGczASYwsQmwhXBi73/NVp9PBK4xOxaOufrGmf+vMdsZnoN57c1nU+Frb/QEo+b38I0DuebbUuIwmwt47Hhw+ygmNdsU7pgJMAEmME4I4HcCvxFZvwssDMfJ/rbGMtiC0hr7xLMshgALwmIo8TFFE8hl+aq26Hn4xkHK3AxkhKPVmv5mYPbs2TojhDNC0IjgogEXOpB/nwoRGifv4zLir+9xspm8jAoJ4DfBEoa7jqfQggrR8OlMgAkwgaII8B1FUZj4oEIEIsvXA+a4aovAfOPjRgCtFZ4SG7G848Edw1bBQlz5fSbABJgAEyhMwBKFiDXftfAZfAQTYAJMgAkYAiwI+VqoiEA+F8iqW74KzLLZhaEtmL99q1sRcz6ZCTABJsAElifwuzP6jecIWwkjH4LQJYUbE2ACTKAAARaE4/USqYPr4OzZs2ERDBPF1MwFssT9yXIdwtlN4UbK1sESN5IPZwJMgAmUSAChBNed3o+z2EpYIjs+nAkwgYlNgAXhxN7/slZvW7uaRQhmLySHMGzoE2MWhGVdanwSE2ACTKBoAiwIi0bFBzIBJsAERhFgQcgXREkE7KQxEIOf/V5nSefX++AsYdgwa6FJJsPuovW+Ang8JsAEJhKBH+7vh8vt6enh+5uJtPG8VibABCoiwF+YFeGbWCfbYrCVEqM0gyg07rWHn9NZ/cyiE+sy5NUyASbABPISYEHIFwcTYAJMoHQCLAhLZzYhz7DjBVtJDJrNarQoZEE4IT82vGgmwATqSIBdRusIm4diAkxgXBFgQTiutrM2i7Etg61s4bJuFgCqrkkHTNxlK7jZ1uYq4l6ZABNgArUlYD34a1h4QG1XyL0zASbABGpDgAVhbbiOm17Hixg0G5IlCut208BlJ8bNR4IXwgSYQJMSaCVBmEgkzhFC+FLKc5sUJ0+LCTCBCUSABeEE2uxSl1pIDEJcvdETlNrtmMfveHB7yf1hHqXUPWygKAzLdLSylbXkzeETmAATYAJ1IGB/r1c7oYxSCj90QghxrOu6l2Yvx/f9fbTWf8LrUsqi7qt8309orZNSyhWz+0skErsJIe5ND3i267rfqwO+cTGE1ho3EDEhRFh7hBsTYALFEyjqi6v47vjI8ULAtmjlihm0CgBXfcnFxihmCTsqJYNnVkxhXUpSsNto1S8V7pAJMAEmEBKopXVQKTVARBAbb0gp18xGrpSaS0RbVFEQbiSE+JPW+hTP827hLS6OgFLqX0S0bbGivLhe+SgmMDEIsCCcGPtc8ipNmYR6i0Ez0UKiMJcgLdXyZovCaj9RzgfccC11riVvIJ/ABJgAE5hABGqZXVQpBYvTJODUWm/sed5zBm1vb+90x3EWwIKIt6WUjnlPa92plNrOcZyueDz+N9tylW0hnD9/vuzq6lpdaz3f87yEUmqdvr6+N2fOnKkSicQKQRBMnjx58iuJRGI2EW2otX6gu7t7ob3FS5YsmRqLxXZvb2+fO2nSpHnoQ0r5Wi6LWSKR2GhwcHBeW1tbuxBi17a2tn93dXW9nn3J+L6/ZRAEayPu3vM8rJMWL148ub29fVUp5etCiGTEpV0ptZ7W+n0hhGPmG52/ZiqVun/KlCkfaK1jvu/vKoToiMfj92fPDVY+3/c/GgRBwvO8R4UQoRtSIQa9vb0bOI5zFxGthT1KpVLvYrwJ9BHgpTKBigiwIKwI3/g8eawi6jkKvtcEQr7kK9lWQXvwckSWEZaC6MFnenp2rclirE5NtlFOLlNr0tw/E2ACE4VALa2DYBgJQgifqVrrOzzP29ew9X3/4rQIOhY6Ce8bQej7/pe11r8gorboWE1E3zYxg7YgjETlK0Q0RWt9iOM4/Vrr29Li6Aee533X9/1HtNbbE9E8IlrV9Ke1PshYEJVSFxLRidaeJ4jII6LPSSmvtq8F3/dX1lq/Q0Qo2uha7z3muu52EGFKqc2J6CEi6rbev1dKuWcikfiKEAJruzotCj+H933f/zbmS0SIicRv6bZEtARris6HsLsozelrkbUVLw9orbf0PK8n4oy+LreYLdNaf8zzvIfGYiCl/LPv+31Z1/vvpJSHT5TPAK+TCVRKoEUFYfggrtK18/k5CNhxg7lcMOslCDG1bIFXyE21kFUx34Zb/dbcdZSTy/DHjgkwASZQXQLGOpi20tUkUVgkCCGgOolohuu6XUKIVCRiehFcqLWG1XBrCEKt9SQIFCSNCYLgU1rrAcdx7ob4klLGIgEVxhAmk8l14vH4q0Q0U2v9Fc/zfuX7/r55BOGbRHQMEcFKeIFxYfV9f47W+gkiwlz+T2sdJ6LfRZTHEoQ4BCISc0ds5FpCiO+4rvtDpdTbRLSKEOLLQRA8IoS4nog2I6I9XNeFQIPVdKmUclrE4RnMKwiCGY7j/DkShI8FQXCKEOKjaURnRvN5yHGcU4MgOJSIToC3r5Ryp76+PlgRX4OI1Fof6DgOLH2XmTEsQZiTgVJqUyK6k4hWJ6I5QRC8nW1Bre5V14y98b1xM+5Kq8ypRQVhq+BtvXmO5SqK1RQSZdVcsS0ISxGipQrDeteu4pqE1bxKuC8mwAQmMoF6uP5HgnC+EOLSyAp2kpTyIku4XSqE2I6INokEYVwpdZTjOI+6rov4QlgZr0wLuM8LIbZ2Xfc/kYUQogqWrdUgmEwCmXyCcGhoaJpxg1RKwX0zLqV0lVI3pkXdZ4joY1LKv0bjIcnNPgUshEhqE1oIe3t7IeTmp5/FviKlXF8pdbgQIuG67u1Rf3sS0V+I6OdSyhOMQIN7ppTyZQhEIcRrruuup5R6jIi2cV23zRLOENCO67pI+hK6gUaxmfOllLOUUtcQ0RFa6908z0MCNrx/AxEdgjEcx7kMVtJ8DKLjOYZwIn8Z8NorIsCCsCJ84+vkQtbBVhGEZldKcSFthJWQ3UbH1+eHV8MEmED9CdTaXTQSGhBuS1zXXc33fbiOviOlXEMpBavc5kEQrOA4ziNE9CHjMqqUgoCC1W01ywWSgiDYsbu7+5FIEEpDzBZK2YIwGmeOnSxFKfVGuv+VpJSTlFL/SVvHtsx6/+S0RfL8AoLwSSllmAwnWmcYcyelnJpMJmcFQXBrZBXsMMdorS/1PO9Y3/c/CfdZIrqWiO4noqss6yIsjhtmzQcCdrodY6mUUtB9UsqVlFJPgiXcSK2rCO62sLgeIoQ4FZa/fAxYENb/s8cjji8CLAjH135WtJpC1sFsQQhBU0q5h2Im9/CNI78F2YKuFCthqaKwlinLc627payE7IVSzKXLxzABJtAAArVMJmMJJeMeuaJSColL9tZa7yKEgCXrCSnlVkqpF9NONOtB8ETWtveJCOedQ0QQbN8iot2MILQyl+JHD4LrRinlIRgzn4VwDEG4nGVMKXVK2oL4YyI6UkoJ0TbcrBjCbEHYS0RDcANVSsFFdiUhxK+I6B6t9brpeMCfGkEYCTBYN+Ea+yysd67rSiSZyZXtM20xhavnClLKLourLQj/CwsrhGX2ZRQEwY9jsdgVGIMFYQM+ZDzkhCDAgnBCbHPhRY6VSMY+23YZLcUCV3gGmSMK9V9LUWiNXZM4FJsBl6Ao9org45gAE2ACuQnUwzoYCR9bECJW7enIkgUht7eU8h5bECqlkBzlqnRGzXM8zzsj6gMZQadbghAJXeKwDPq+/xbi9WAJ8zzvxjIE4W+JCLGDB3ieB6sesnIiQ+eHC1gIB2BhxPHJZHJVxN0R0fOu626WThIDoToXYjea/zcQt2gLQt/3/4Axo915RkoJNnD1zCVQCwnC0O0V8YN2qY3+/v61Ozs7XzMuqiwI+duACdSGAAvC2nBtuV6LsQ4WI9gqXXghQWj6zyUMETuIZlsZ8XexrpkNsBKGmZFqIawr3Qc+nwkwASbQ7ASsZDI1TQgWxRAigUpYRD6ydsEVdAncK6PXbAshSiA8n06aAhfMHwohtoXQwXFCiH1c173LzjIaJVR5GdnyHMdZG5k3cyWVySeG+vr61ooSskC4QoBOT1vu4GKJViipDDJ/wjqH7KArCiG+mHaN/U205natNeaPbKVIAIN2bbqUxZHRmuHiCVdPlOMIE+KUKwijNSC5zmC6uzOFEAu01ljDOkNDQzPa29vvLGQhTCQStwkh9o0S2PzZxG82+3XM82MCzUCABWEz7EKD51CsdRDTHEuwQVC90RPGig+3HQ9GLd/iW7GCED1mi0KTFTWXWCxWdNU5lhDuRrsUK1iLp8hHMgEmwATGN4F6WQcjgRPGECLWLfr761EJhZ9IKRGrB5H4AhGtb2LkEokEEs0gI6hxuoeFbA0iOk9KeVokCH2rT5RIgGvn/4QQJyA+T2v9fc/zTk/X5XtYa71DliBEzUDEECLzKSyCxwshfo6Yu2jn4f6JkhFjuYwiHhIunOZecNhtNZFIHCyEwHzMjzgE7oawjkopIQTDppQKH2ymM5N2pGMIIeaGrZM5BOzMHC6jCSnlytF5+wshkFzGlMJAf99JJ745v0gGOwshEM+IuMM/ep63//j+FPDqmED1CLAgrB7Llu2pGoIwnytnqWKnFEFogEOIotnxjNnZUIudRz0zjnIJipb9yPDEmQATaDCBerr4l7vUqAj7xq7rPmuybZbbV6HzUJi9u7v7BRSuR9ZPpdTvhRD7xWKxtbu6uv5nn29iCGGFlFIeoJTaCOcIIZZlj4N+BwcH35k+fToE5qgWFZHHOY+n3WbhnlqVhvk5jtOZPe9iOtdadyaTydnxePw5xDMWcw4fwwSYwMhTIWYxgQkYd9FcdQezseQTbPnKUZRaAqIcQZhr63IVsC/GStgAt9HQSljM3CbwJcpLZwJMoNoEWjhZVD1KTVQbdy37g2iLXFT/jdIYyMaptT4exrp0eYzJ2WPbgtDzvE+XM7d0nOBeWuszhBAfgfA05SnK6YvPYQJMoPEE2ELY+D1o6AyMdfUVQvUAACAASURBVLBYC9pYgg0/0nZbY7ZTchbSaglCzCNbpBYruursNroLET1QLP+GXizVHLyFb0ariYH7YgJMoHQC9XQXLX12jTnD9/2LtdZHWyUu3ovFYtvlsrJVSRCGrqKoTSil3Ksxq+ZRmQATqBYBFoTVItmi/ZTiLpotsooVWKWgqaYgzHZjLdZaWU+3UbBpqRIUpWwmH8sEmAATqAGBepSaqMG0a96l1tpJJBLrep73phACcY95W29v73TP81QuN9FiJppIJHZNC9B53d3dLxVzPB/DBJhAcxNgQdjc+1Pz2ZXiLloPQWhljas4+2a222ixVrgGuI2ehaxqxc6v5hcFD8AEmpTAgrcCGoqinFZY3aG24XLZTTphnlbVCbB1sOpIuUMmwASYwHBmKUYxAQmUk9TEtrpVW8DkyxpaydbYArNYC2GW8K1pOnOMZe9DLayulfDLPvet51P0/D/w31DoDrz6bIfi3YJmruHQ1JUccmLVHC1/X0ve13THz5aR+iCgPb8widbdqrSBX3syRX/9zQB1SaJPnTCJpq5sEvPVZv7/um2QHrt9kFbbKEb7nTSpbpxyrWbRvCDMBrzgjYBmrCZozU1jNH3V8taPvt59JaD3/xdQ+ySiFddyaNX1YySn1eZZ4xUn9tH8NzKZjL94UVd43U2UFqQovObfeCZFW+3TTtsfWFoG5/HCyfpOr3m92PHCjNfBBJgAEyhEoDa/2oVG5febgkCp7qKYdK5kLab+XyWLypSsyGQLRStFvI01rhGZpYrXesYRRqIwTC5TrXVXshdjnXvflQP0+J9Gx4qa4zu6BO11TAfN3rmtVsMP9/vYHYP0t9+ibjLRrA1idOQPw8zrRbebftBPr8zNXG+1Zq4Doh8diBrUmXbY2Z205ialCdiiF1bgwBcfS9Et5y3vSfaZb3eWJKpTQ0R/v2GAHv1j7mvhE1+ZRJvuVv3roBkEYc/fhygYIhIO0cY7tlVd3C98K6B3Xs6IXgjeldbJiF689ttT+4Z3+JQb3FCET6RmPTR8sKenZ9dGrR2ZLH3fv0QIcbvrurc1ah7jZVzmOV52svA6OH1AYUaNOmLiCEK+Cpe7xsoRhOgkX4mJal7ExWQ8reZ42X3V2y2pHGttwfXX4JofSxCa+UAQwupWy7bgzYCuP7Of/KWaPn7cJNp899LEB27q7/jpMnInC/rMdztp5eimu1Zzvvc3A/TvPw+GN/gQrxDP9W7Lkpp+cvhIFnasHfzQMJ+TrokXLW5u/lE/vfzvkQc4uday82EdVbdiNYMgtL0OTro2Tp1udffy338apHuvzDzs+Min22nXIzJ+salBomu+0xdaZDfbvY32Oa62n7F6X5/FjFfv7+V8c7KSstzued5+xcx9rGOUUk8T0VpSStQNHLMlEondhBD3CiHOdl33e4WOb4X3q82zFdbMc2QCzUagur9kzbY6ns+YBMoVhOi0VqKwkCXP1ByEy1uxbceDS3etasSNRyskl7EF4Zw922jXwzuod6GmFx8bCq8J0+AWudEOpYm0YvfTHKc1ESxVbaVv7/ANNlxcYempRxtcRg216PzvqRTd8L2MddBYRR+5aZD+/vuM+PjCT7pCl89C7dUnUnTj90esjBAmG+3YRkMDmv7xh0F6/M6R6+Arl8Wpe0b1fmYmsiA0+9Lo66jQ9VGr9+sd2z3WOqotYJRSVwoh1nddd4dC/BKJxEZCiD9prU/xPO+WQse3wvvV5tkKa+Y5MoFmI1C9X+pmWxnPpyCBSgSh6Tzj6lm8OMs3KZSoQLOLy2cfW4kILTU2r96ZRrFWYyUsJIoLbmwND7AF4Uf2bw8FoWkQAvddlREXsDh9/bfxEbGmiZ6+fyiMPXz7xYDaO4hW/ZBD236qPYyrsxtEHuLt/vd0xo142ioO4frYcu/24Zix//03RX+/PjPWOlu00Q6fiVShJnrhX0P0xD1D9M4rmety1ocy5U+23bedYpFGRUzfi/8aCt/f7oAOWm/rkTlAOD157xDNeylFy5JEq67v0LpbxsLxTYzk2y+khl1WYRFtnyToqfuGCK9jvnP2aKOtPzFy/B9/sox6F2Tm8+mTO0OR9KdfLqNFb2de+8RXJ4ViCuvFmKtt6NBHP9dBM2aNCDS4nv7r9kF64dGh0EoEV1lYRiHQehcGNCku6JAz8rvOGqsoxtv7y5MIgv4fNw/SQzdkOB5/aZwmzyz8k3DVNzNWqgy7dtrls6Mzu9iZgrf5RDvtflRHGGN4z68z2WDW27qNEA/35L0Z4fjVy+Ph//0lGUEJhu+9FoTcV9s4FlrJumRmXrYgPOhbnfTcI0P0+n9TNDhAtM6cGO12ZMdya3jruRT95y5cdxm2q6zrhAJ284+2jarE+96rQegCi+MSi3Q4/irrxcI1ulME9Tw0RHPvHqR5L418301ZUdDK68To0ydPor9eMUDvvpKxmu50WAc9essgvf5MKrSW4xpB3Ou/bhugN58LCG6huE7wGdhu//bhGM5rvt0frt9umMdOh3TQims7dPMPM0K8yxP0me+M7DUejjzxl0F6+fHU8Odr1gYObbZ7e3jtmob5Yx1osOBifi89ngrns9LaDu10aMeo40dNpMF/NOIhnb1kFGFPJpN7CCEWaq3f0lq/o7UeZSFcsmTJ1FgstpvW+plc2TcXL148ub29/aPt7e1PdXZ2vmb6TyaTqwohOuwSEeirvb19JyHE/Hg8/qg5Vms9SSm1Tl9f35szZ85U5nWIqiAIdorFYv+Ix+NvW8fHlVJrovB8MpmcgWOCIJg7efLkV7LXp5TawXGceDwev69Q9tH+/v61BwcHt9ZaP2mvVWtd9HiFeDb4ksszfA1cb5pzoTyrCUag8K//BAMykZbbChYpsx+ViEH0UarIaoQgxDxN1tdSBWyGE9z/avuRHksQwnLxs6OSNNCXcUM0ST9ws3rbT5bR8//M3IhmN9vlE+fecHb/qJtu+/jDv99Jq28UC4XAbRdmBAbiuPY9MeM+B2sXrF65GgTUIWdMoo5OEYqTJ/6SmY89vm0xy+4D1xBuwhG3BXdJuE2O1YzowjEXH5sMBQHal37RFQoAW9zk6sebLujYX8WHM2neev6yUAzmaxDhJ/8uI65yNSSA+fVXMzFo6Huzj7YNs1p7c7ApHIcJIXfuQSPxkGYt9njPPjxEt1+U2RsT35kr9hjvmzkjUcwNZ2VcgLPbjNUcOvTMTvKmiYLMILKO+VnXsHC33S+z+7Vdm23rafZxcK397Pc66eX/pOiBazPi2W5gCVGbXffUHPPxYyeFcYBXnjwS/2efDwaHnD4pZGW7o9rHfOrrk2iNjWP0i6MzLr/2XuMBCoTia0/lduG13U4Rd4v427Ha0T/tImRwbbbWyFITvu/vq7X+g1XjDx8C1xaESqkrYGi3uM1Lvz/H87wFKAfh+/7tePZjvf8+EW0mpXxfKfUmQkallOGHMJFInCWEOMP6Qh8UQhzguu6d0VxuSwvUH3ie912IzI6OjoeJaBOr75eDINiuu7t7oVLqVCI6FykA8MzVHKO1vtTzvGOj8eCGehcR2X7IF0gpT8m+DqJ4vyeIaEPrvXeCINis2PGK4dls1x/PhwmMdwK1vXsc7/RafH2tKghxYz6WJdHelodvHLmBK0VkNVAQhsllShWw9boUxxKEmINtPdrvG5Noo+3bQosEsiOahhvUZELT0/dlxA1ubo+7pCvMVgoL0UOR5c+IlndeCoZvdhGDB6GZSxD2+5ouPGIkRg5Wm864oLt/vWxYjB3wzUn0oQ+35RSEsBBdecrITTsEU3yyoLl3Dw2LXFjDYDHKFoRIErN6WjBiXrC2oJm54t/FCEJwgaj+z10jN+ywgsF6CYsoBJNpcMedtrKgR24eObaQIMS5ENGYo91gGTr49M4wnrJQ++C9gC45boTRqTe5w1ZXcy6sh7gOzN5CpOYThLCwHXdJPIwHhbUKDRaxtee0EYTl4ncyLGFJhsU0W0TDSg2r3xP3jHA45PROWntOjD54N6BLjs/az25Bc+8Z2c9Dz+qktTaNhWINVkk07PGsDR16/I7B0HqGtvU+7aGAhtX5rotHrmXE98Gqius8lyDEnnzs6A767/1Dw0mz8ABjw+3a6On7B4fjMI04xWfiwd8NjBLGeGCxxsYosSFyCkJb9GK8Lfdqoz6l6al7R/YZcasQnNmCEGuCtfqxO0aYGNaFroV6vt9I66DWOub7PixxMIWfrLV+Ou3eeT0RrWgEoe/7x2itf01Ecx3HOU5rfbjW+qtEdJ+Uco9I4J0phPinEOKkVCq1jxDi9LTDwNNSys1tQRgJLly4i4Mg+JTjOGuk4wuvRl1B13W9bEGolLqfiJBg53dCiIuCIPiyEOKLRPSElHJLSxBiyz4vhIBAhatph5QyVP5KqfeIaAWt9WGoLeg4Dt6f6TjOrHg8Ps/ea6XUDUR0iNb6iiAIzmtraztJaw1heaWU8guFxiuGZz2vLR6LCTCBDIHCdwBMatwSKLUGYSNBlFuwvtzzsNZGPJGuSXKZKm5cIUFoW7HgToob9ku/0jd8Y7//KZNog49k/DZNohX822SlvOCzIxZGE9MGq9QVJ/UNC60TroqHqfezLYSwMkEwoMGq9MULM5YilJh46fHMzTFKLGD8XBZCiFbjTmdbVSBUIFjQcMP9jevi9Mp/RlsIv/UHN4xFtK1wON4kRyokCOHq+OH9Mm6vsK5BDKHt+cUO2urj7aNe2+JjbbTXlzIP8uFeCDdDM7exLIQ45v5rB+hfWZlBTbZKtVjTwDJNsTZBk1fI/dPw5nMpuu67Y4+3dIGmX31pRJifcr1L776aoutOHxG0sLjhoQcaEgRd/vXMvkGUHndpPLTCYj4//2KmH+wnLH+2IAQDsECDSy7ckdE+dkwHbblX+6jrCwzBEg2uwrf8OCPqjBCzLXNfuyIels0wLp44zpvuDCfIyZdUJlsQ4jqBGy8aHkxB7KPBRbRTZvrHdZG9d/mSysCNNZeF8GefTw4LyIO/20nrbJHhantVfGjbGB1waudygtBcn3B3NkLXHJuZbXO0RpaaSCQSBwshfm8ED4j09vZu4DjO80YQKqVex7MM13WlcbVUSsFtcwasfpHgmuq6blfa8hc+eVBK/QVWNinl6rYgNPF06YTEL7muuxmEoFLq/4QQ27que5wtCKWUZ/i+jwv/dSnl2ma3lFL/hcVw2bJlkydNmgSxBgvh1VLKz0Vj34mv3VgstlZXV9frvu8n4BIbi8U2wN/JZHLbVCp1VBAE52e7liKpjeM4iHe81BoPT05elFJuZAnCnOMNDQ1tW4hnc1x1PAsmMLEIsCCcWPs9arUsCMfe/EYIwvAmdfbs0EpYikWzXpdxIUFo3xTjBnzOHu103sEjLoY7HIQ4vszXznuvpQhlEMKb5APaw5g73NyiQRhA+Jn27qsBJRZm3AlX39gJLYbZghBZGC/63IighIVxw4+0hdYixCnaKfpzCcK8CUt0xhXWuDPCPRDWJNtl1NxYDw0S/dhar7GgFRKEdkIX+0YesWOIj7QtWP93bldoRUND3B3mhlbIQphLDOI8uCPO3qlteAxjtct1TdnWP7yfKxvwwrcDuuxro62I814cLQjt8+xSGNkZahEfiX2F2IalNN8eQXCZpEaGmX0twjqGGEM0WM9M4puV13Xo8z/uIrsMSfgZ3LktFFZrbRYLLdd2K0YQ2u7C5lxkeYVlefG7ASUWa/I/0MOlT2yWpQjCvoSmi/5vZP8hQkU0XYxzaWQhNXtqWwjtBwv2Qw98Vo74fmH34Xp959ifh56enrrfsyilfkREp6XjAg/wPO/W8HPn+ytHMYSPep63nVIKIg9zs32K8YRHSCmFUgqvv22LNptftsuoZfXTQohXiei6eDx+DsSkLQiFEHBjfdIWe+hXKXUhEZ2IcGG4pUaC8LNSSlg28f61RAQr5sae5z2XFpXfTVvuzonmtJCI7tRanwp31+x9hvtrMpn8vdZ6H4SzWoaFl6SUH7IEYc7x0us5ohDPel1bE2ocDn2cUNtdzmLr/uVaziT5nNoQaGbhkb3ici195Z7XKJfR8GZ09uxd0jkfHmhGt9FCgtC28MEdb8pMMcrFMN+VjJp1cMv7zTcyQsJ2t8x1Tr4YQuzbHy9YtlwsGsTS3l/uCOMN0XIJQvtG/4Qr42EiEdNsV1i43/UlaFgQwuXyqAtwX5TJenreZ0YEcDmC0I5jNOLGtgLZyV+KFYRIvHJ95HIKsb3FXu2h1co01EY0VtCxrjuIqYuOHLH+5Sq7gMQ4+NyhGSFiu4waa58ZGy6ySMiCVshdMZ8gLMQs33VnHjzAGnnTD/uH3Ubt42Hlxj6YhETFCELbAoq+4Pb829NyxxCasYxILkUQ2lZxxE9++ZeZ6xAN8bj4PJr2rVtcuv/qkRhCuOCCN5q9Z00sCBtSiD6RSHwP7p1a6wNNVk8jCIUQj7iuu6NSCk+28JTmqqxrLZBSflEpBfvwvGIFIfpIJBK7Ru6nHyWiqUT0PCxwtiAkouuFEM9CMEopIbTC5vv+zyOX1T3S4m7LQoIQ5yBJTCqVgksshB5iDfuDIJjV3d29yF6T7/s3aa0PgpOH1vpyrfV7juP8HRbNYgQh3E0L8cz3eeXXmQATqB0BFoS1Y9v0PbMgzL9FjRSEmFWz7s1YgtC+OcUaYEmLtRP99HMjN6XbfHIk86ZNH6IKVpxfHpM51iTqyLdD+QQhjh/sp7AMBgrP4z+T5AbvHfGDTlptw1hOQWhb8Y79VRdNXXkksUb2ewvf1sOC0Haxq5UgvOyEEZdZk6wnvPEr0kKIZCimiLwRAigsb8cgGtbZ2WOz98AW/SbG0T7GttbBqodjbEGYLTjtvUTmU1jX8rVSBKHNDJZA46Jq9z2pS9D2B2VEEZIfIbkMrhm4n9oJbkzsKI4rRhCa5EeZjkdbmPHgY5Nd2sIUUFdZMavlCELbrTbbqg4r5C8il1vznm0hNO7ImGIzC8JGeWqY68T3/X201n8iot9LKQ8NP3e+v1VaOP3bchlFnN1KQ0NDM6ZMmfIBjunt7UVGzxT+jtxHV3RdtzMthkK3iMhKt7GUcgvbQphIJA4QQpyltT7B8zzEB+LY0AV0aGhoGjKPaq2Hk8pE1sl3pJSzzJyVUi8hoa/ruq7v+4hlhMtoToud1nq+4zgPwI3Tdd0fROOdj3hJIvq6lPJn9mdGKQWroZRShk8fkPXU9308ASpKEDqOs1Yhnk1/88QTZALjkAALwnG4qcUuqVlFR675l2vpK/e8RiYxwPqb1UqYTxDCHe6qb/YPxwoaIYC12Natz3y7k9bdaiQNPkQkXPLkVEEoq/CjA0esayaWC338+eJl9NZzmaQfSBryzsvLu4ziZh7JV9A2+HAbrbK+E1rs7rls2XACGxMbmMtCeMt5/cMurHsd0xFa0dBs1zv8fdrNbljqwbiM1kMQ2nMzsZmYy4K3Arr8hNEJXHJ9fmwhYAQfBNAdPx2JVzTnIVYPVrx8zWYHoXX497qoPfIwRE1KCDEjwvc5flKYjGUsQfjOywH99tTMGkIr1y+6Quc7xI7CVRZuuF2SCK6ypQjCO3+xjJ55IBNXiPhMxGmaluzVYf1MPIhA8hmUGUFDHcbQiqyJ/vvAUFgaBM22AtuC8MSr42EJCLRR3zVRNly8bscKhsLsyni4PlvM4bhcgtC2mOaMIdREPzxg5DNjPyxAIhszf7i+IlNrqwnCRn8Pm+tFKbUUz6mEEL/SWr+RdpM8m4jiVlKZL2utLyEiZA49DQlakCVUa70UQk0pdULaYP5TiCY8U9Ba7xAlfnlMSvlhWxAqpTZFshl89aR15UlCiEla64vSoq4zLdhQ+uKTtiBMJBK3CiE+nQ4zeJCILsNzr8hV9AEp5W6FXDjhMqqUgqCLCSHODILgZQhIIQRiEveQUt5nfxcopZBhdE5knXxRa308nDrwXEFKuWaR443JM++XD7/BBJhAzQiwIKwZ2ubvuBp1COu1ynKFXbnnNcONSGUlKGqzM7YgxAg7H9oxKhbQjGoXJM8u5bDHUR3hjT+yeqIGHtxDES+JRBu22IDr2jafaCNY40zmUdxQf+3KeGjByY4htAumI8Zu3xPRJ4W1EXFzjGZcMHMJwuzMoUhaEu9GKYvB4YQ2EIkQi/ax9RCEthUN60BtP7DAfhhL1lgxhNnF5Hf/fAdNXckJaz3aWU3R96k3uqFlN1+zrZI4Bvu3ya5tYdKUuXcNDs/HTuwzliCE8IOINBlFN9+jjdbbqi0sU2KS/JjYwlIEoR0Xh3nCOo3yGkh688jNA2GtQcRuIoHOhZEbrCkBseKaMULdxrsvzQhC240SiV1wLtqOB3cQRDFq/eUThBCftpUc2Xe7pwu6/5pMzUXT8KABSZDsepH4nGT2SoTlUnIllbFFHo7f+bBM5lVc90aYm4y/rSYILfG9a09PDwRPQ5rv+1tqrRHb7WECQohXtNbrQph5ngcxBiserHAo02CepizRWu/veR7Og1XxYq31l6z3n3ZddzshRDIShCsYq1skIH8cZTbF6bgQv5wWXL/1fR+C8A6t9fc9z4Mra3vaYgkLJtxDw3s6IQRqEe4eJaTBnNDXYWmXTmQIxVyvgXA0MYTJZHKbIAiQ5GZKBFhrrX/jed7R2cCXLF26blss9hie30TvIeZwMoyFUkrUSCw4XjE8G7LRPCgTmMAEWBBO4M1nQZh/85tEEDZdCYpsQZhNEK6e+504aVSxeVh4rvnWSFr/XNSNZQNWE8QR5qpHh/NMso5cLqMY58Zz+ofT+2ePg5v9oy7opGkrO3nrEP7h3P7hUgPZ50OAffGnXaEQq7cghGiCFc2URsjFcCxBCLGGWnWmtMNYX3uh+PrapDFzUL/0WIr+cF7+Ooy4DmANhsUNbSxBiPfHqgOIdX327M5QeJUiCNEvYhOzBa+9dpPd9oHrBujRW/PX50MJE5SKQLOzwJq+vn2LS787c+TaG+Uymk4leeP3+0Or8ljNxK1mZ6rFObAKY19yCcJ+penyE/uGRWr2GGGNydM7w/1sJUHYDN/B2SwRZ9ff3/+BcQvNtZ9Lly5d13GcpbkSsuD4RCKxUTre79VChd9xbDKZXF0IEbML1ue7hqJyDhu7rvu8EGLsYpN5OolqGq7huu6zxrU133jJZHJVvJddlqKUW6pieJbSHx/LBJhA+QRYEJbPruXPrIZbIn60cbOHuoBrzHaKrg9YKrxyLX3lntcMNyPNWIICVgeTodHsIQQS3DNXXT9GW+3TFloyshsyRf7z1gF64p7RsVmwrKCWm10IW32g6S+XLRt230RfsELteEgHwRqHBusRkseg2ZkpIQofvG4gLDNhCsHjGIyDOLCZa2YEyl8uG6C5Ue0649aI1+G2+q/bB8MadLYohRshYq6MeyDizJCZEg1lLFBOAy07htBYfXJlGbUzh9qufojrQ3wfGiywJsYNbrl3XTIwXF7BrN1Y0QplGcUe3H/NAL3wr6FR4gE1FJHU557LRixKdhmMfJ9V1CSEwHj9mWDYEoVrYb1tYrTbER2hxde0t55L0bVRuQqMhyQ22Q0ZTOHei/+bhmP3PLqDZszK7FteQZiHGc7BwwNYeY0F0lxPuB5s9+Un/zpEc+8eJLgxmwYr586HjVx3eB3XJ/beFucQhEjaYwS3iVU1/Qz0a7rr4oFRNSBhbX77+dTweCgLYa5vzOMvl48k/cFnZJOd24bLcGTHC6IGJ/bi+X+OxMzimC33bg8z+MLyiGZnmkV9RLyPVkiw57sGavm69d3dkGQytVwb980EmAATaDYCTSIIOR9uIy6M0gQhXKSWv1zseJpaZsUsV9iVe16zuCq1UpxnsdcwXOgG+jKJY0zmxlznQpwtmZ+JMTT13IodA8dhHIio7unOmC6Q+fo080ThcZPKv5Txq30sLEEQqVNmOtS7MKDJM50weY4RxnbcZqGx4fYJqyHcJVHSoaKmiXoXoX4hjcrMWm6fEPXh+lZwxrw+Su0f61WLA3KnZtwv8zUkJepdFJA3TYSlPPI1lHzANYL412KvTzwwWLoAfTujyqDkGgNW4aXzA4q1i/CzUtQ1qImWLtTU1l6dvSiVcbWOb3SpiWqtg/thAkyACbQKgSYRhK2Ca/zNs5I4NfupMsiMR0HYiLpX9lVWmmgff9cnrygioIlu+XEm6Q2sbyuv59CS9zTda8WJ2VkjmRsTaGUCzeCh0cr8eO5MgAkwgVIJsCAsldg4O75SC5RtIQSaXIWqq4GsXEtfOec1281IpXtUDf7cR2MJ2Jkqc80ErpVwW7XdNBs7Yx6dCZRPoNGlJsqfOZ/JBJgAE2hNAiwIS923cebdWqkFyhZcQIlskYgnrHYrR9hhDuWc12yxKyb5Ty0tsNXeL+6v+gQQ2/aPmwfD+EnTEOO23lYx2unQkcLp1R+Ze2QCVSRQ4De02R7IVXHl3BUTYAJMoGkJsCBs2q2p38QqcRvNFoS1Ei3lCLtyBWGzPZ22k8vUSnDX72rjkSolgNgyJDZBgpv2/DXcKx2Gz2cCDSFgeZ2M62QyiUTiHCGESpeaOK8hoHlQJsAEmIBFgAUhXw4ogh6WNyhHbGTHEQJndj84Bq0Sy2G9BGGzPp02e4S6ZzsePEaROL6emQATYAItSmAiJZPxfT+htfallCvVYru01kgX1Yk6h5X0n90P/vZ9PymE+LfrujtW0jefywSYQPMQYEHYPHvRsJlU223UthLaP/CViBkWhLN3SVchCAsc1ypOs2EXIA/MBJgAEyCiZn0gV4vNqbUg9H3/u+nahOdorQ/0PO+WcteQqx+l1JP4PZJSnlRuv3weE2ACzUWABWFz7UfDZlOJ22guKyEWAgH48I0jtbTM4soRhvUQhM3+dLoSS27DLiwemAkwASZQBAH7d6TR2Z3zTTeRnP3y/AAAIABJREFUSMwmovUHBgbumz59eq85LpFIrKC1nup53v+SyeResVjs2c7OztfwPoq9t7e3f7S9vf0p8xpeN4LQdd1VlFK7OI7TGY/H/5ZdsH7JkiVTY7HYblrrZ7q7u1/Knpvv+3OCIFhfa/237u7uhXgfBe2DIDiLiD5PRN9yHOdaFJDv6+tbU2s9NDAw4MdisT37+vr+PHPmTKW17lRKbec4Tlc0h7DIar5+ent713ccZ6mU8n2tdVwptaaU8uVkMjkjCIKdgiCYO3ny5FfsuWqt25PJ5B5CiIXxePxx9EFEi7q7uxdlrwnzDIJgWTwe/yCZTO5mzimG9/z586XrurtrrV+XUj6Vay/BjIhWicfjfxVCDOZguhURrWizMMdgbkNDQ9vmWmO0r8vth91/dP7WWusHzH6Z98FIKbWD4zjxeDx+X/a1UMTHiA9pSgKtkXyEBWFTXjz1n1SliUtsMVXM7EsVhXUWhE0Zu1KpJbeYfeFjmAATYAKNINDM1kEICK31/UQ0xbARQtziuu6BkQh4RGu9PTQUEcWJ6Peu6342fd7tRPQJi+f7RLQZhFQkCBEFHBCRiQbG+WvjfZyjlLqCiL5gnT9Paz3H87wFvb290x3H6SEi2+X0Mdd1t/d9H8JweK7pPt6SUq4ejYn54d5PCCE+jfO11r8gorZoHBQd/raU8lyl1Ae5+lFKYc5PSSm3UEqdmnZNPZeI3kRkiCVuLvU879iIz35a65utMRYT0TQiulNK+ans600ppYiog4iQoc5USl3kOM7m8Xj8bd/3l+MtpTxUKXUVEX3O2iOVSqX26u7u/gde6+3t3dFxnHuiPcJLWmv9fc/zzoh4b5oOn3mQiKZms4jexzWwqzVfzGmLeDz+5lj7IYRIQajG4/FHsP/W+X+VUn4MfycSCQjfu6xrAS9fIKU8pRGfRx5z4hFgQTjx9jzviiuxEqLTUkUhzilWGNqCEOcU0/DE+Y2eTPwi2lgxks1uHTRrqHSPiuHGxzABJsAE6k2g2ZJ52euPhNHktOD7puM4/wiC4FdEBJEIMXG6JVDeIaILhRAPpi1InxRCnCmE+KcQ4qRUKrVPWhicTkRPSyk3j0SPS0T3BEHwg1gsdgLcO4noWinlkb7vH6O1/jURzXUc5zit9eFa668S0X1Syj0SicRtQoh9IcaEEDdprS9Ku3HujDm2tbXdMjQ0dDZ+9jAHx3Gu6erqej0ShBI/11rrG2Ox2B1BELwhhPCDIPiU1nrAcZy7iciVUsb6+/vXztVPHkEIZJ8XQizQWsNFtUNK6aTdVmO+7xuBd7LW+mkhxG+JaLUxBGEf4h+11ldora9Oz+8UIQTm96jnedvl4q213iEtXn9KRM8HQXC0EGJLIQSY9LuuC3GcwvoxLyHEcalU6gXHcX4XzWMOrIlKKQjpqUKIY7XWELjXQbg6jgOLK8I2rsUccH56nIPTfZ8mhHgEsZRj7YeU8nylFLjuJYS4RAhxbRAEmNu2WuuveJ73K6XUe0QES/NhWut5juOA4UzHcWbBulvvzyOPN/EIsCCceHs+liAM49QqyRRajigsJplNdjbTcrZtrHFaJbOdcRutZI/KYcfnMAEmwARqRaCZrYOJROIAIcQf0tavK6WUobUuEjmw5iEpzDQjUAYGBqZMmzZtKY6JbvCnuq7bJYSARQ2v/YWINoS1TikFSxxJKcP7MK31JN/34ar5uJRyW6XU60S0quu60rgOKqXeJqIZaetdpxkzndxlH9d171q0aFF3R0fH+Y7j/Ml13Tt93z9Da3221voznufBOofxIcwg9syYcPc8ynGcR13XnRsdc2Uk7LZ2Xfc/efrJZSG8WkoZWueUUnfCMhqLxdYaGhqCMAO/q6SUR+H9vr6+tVKpFFxq81kIR7GJ+gzFGoRqHt4QTTNd1/WEEKHLq1LqgrTx7RsQXUIIWDshAH8mpfx69P6mQoh/aK3PEkI8r7X+M0So53lH433f92HZ/GNkAV0S/X/4OogyxS6RUv6k0H5ARAshXnVdd71ov9t9318WPSCYE4n19lgstgHEezKZ3DaVSh0VBMH52e63tfoccr8TmwALwom9/8utvuI4tchVuhRhWEySlEKCEAIJzbYIZi8unyBsFesg1mOXoCiGG1/e/8/eecA5UpZ//HknWzPv7PUDpJ2IIHDSiyDtaNJEmkhHijTFQvlTBAERBFHEQlOkCoL0JihdujQPliJNQOAqx93mnWxL5v3nN5nJzs4lm7Lped7P5z63m8y85fu+yeaXpzEBJsAE6p1APX8h54sKItpJSgl3Q7cppV4lorVgBfPFgC+0vOcRQP+RlHKVbPzDgtC7B0LrFc+CiJ/xFzUYiI8U0wLj9PX1fdUwDCQaw2M2ET2Ziof7sS/sxhCE3RBVgXXskHIbvdyzlPluo+Q4zhY9PT1PFiEID5BS3uit43pYJ1NuomsR0b6wjAaFqedeCYHnit8wnxxsHiaibUzTNOPx+D/gohviDXE1R0o5w+/Pc/V9iYiuRTgnEf2IiLaXUj6UZcyfw+LnPe4zB/92uAcPDg4e3tHRgbjIqUSEuMOXtdYXWZZ1M+4Zaz9isdiaQojXQn3jV7g7zZVSLucn7/GuAZt7tNYnwz243l+/PL/mIMCCsDn2sWyrKHecWj4hV4h1EIsbq5+g22ngg8VSTHKNVc8fRrJt7LhFe9lOC3fEBJgAExgfgXr/Qk4p5QoFIcSupmneFxBSrxPR6kGLVRaB8nEuQZgty6jniukLQsQ7IH4OcXHB5kgpj8ADXgIVWMD2wveFeAxxgaZp3pVNyIXH7Ovrm2oYBuIVYVE7J2XVewFJaCC8yiUIU3GOe3uWyn0D4gnxjwu11s9alrVpgYLQLY81hiDEGuZJKVf2+4vH4xs7jvMcrLueIDyRiL4mpfxHljEv8gTjbCKCiMw0rfW9lmXdjgds2z5Ma30QEW3muZ9eaprmd8faD631BxCQnriHlTLY3kK8Jh6Ai24ymYRb7S5ePOaA4zgrZEu8M75XHd/NBJYmwIKQT8VSBMrplphLyBXr8jiWIAwKvWIFYT27KuU6muUW7fwSYAJMgAnUikC9vwfbtr0zXAlTrp43Syn3BSfPvRPul3AXnJbDQgj3zmVM00QtQDeYXSkFyxmsiusXIAjhArlsIpGYOnHiRLg7wgqFLJ5J/K6UelBrHbMsa088hwyoQghYLVEOYptCBGHKLRUunlejPEUgsQqsU1PKJQiFEEg0g/i5DD+lFJK3QHgV4zIKBnB37cjBGy62Kw4ODk7yM8DGYrHLhRBHCSEOdxxnMSx9iMu0LOtoj+eXkGRGCHGu4ziLPNfWv0opER/otiVLlqwKl02l1IVEtINpmpvAJRWZWW3bhhvpoJRywlj7gaynKQtgwrNgLh/u2xPmjwohkIzoXO+sYDwI2B9KKX9Tq9cnj9s6BFgQts5eF7VSP3lJoUlfcnWeTcgVahUM9pmrtIV/DeYZTiITnlPYxbLev5kea8PYSljUceaLmQATqFMC9ZxMxkemlJoDcYaEIEgqkjLEIWHL52FRklJenEOg/MBLcoJSEech6YkQApa951Kup1/JJwht2z5aa30ZrF6eK+O0VCwi4gJR7mEFpRSsWCifcLUQAslhvo0kM34MnFLqQIEkKERwj/wV3F2zWAghiN4gIoit84QQSHLiZk71YxPRD5KpIJmN30+OpDJZXUYty3pdKYW4SsT2XeJZy1ASAwl1cglCN6kMEu5gbCRx8bK43i+l3DkH7/29GEEk9vmxZzFFncQYBJsnstx5eIl43tFanwfR7jjOGj09PW8qpVACA9lP/5Qa78FUzB8sgbtorfFFwJfhkgvrYao8BETb+kKI0/y4wAL2A/GjOyDJkOM4vxVCwMKIJEEQoPsqpWDhjCAJkOM4b3tzhLtxVhfXOn0587QamAALwgbevEpOPRirNh5RGBRyxVoFw+srJi4xfG9YhIb6mtXb24tU0w3T2ErYMFvFE2UCTCAHgXq3DvrTjsfjKziO809PBOJhxPchOYlbmN22bWTt3DzoMuo9fqnW+qhA6YTZpmluJoSIe+JMIX4sIDzRL7KQQujBoghXQpQd8EsvLNZa72lZ1qOoT9jW1vYs6iIG8L7sWbCGkWSms7MTVkoIID9OLaa1HjWmZ0U70otXRDIXZNeE2+UFUspTsvXjCcKXpZQbKKUwv18Q0f5Syr94876OiA5CDCEEoW3bG6DunjcXXAKBvZzW+m7LspApdVTzkt90ey6WEIZob8Xj8Q1QN3EM3mem6iyeHihvMQfZQf36jX19fRDA+Fu/jNcn4g6PklIixtC1BkYiEcQq+uUzUJbiLsuyUJ4DVtjbvcyu/n7A7XUrrDHffngWRZSVQPI+/7P3Wzg3iBP03FshGv1yIRj7T36CG34TYQKVJsCCsNKEG7h/vzYhllCKVc9fOv7orzzToJXWysSxl0wlbQV0E7YV1LKNG7I21mXNwUIWxyUoCqHE1zABJlCvBAIu/g3xpRxi9rq7u1eCACiGKZKKSCnfLbXQOIQKCsFnSzDiFXyfGY1G/wOhmUVcreu5Krq1DbM1L2vqWqZpvua7t5bST67+kVW0q6vro8HBwRUHBgY+a2tr2wnWPCHEWaZpwto6qnmCEMJ1WcTVDQ0NLSkmjg7CL5FIzPEzvob7X7Ro0YRIJDItV/ZOb59npFxH38jGA/uptZ4fLiyPcfLtB1grpZBp9r1s+4W5dXR0rDzWXhRz9vhaJlAoARaEhZJq0evKJQrrBV+ziEHwLGesZ73sD8+DCTCB1iDQKNbB1tiNyq7Ss4Yi7u4cIQQsf3AZ7Wxra1u1q6sL5SdyCsLKzox7ZwJMwCfAgpDPQl4CvvDAheOxFOYdqMIXNJMY9AShWzcSP3MJigofnpzdw8OK30ZrRZ/HbVwCgfjyhvXSaFz61Z25G8+Yjr+U3shxrfXBlmWh+PpSLWghrO5MeTQm0LoE+JNM6+59USsPWgrHE1NY1KBlvDgUM/hYb2/vrDJ2X7OuWi+5DAuwmh02HpgJlIlAIyf0KhOCluwGsZjJZHIwX209xC0mk0kH8YItCYoXzQRqQIAFYQ2gN+qQjSoKQ2Kwqb6N5uQy/quJhWKjvq/wvPMRaL6zze6i+facn2cCTIAJVJcAC8Lq8m740RpNFIbKXjSVGPQPEyeXafiXFS+ACbQUgUYoNdFSG8KLZQJMoOUJsCBs+SNQPIBgSQrcXY8upIgXxLfQH/S69YDRGiKLXfG74SaXQYD+meMt61HK2HwPE2ACTKAYAmwdLIYWX8sEmAATqA4BFoTV4dyUowSthfUiDLMIwaaJF8x1iIICvZGT/jTli4QXxQSYwCgCgVITTemxwdvNBJgAE2hEAiwIG3HX6mjO2URhWhy2V3WW2YRgKv0jPnA0VMH5UqFxCYpSyfF9TIAJVIsAJ5OpFmkehwkwASZQHAEWhMXx4qtzEKiFMIQIRAu5huKhpnUPHesA+rGE9ejC25gvnOZL5tGY+8CzbhYCbB1slp3kdTABJtBsBFgQNtuO1ng9YWGI6SC2baW1ImWxGo4hAjFUS7sgBV1HWRTW+IXAwzMBJpAhEPLgaOn3aT4WTIAJMIF6JMCCsB53pdZzwqmAcWQczROG6OHMcDcQK8G28kzD/RWiEc0Xffj5g15n1GOBJDF+F3AJbRnX0HxbEhTkvhAHX59tvvv5eSbABJhAuQi0Ykx3udhxP0yACTCBahJgQVhN2i061ljisEQkLALHAOdZCiHEty6RL9/GBJgAEyg3AbYMlpso98cEmAATKBMBFoRlAsndFEbAEythobKVd7f/eDARzOPec+5jrZIkpjCaY18VEOLgy+KwHFC5DybABIohgPdtvIcj23NLJPgqBg5fywSYABOoFwIsCOtlJ3geTIAJMAEmwASYABNgAkyACTCBKhNgQVhl4DwcE2ACTIAJMAEmwASYABNgAkygXgiwIKyXneB5MAEmwASYABNgAkyACTABJsAEqkyABWGVgfNwTKA6BMqQKrY6E+VRmAATYAJMgAkwASbABGpIgAVhDeHz0EyACTCBmhPg7w5qvgU8ASbABJgAE2ACtSTAgrCW9HlsJsAEmAATYAJMoIUJNNk3Mk22nBY+mLz0FiPAgrDFNpyXywSYABOoOwL8IbLutoQnxASYABNgAq1DgAVh6+w1r5QJMAEmwASYABNgAkyACTQNAf4+sTxbyYKwPBy5FybABJgAE2ACTIAJMAEmwASYQMMRYEHYcFvGE2YCTIAJMAEmwASYABNgAkyACZSHAAvC8nDkXpgAE2ACTIAJMAEmwASYABNYigA7do7/UFSWIQvC8e8Q98AEmAATYAJMgAkwASbABJgAE2hIAiwIG3LbeNJMgAkwASbABJgAE2ACTIAJMIHxE2BBOH6G3AMTYAJMgAkwASbABJgAE2ACTKAhCbAgbMht40kzASbABJgAE2ACTIAJMAEmwATGT4AF4fgZcg9MgAkwASbABJgAE2ACTIAJMIGGJMCCsCG3jSfNBJgAE2ACTIAJ1IJAZXP91WJFPCYTYAKtToAFYaufAF4/E2ACTIAJMAEmwASYABNgAi1LgAVhy249L5wJMAEmwASYABNgAkyACTCBVifAgrDVTwCvnwkwASbABJgAE2ACTIAJMIGWJcCCsGW3vnUWzvEerbPXvNIQAT78fCSYABNgAkyACTCBPARYEPIRYQJMgAkwASbABJgAE2ACTIAJtCiB+hSE/K12ix7H+lj2zJkzt/Zm4v+/VWBm/mOPeY89Hpr1Y729vf5z9bGgcczCY4E1+wz89Y+jV76VCVSHAP8pGRdnvI+572+9vb1njasnvpkJMAEmwATqmkB9CsK6RsaTa0YCnvA5k4jKJXjObvQPUjNnzsSHQDDhxgSYQGsTgDg8u5m+7Grt7eTVMwEmwARGE2BByCeiZQnkEoEbrTPoMtlonSH3/w3XTv+efiz98/OzO93/X3gl/b/fLr3OysazocRhmAvWfMxBsVHrb9lDwwtnAi1CAO9xeH97fnZH5v3OE4VsLWyRM8DLZAJMoHUIsCBsnb3mlXoEslm+yi16Lru+J/xByuePb9nr+gPVzJkztS9+IQR9EcwHqDUIYPP5D0Nr7HWhq8T7WeDLrrp/Dyt0XXwdE2ACTIAJpAnw330+CS1DwLN8PeovuNwiMBdIfJhCC1kP6/JDlS+Wjz04Rscc1NcyZ4MXygSYwNgEgqKwt7eXPzvwgWECTIAJ1IxA+SPk+U29ZpvJA1eLQC4XyGpbvupdGAYF86sPflyt7eFxmAATaBACh5041XcfrcsvtBoEI0+TCTABJlB3BFgQ1t2W8ITKSWDmzJmwCLqJYnyLYLWFYHg9IfcrPF0XH67YOljOk8d9MYHmI4C4QojC1HsqsinPar4V8oqYABNgAq1JgAVha+570686aO2qFyFYgDCcVcssfiwIm/5lwQtkAuMm8OXtl3f7YLfRcaPkDpgAE2ACdUOABWHdbAVPpFwEgkljIAav+uXCcnVdkX7qJWGDn0yG3UUrss3cKRNoCgIBt9GafoHVFDB5EUyACTCBOiHAgrBONoKnUR4CQTHYSIlR6kEU+u61ENC1dqstz2ngXpgAEyg3gVYXhEqpg4hoKynlEeVmy/0xASbABGpFgAVhrcjzuGUnEIwXbCQx6IOotShkQVj2I8kdMoGmI1AJl1Gl1CdENCkAazERvdnW1nZ4V1fXe/UEMRaLPS2E2FRKKbTWhm3bcSHE86ZpblGJeWqt24koIoQYqET/1eozvI5qsKvW2ngcJtAMBFgQNsMu8hooaBlsZAtXIGkDdrWqiRv8uMtGcLPlI88EmED1CVQqqYxSCmLHIKJ/QPwQ0ReI6ItENJRMJteaMGHCO9VfbfYRg4IQVyilXk5ZDB+VUh5fiTkqpZ4lok0gQCvRf7X6zLaOSrOr1tp4HCbQDAQa+g2mGTaA1zB+As0iBn0SIVFYtQykXHZi/GeRe2ACzUwg4MVQ1vclTxDGpJTTfH62bZ+WsiqdS0S/lVL+wH+8v79/RiKR2Ehr/WhPT89SAeLxeHylZDK5STKZfGjixImfhfcjFovNJKLVhoaGHpoyZUqm2GosFpumtZ5kWdZ/4/H4jpFI5DXfOtnf3//5RCKxfjKZfCQSidznWwjRd19f32qGYSyRUs7TWkeVUjOklG/H4/GpjuNs6TjOi2FBC2tZPB7fXgixMBqN/gt9ENGnPT09nwbn29fX9yXDMP5GRJ/XWq+VTCbnYE2xWGxNrfW8jo6OCcPDw+talnW7N5cpkUhki2QyucCyrGeEEI7fH+7B/RMmTBiMx+M7CCHmRaPRZ4LjYV5Kqc0Nw4hGo9GHhBCDoee7lFKbGYbRHY1GH85mtbRtez0i+lw0Gv2HEGLYm1fWdQTZ+ePMnz9fmqa5ndb6fSnlv4Pjl2MNzfz65LUxgfEQYEE4Hnp8b80JFCIGIbAuu95y54qf66HBpRUtV/H3GopCt0xHI1tZ62F/eQ5MoBkJVMJdFJyyCUIIO8dxPhBCPAl3TAiFaDT6JBGtE2D7Dynl1/A7BJ0Q4l9ENCPw/BOmaW4NYQShorV+hIgm+s8LIW4zTXNv/G7b9pNa668SUZyIokR0k2maB9q2/RQsdIE+IbIM32KnlMLv/5ZSrq+UOpmIzieiD4loJf8erfXllmUd442ze0rc3UJEbd7zi1KidzIR3SOl3C1wT5dt2/2hc3SD1vpHQoj5sJ4SUQcRaSmloZT6MxEdELh+yHGc7Xp6ep7w2OAe/IPo9j/7vSGlXNPjt40QAuIz+Efyl1LKk7x5H621/l1g3jo1h9OklFgvhPEWhmE84LHDQ1pr/TMp5XnZ1iGlPDDIzjsHVxPRtwP7o5LJ5I49PT1PlWMNzfia5DUxgXIRYEFYLpLcT9UJBC1auWIGs9T8q/o88w1Y4NyrktGP3Ubz7RY/zwRak0ClrIO5BKFS6gYi2j8VW/gbKeUPlVL3E9GOQojLhBDXO47zawg1rfX3LMu6RCkFMbiREAKi5bpUjNpPiWgnIrpASnmKUgrWwgkpwfd/hmE85TjOJUQEkfgzy7LOCAhCxDNeJIR4TGu9FxGdSkSzIcSQTEYIcSbmnEcQ4pJDhRALtNa3QbhBtGmtI7ZtK0/Inai1ni2EuIaIVgwLQo/L2njcE5frOY7zkUg3CDu0ayCYYV3UWt9BRK9qrfdNCbuNU/dclRJXsLKtEhBTuOcCx3Fg5cS9q6TiH3cxTfNvSqm5EIta6/211h8bhoF5TzcMY4Xu7u6FEHVCCNtxnN201kOGYWA/TCllxIsHxLecHam5HZtMJt80DAP7h3XBYgjRPGodsO6GxDSswBcT0RuO43xHCLGBEAJ7PGCa5kSl1MTAuoteQzQa/bg1X7m8aiZQGAEWhIVx4qvqkIBfJiGXoApkw6vD2Y+eUiGisFp1v3yubCWs+2PDE2QCVSPgWwdT1qWyuosGBCEsU28JISCcPudZmj41TXMFuCZCPAgh3jVNE7GFMD+127YNl8bZpmluaNt2gohel1Ku5UPxktW8pLW+WghxK0SSlPJw736IM1gDbSnlZF8QDg0NTZw8efISb14Qh9NM05S++6RSCpYxktISRBrWzWwWwmullK6lSykFIbRrJBKB2ylEDuZxtZTyMDwPd9RkMonEOaMshIE1jIohDIg71zKI6+B6KYSAG+gtcF31xkWfK6QsdB3Z7lFKYX7gcpZpmmfbth0D00gk8qXu7u734/E43G4Pcxznwp6enk+UUocZhvGMaZovev1DcEL0wn0XLq8QgK5498WsEOIprfVZUspf5YghDLKDYJtumqblu6IqpX6ZMv6eANFPRH/1BGFm3cWsoZ7iUKv2ouWBmEARBFgQFgGLL60fAvmKqIctg9UuTp9rfBDEXPD887M7Rrmw5hJgAWFblSQzfrZRTi5TP+edZ8IEakkg+H5WiS+mPJdRCMIPiAj+/XChJNM0YXEaRuyYEOI1jwFcJf0Gl8m5KVfRnbXWLwUFX5CXLyxgMZRSwq3RbUqpV4loLQgrXxAGk7d481oopVwhcA/EYk8eC+EBUsobvTGuJ6IDEQOYypwK690ZWut9LMuC2yjE3BTDMBAL+S8pZdA11Z9jVkGYEoBPm6YJF1f/uhM9ayZcYl2hSEQJKWV7QBBmBLNt27tore/1LagpQX16yoJ5jncf5nOP1vpky7IWeOvYgYgu96x+vrsrOY4DV9E9iQgW1O2llA9lO6sFCEKI+zlSyozLr+fmi329Vmt9kicIS15DLV9DPDYTqHcCLAjrfYd4fksRCMYN5iqiHvg2m2pRgqLQ8cPCMdd6qln7i5PL8IuOCTCBIIFKuot6YgNZRjNJZZRSECoQLD+wLOu3Sql1iQjZPCEGYYkKtreICLFvs4OWt+AFSqmfp1wPTxFC7Gqa5n0BEfU6Ea0Ot8ccghAxfIuklMsH7kEiGqsUQWgYxt5a67Ph1mlZ1s1BQai1ftayrE3DJy8spHxxp7W+07KsPTx++6US5UCAvi+EOM9xHFhaYYmcGBSEwXvCghD9DAwMrJJMJuHKuovnpjrgOA7EsDAMA5ZH7BNE4wue+NzGE4TfSOlrCNKvSSmRKXapVoAgRN/zpJQr+zfH4/GNHcd5DkJfa439m1/qGsIJe/gVzgSYwGgCLAj5RDQcgXyuokGRVQsxGBy/ECtb0LU1l5WwUunec20+1yRsuJcFT5gJVIxApZLJBETWKEHY19c31Rcgpmn2wEPUcwmFBSkjzpYsWbIqXAG9GDa4jL6TsszBfdFtSimIxBchjrTWEII3Syn3xXNa604vnm8xspvmEISwWK4Qj8cnTJ8+HbF/6NNzGU2XgcjhMprVQiiEQKIZxN5l5qGUQpwg5lmUy2hIELpuqW1tbV/wM6MG55m9FJgzAAAgAElEQVRNRAYFoeM4vzQM41EhBBLpILMr1nWhJ/LgAgqr6NWwIFqW9RPveVgRp0AQCiGmI0GP1voKy7KO9oQuMos+IIQ41zTNPxYgCN+H9XFwcHCSn/01FotdLoQ4SghxuOM494wlCPOtQUr5m4q9QLhjJtAEBFgQNsEmttISCrEO1pMgLESQFjrfWlgJCxG0rXT+eK1MoNUIVNo66ImLUYLQe8yPUfudaZrfV0r9nYgQJ/e04zi/FUJslkqmchxiyyDylFLIIDoLQgniJFVW4Rit9WZw0TRN82dKqTkpl8dlkZRGa41yC2ejnANcHaWUF+cQhBBDSGzygdb6QsMwttZau1lJS7EQWpb1ulIK4gpxcpdorSE4z4J3bC5BGIvFsJ5veMls7nMc58OwMIrFYj9Ludb+2BOWyDYKi+H6/jzzCUIv6Q72IIJxHMd5G9lSkXQGbqBIZmMYxhtEhMQ85wkhkMzH5RBISuOuy7sPIv08IlrGcZw1enp63gyvA7GIITGNBEKw/iJuE2tBeRDUdoTleMJ415DLlbXVXs+8XiaQiwALQj4bDUUgn3UQiynE4lbJRRc7frDExFgCLHhdJeJ4wkzYSljJU8J9M4HGIBBwf69YpmMvVg+1/JbxqWitUXYBIsNAUhdoD9u24Rq6daBswlta680R54YagLZto2wOMmyiIWEJkru4yVvi8fgKjuP80xOB/vNIguIWlLdt+wn0FS4Ar5SCa+c+gT4XI8YxJAhfllJuoJRCiYZfIDuqlPIvnrC9jogOQgwhBKFt2xughqInnnAJhOpyWuu7LcuC6+WoFovFkNkUYhfJdpBJFBYzuE7eYVkWYvd8aydiDeFaiwbXWlg0J3uxiwvC99i2jbhLWE3Pl1Ke6rlnQnT7ZTlQNuJPlmV9Bx161rojPfawkqK0Btw73SyuXs3ExyACvTkgJvAoKeW13v2j1oG5e4LQZeftwZla69MDpS3mOI6zdU9Pz1sBQZhZd7FrqMdXHD6EuyZnbkygxgRYENZ4A3j4wgnkSyTj91SsICt8BoVdWez4hQpCjB7ou+yZ/sKr4xIUhe03X8UEmpVANayDxbJD6YaUSFtDSvmeEAJZQkc1r7j66pZl9WbrG/UMu7u7V4I4K3RsuJcqpb5QzD25+kZW0a6uro8GBwdXHBgY+KytrQ2lMW7ws31muw/iOB6Pz4xGo69nW7N/TylrC4+3aNGiCR0dHSubpvlayrqaDD7vlc1YK9tz/nW4PxKJTMuW1bPQdUBcJhKJOX6210L3KTiHXGsoti++ngm0CgEWhK2y002wzkKsgyHRRPlKJ/gfeApx7SwUYSUFYQ2shO6Xl/k4FsqGr2MCTKBxCFTzC6jGoTK+mXrlHQYQjyeE6E71BpfRzra2tlX9+L/xjcB3MwEmwASKJ8CCsHhmfEcNCBRqHSxWEAazgebK8FnscispCEPrq5gLl79mLkFR7O7z9UygOQhUutREc1AqfhVKqQO9OEa4waLFtdYHW5aFQvDcmAATYAI1IcCCsCbYedBiCZRbEMLSdtn11qg6gIjfQ9tonSE65iBkFi+tVVoQVjPjKJegKO0M8F1MoNEJ1KO7aKMzDc4fMY3JZHLQr/PXTGvjtTABJtB4BEoThBwF23g73eAz9t1FC7Hi5RNkwedzYQm6SGYTj/592Qre5xs/PGYxMYS4twZuo0iAsDW7jTb4i4inzwSKIFDpUhNFTIUvZQJMgAkwgQoTKE0QVnhS3D0TCBLwrYOFlkAYS5CFC8FnIx0eJ9894esrLQgxZy5Bwa8RJsAEKkWArYOVIsv9MgEmwATqkwALwvrcF55VgEAx7qIhsbRUMpRgzCASyWy4dtpNNNh811H/saBFLtvGhBPSVEMQVtNtFGvmEhT8kmQCrUMg8D5Z8WzGlaKqlDqIiLaSUh5RqTGC/XplMi4TQtxlmuad1RizkDGUUicQ0TSUhijker6GCTCB1iTAgrA1972hVl2Mu+hYgrBY18xSIQUFIcRivvb87I5MLGOhVtAauI0iE96Zhc4v35rr9Xk7Lui//2t3pyejDs1YMVGvU+V5FUFAa6LX3+4g/C8E0ZpfHHL/57Y0gWZJJhOLxZ4WQmwaritYqT23bRu1BD/RWt9lWdbuSqmLiei4VMH5DaSU/9ZaG6maf11jlY1AeQvMTwix9DeVBU48FottI4R4UAhxtmmaP1VKoV7gdCllV4Fd8GVMgAm0IAH+k9iCm95ISy4lqclYFrpKZBUN8ywkRjHXHhQjuGrhNop5VzOWcHBI0B0PRDO4vrmLTZFI5U5wUGiv/+UhuvaiBZUbLE/PTz7fRedfOoEmWA79/JTPaKXP1U6cDg4KevblTpr9egclHaJ11xqizTYYpM6Owkoqv9TbQW+9105PPd9FHR2awlZ4H8Wu2/aTNFFPPH/7eG6ETj1/Mi1YZNApxy6hrb4ykPOm4YSg9Xf6XOb5l+7/hNrbCpt7/pk01xXN4i5aa0Fo2/bhjuOcZhjG5qZpzrFt+3SUmtBa750ro2iqsL1NRIullMuXeqpisdiaQoh7tdYnYRwWhKWS5PuYQGsRYEHYWvvdcKst1l0UCxxLEIbFWjnrD/pwxyMIi5lPNQUh1ua7jRYzx/EeuEWLDdrqm8tlunnmrk9IRiv3Qb6eBOF3T59C/3wu/aX+sQf30TEH5bc2j5d3tvthNT3uJ1NGZeTFdZtuMEi/OetT6u7Kvx+/uGwCXX+7n2U/9yzvu3ZewcL32lsl/fKKCW5n6601RNddnFu8syAs7GRU2/MgOCu4XCqlNjMMozsajT4shMgo/P7+/hla6+Hu7u45SqmtDcPo8q4ZZUlD0fdEIrF+Mpl8JBKJ3JfPQjgwMLDK8PDwRlrrl3t6et7y5+MXeJdSvutb6xYvXjwpEoksJ6V8UwjhfmuhtW6Px+PbCyEWaq3/F7QQBq/v7+9fwXEceFkcSkSnGoZxfTQa/dgfT2sdVUrNEEK8SkT9WuuNpZRvE1E7HpdSvtff379eIpEwenp6nsJ9ueYOK6NS6gv9/f0fTp8+XWUThJhbe3v7lkKI+dFo9JnCTgdfxQSYQDMTYEHYzLvbBGsrtyDMFQ/ou3aOp9xENkEISwjKWBTSEM+Yy3KS7f5qf5NfirW2kHWPdU0rC8L7Ho7SKedPoskTHbr03E9prdUKO0fjZR6+/7dX9dAf/2K5D5tRTRCIfjvte4tpv2/AqDF2q4QgfOf9djr8pKmEM3LW8Ytpr51yz4MFYb4dSj9f7fcUf1a2bR+ttf4dEbV5j+FbhtNSbo7n43evmDuew+Fz3SpRv4+IVpFSzktZ3iK2bUMobRJYKUSbkc1l1Iv3e4mI1ghc/4njOOv09PQsjMViPxVCnCGE2MOPB1RK3UxE+0QikVW6u7v/a9v2N7TWtwbmjANoBlxGbyCi/R3HWd0wjOeIaGJgrP9JKVfyf4/FYt8TQmD9mSaE2E1rvWbKzRQMIHyx7o9N01zVtu2cc/fmdWdKrJ5rWdbpYUEYi8XOSgnan3gsMd5wSojuZZrmPSODQ+0Wdmb4KibABJqDAAvC5tjHpl1FuQUhQBWbJKZYuMUmlSm2f//6Wnx4q3ZymVYWhNjnoWFBbRFNBqKPatT2+9406v1PhysGH7h+rjuXr+6Rttpu+9V+uvisRXlnFhSEe+9i0/FHZK/zCXfRYmL7HE00PCzyuq6yIMy7Re4FtSg1AYuWbdv9QgjbcRyIoCHDMO6HuJJSug7iMHPhdyJ6wHGccyORyA/geklE16esZwcrpc6D5Y2IZmutf4RkMkKIM3FvNkGolPoLEe2rtb7ScZwL2trajtdaHwOPeCnl4fkEYVdX14e2bWNOHanpnai1ni2EuDGlqZfJJgg7OjoSiUTibCJCUfozDcO4rru7+31/V2CRjEajqxIRhF4/EX3VNM03bNv+oScIYY38mWEYz2qtDxxr7mMJQk8Io/9FYG0YxspEdC2ssaZppr/14cYEmEBLEmBB2JLb3jiLroQgDAqqYEKXIJVq1iEsdTeqnWkU8/SthMXEOpa6PtxXiiCcMz9Cf7jBopdf66R3P2ijmasP0abrD9KRB8Soq3Pka2/EJ156nUWPP9tNcxdEaKO1B2mDtQfpV39IuyGGYwgffqqbbr7HpFfe6KBlpyVp1mb91NWh6Z//Srt1nn/KZ7SiF+c3MCjoypss+tfLnfTyax208goJWnfNIfruIX203PSke30ySXToCdPcmLxpk5O063b9dNn1lhtrd+818+iRp7rooSe73Wu/s3+Mtv7KAP3lbpPufSgdU/n9Q/vouZc76ZGnu911rvHFYfreIX205SajY+mKmXe2vdpu/2Vp3oKIKwifvvMTsm2Dtj9gWddSuOdOcTr7+M/ybnFQEB6+b4x+eHh2QXjFn60Mz2/sEKd9dk1b/ZAM5pjTplDMTivjM3+42D0bv7umx/19i40H6OgDR1xqb/2bSXf/I+qyhzvpN3e16bQLJmXmGYwhLGSv0I/vnrrrdnGKdmm67W9mZm/33tmmg/ZUo+JbP/3MoCtu6KF/v95Bb7zdTmuvMUQbrj1Eh30r5saFBttLr3bQDXdKmv1GBynboJmrDdFO2/TTnjvaRQnkvBsxxgW1+IIpvbeuu+RhhmE8Y5rmi3hMKXUV3CuFEBuZpvmCUsp94frizhOROOj/klJuopT6BJk0TdOUvotn+J7g0pF4xTCM1UzTvNx/XCmFF+Z/pJRr5hOEiURiYyHETb6ARB99fX1fMgzjjWyCEO6otm3/RGt9ttZ6H8uybsm2FV4M4RIppRvwqpQ62ROEN6ZcSA/AY/nmPpYg9BPfpCyXb5mmuQ6EoFLqECHEJqZpHjue88P3MgEm0NgEWBA29v41/exLsUgVa6GDsHrhlU5XHPgtKHjcD0rXWzldaMZbh7DUTayFIMRc/ayv1UguU6wgxAfrY0+fOsqt0ecLUXbT7xe4SUsgxg47aRrh+lwtKAghxM77XdDja+m7brtiPq22yjAtWBShQ0+YSh985Hu/jVwLUXXVLxfQml8cpkRC0HqBRCfBHu/60zy64Q5Jf70XRhHKuERClCB2bqx2xx/n06ozht1Lipl3rj5PPX8S3ftwWoQesIdyLewQrWjXX7zATTCTrxUqCO9/tJv+77zJbncQUDf8Nh0XCPfQPb4z3f0ZDP956xx6+MmuzLU7bxOnC05NC9PfX9tDEJZjNV8QFrpXjz3bRcedMWXMPiFSYf1Ee/u/7XTE/6XdWcPtCysn6A/nL6TpU9NfDPz5DkkXXJr+EiLcvr5dnM47Ob/gzse/kOdrWWpCKbUDEUGcrRhwwSTHcbbo6el5Mpu4U0pBVb8ipVxXKQVxuFBKuYK/VqXUEiLqyeEyasTj8Zu01rsQEb518T8LvSWlXD2fIEwmk0emwvhO0VrvZVnW7RgzkGX0GcuyNlNKZVxGyyAID5ZSXo9xkK10rLnncxlVSj1CRLPQlRDiXRzBaDR6jh8XWchZ4WuYABNoPgIsCMe5pwDIrvbjhDjG7dUQhP7wYVfSVx9Mx/wX62JarCAtlV4NBeGjRLR1NayExQhCuAXudth0+mhOWohtsm7a4nffI9GMOIMVCVa6B5/opuN/mhYeaN/6uk2dnZquC4gtXxAuiRm0+Z4jiW0gVGCRevzZLteV0m++IDzzokl0+/1pAbXCcgnabfu4a6185sV06BMsVtf+egElk9kFIQTPXy+bT9fekl8Q7rFj3LVWXnebzIjgQ/ZWdOJRS6jYeec6hxA3ex6ZFmPBli9uL3htOIYQ1r9w+/5hfa7lbdPdR1g/efsc15p2452Sfn5JWjT5VsmgePQFISyZsGj6bfONB2jmasNuQptg7KMvCAvdq8efGy0IcbZw/u9/LOpaZ9HwZQDOANoRJ02l5/6d3m+cl803Ghh1Dg/eW9FJRy2hDz9po10OWSYzX+znpAlJuvmekfn+8YKF9JX1S65CkGtbRz1ey1ITfX19Uw3DmIc8KUR0DhG94Ll/buMLQi+G0JZSZjY3JAhdN8hgdk6lFMzQVjZBaNv2X7XW30y5Zj6otf6j1nquYRj/hOVsDEH4OmIOEUOYSCRgvTwjmDHUF4RCiCdN09yizILwACklXFIhPMecez5BiD5isdgswzCO1VpvS0Qwnb8By2hBh4UvYgJMoCkJsCBsym1tnkUVW4MQKx+PICtHWYrxjF/sztUi5qeayWWKEYRwr/zR2WmRhw/nN1+ygNraNM3/NELb7pv+HIkELY/fMoe+f+YUevTptKsnsnciiyfa6RdOorv+kRZzviC87X6TzroobR2EdQdiraNdL2XhgxhA/7O+NSJIHrpxLi0zLelaJPc5dnrGsgaX0OWXSY6yEB53aB8d/q1Yxu3wnN9MzGsh9L+0CM7Rj+srZt7glavBBXeHA0bWhOt+cdoi2mlWP8HtFu62aHB7jXZn/3qskKQyvmUTQh2CHe3XZy6i7Tbvp2N+PIWe9Fxzrzh/oVvyIpsgDFrbsH9X/2oBGYLov/9ro90OGxFeEIRL+oyC9wr3By2Es//+sRtLGe4X+xG0ZuI8/P3Pc11X5eA5xDm688p5blkRWILRkJwHSXrQgme5GlbCWrmLYq1KqW8T0dUoyWBZFpKd4LGFRDSlCEH4Ab5/icfjE5BZ0+tjlJtp8HwrpWB6llJK96AFXFBdQZiyLiIO8SKt9bGWZV3m9QeTrgFB6DjOmlrre4noJinlfnjetu0NUxbH5yvkMuoKQnxgi+WZ+1iCMBaL7SWEOEtr/QPLsmApBOtXED6aSCQmT5w4sTrm6GL/0PH1TIAJVJwAC8KKI+YBxkOgUoIQ1rVwQ/xW8HH/w3ax8292QQgepVhui+WI64sRhFfcYNHvvZgy3Pu9b4/EqQUff/auT+hb352esRr6lj3cgzIPKPeA5gvCX1/ZQ1fdnHZB/NERS+iwb7mfN90W/AIB/SDG7dvHT808H5zDP/7ZnRGEEDUbrzM0ShC+fP8nroD1Wz5BiPi6M36QFhCwRsEqVeq8cwlCWFv3Pnr6Ui64uB7uoi+92umKNbQLf7yIdtwahpqlW1gQwmoWbhCZyy+bJHA64Zy0sMcaTzp6CW20a7qGIKynT9w2x60hmE0QBgXWj49bTPvulnbhzJZUBrGghe4VkvsEBaH/3gBBvOEuo+sb4gz98Kz0/MNiDqJ2aBiqgtyY0OB7BSzHX90oHf/ZFzNcqy8aYmD/8vvK1sOsxRdL/v77sXdEBDFyHuLZvIQxKNC+i2mafyvAQojkK79OxR1+oLW+0DCMrf0+ciSVQfKW9VLfHd0ohPiP1vq7KN6O+6WUM2zbXk9rjWvmp2IST9VabwOPaczZzzLquaRaQohLtNYQpEgaE80lCJVSSAYDt8+HUpbLX0kpHwi/BpRScyGEhRBHpZwc7tdaH+zFEGYshEqpfHNH9tOsWUaVUmsj8Q7eWlPH7HghRKfWGty6TNNsZ7fRrG9f/CATaAkCLAhbYpsbd5GlCI98giz4IT4XmfHU2ss3frl2o1Yuo+6H1Jkzt05l8nu00m6jxQjCoHVvLMZ/u3YeffOYEZHzyM1zXesWWrY6hEhGco+XyAUF4nfddsTdMSwI33y3nX78i5HkJbnmce7/fUY7z+ofJQj//cDHo5KS5BOEcAuFe2g55p1LEB78w2lu4hS0g/dS9NQLXRkXSQiaL68xRL+7Op3Y5ZqLFtIGX87u2lhoDCH6gWvnV76RFlmwsF1w6iL6zslpsRsUwdkEIYQkBCXar85YRDtsmRao2QQh7i90r3osJyMIkbznr5emXUOz9XvrfVE67/dpi7LvGprrHKDGZrY4w+D1vlW7XO8b4X5qaR305xKLxS4XQiAuz4/C+DBlNUQGzAuklKd4glBJKTP+xJ7L6GwpJYQdLF1uWQivT8QX4tuSydkE4ZIlS1aNRCIoBeH7jcMiCZ9kLaV0vy20bfsWX1R6kSHIWtQTiUQ+jwyhtm1voLWG+7z7bZEQ4h2t9aoQY5Zl7aGU+jNEZDKZ/OKECRPe+fTTT3s6Ozs/8q6fG1xLgANi+U73ft8fVk8Y5FG+ImW5RGZUyjd327a/rrW+G1lJLcs6wys7Mc23hiqlfuD16fu740V7dEoIX1OpM8b9MgEmUP8EWBDW/x619AzLLQjzxQMC9njEIO4PCsJSrYyFbHotBSHmV8reFLKu4DXFCMILL5+Qsaqgj0P3GbHkBftElst9vzstE2sYLIYOC45v8fIthEExE7Q6oc+wIPx4bsR1R/Vbrjl8bat+Wn2V4XEJwmANwGxCtph5ZxOEfcrIlJfAemDBXLDIoH2/Oz2riPHj/bLtcTGCEPef+LPJ9PfH08LuqxsOuEIU7cpfLKRN1kuLzmyCMCiif3bSZ+THKmYTbk/+q7PgvcK6fQthsNRGtn4femIk2Q2SzCDZTK62+xHLZAQ2LIHZapaaUYeOOmAkg2qxr6F81wfO8Kze3t7H8l1fqee9WoJrmab5Wio+L/0NTZHNL8puWRbi/fK2eDy+PC4KFokP3uSJuBmmafbmsp6hQPzAwMBnhbpbKqXWJaI5qJ+YbYKIqYxEIitGo1GUshidjjZwQ76551t8PB5fSQgRQU3FfNfy80yACTQ/ARaEDbTHrZjAphTRkc9Ch2/EUW4CLegiCiFYbHH4XMcHY5Srr7HG8DKjnt3b23tWtY9yNayExQhCxP7BSogGK85Nv5+fqd+HGL4XXu10E82gHX3qlIzIQNkEJCpB+/WVE+iqm9Ouer4gDGbqhDi5/Oefus+jBt46O7ifJ90Gl9GuLj0qScjDN82l6VNGPtvCtXPDLw+6lsBwltFiLYT5BGEx884mCBf3GbTFXiMJXp66Yw71SMctoYB4yGALZvnMdg6LFYTBGDq/P7iLPnX7JxkrajZBCNdeuPiiwZILiy5aMH4PvyOGELGRwYQuY+1VMMtoPkH45jvttP9x09xxkdn2nqvmuaUj/DhSuJkiUQ4yqAat2vjy4PjvIDFmun22xKC58yPuWa5UqwfrYKXWxv0yASbABJhA4QRYEBbOiq+sAYFK1iHEcsqRRKYGWNwh6+HDXKVLUIQFIeL3UDYi3PDhH4k7djo4XR8PDfX4YKGJxw267f6oK/7POfEz2v1rcTdZC6xJaBAapxy7mJKOyCSPweO+IITVb8eDRpKqIC4NVirUCfRdSXE9BOGqnx92awv65SyQZRTJYro7tRufiPp4sFr99MTPyAllGS23ICxm3rlcRiH8IADR4B4MF8iFn0bo7ItHl+A47bjFtJ8Xr5ft9RCOIURG0WwNLqEQS/0Dgjb++khsHq4Fd1ho/ZZNEAYTuuA6JAuasUKCrr7FyqwDj0MQRiK64L3C3hVqITSEpm8csUwmRhU1Crf8ygA9+M/uzHnxYwuDsZ+YF9xyN91gkObMi9AVN1pu/UckMVpj1cqIwsCXZzX5UqlW7508LhNgAkyACYwmwIKQT0RdE6i0IPSthcg0iQ+8jdTqRBBWtARFWBDm2h+/JuIDj3XTSeeOlJMIX+9/EEcx8l0PXcb9wJ2rBesQht1Rs93jJ6d5/39ttO/3lk7E4t8Dq9HNl8ynzg6qqMsoxitm3tnWVEj9Pf++sYRLIVlG0Q+saTNWTLhdnvzzSfS3R9IZX9HCdS+zCUJchzqGeG6s5pedKHSvnn+ls2BBiIQ3T7/YSUedMpJcKDgXfAEB11e4iKIh3vAvd6XrTWZr/pcY5X5vqmWpiXKvhftjAkyACTCB8RFgQTg+fnx3hQmU4paYz2W0ElP2XU+RqRQt6IoKoYnYoHK7kNaJIHSTy2DNlYiXhNvclnuPuC3m2rtgQpPX326n8y+ZmEmGgnuQmOOI/WKuFcvP5Ak3wtPOn5SpF4cP6sho6ZeYCCbMgXvoH26w6JpbrIwFcvst+unpF7syv6OMAMoJoC1cFKELr+ihx5/tHpWhE4XdEQ82aYLjuhCuu+OIy2nYQnju7ybSTXenhcJPT/iMUKMu6NIatMq98EonHXpCWoCMZ97Z+L74aif95k89S/Hc/xvKLTkBq6fP+K4/zaOJPUtbcAsRpugjKAhRFsSPxwy7i+LaYDbSYDZPxPWdf8mETMkOXHvYt2L0zEtdGSuhLwgL3atg9lns+0U/QZLGpZPKBDPFokblub+bMKpWJVyWsW+rrJQ+J36DgL3kup6MVRGPw2r7/UP7aKuvpDOPlrvVw/tHudfE/TEBJsAEmEBpBFgQlsaN76oSgXoXhBB+4XIV+dCMN2mN33+9JIMoJc4zH6NyPA/BNWd+GyEpBwRYrhbvF2681ueWSbqxXtma1kSv/qfDtep8PKeNpk1JEpKu+PUNcU9Y0OEx3Lfg04j7/7SpSbcmXjVbqfPONkfEPH40J0JTJjlkydw8q7m+scbCfD+ZH6HPTU+OKueR655K7ZVfqxHnC9bDsRos1/iiYuqk3DUdy8W3lqUmyrUG7ocJMAEmwATKQ6DkjyetmOCkPMi5l2IJFBunVi0LYdDlqtg1+VbDYw7KHktVSH/18oGuFNFeyPrq6Rq49MG1D8XDEZuID+74IuCt99LxdbM2G6Dfnp1ONlNPrVHnXU8Mm3EubB1sxl3lNTEBJsAESidQsiAsfUi+kwkUR6BYC1SlBWEuq2DQNRQrxO+4Fu58aF5G0FGLL9VaWG8f6Irdo+JOQG2vhrvont8ZKQ8Qng3cUf904UJadUZlEn+UuvpGnXep6+X7CicQ8C7gZDKFY+MrmQATYAJNS4AFYdNubfMsrFgLVCUFYbY6hhB+hSalyWZVLEUU1lt2QD/5T6UL1dfqVC+JGXTFny26/QEzExO4zLSkW4j9hCP7RpWWqNUcs43bqPOuJ4bNNhdOJtNsO8rrYQJMgAmMnwALwvEz5B6qQKAYt9FKCcJsYjCc+dBH4VsGcyWSCc4R9xQrCq+3+vwAACAASURBVOvFXdRfry/a8XsuJlU4JhUfAlY3JIzpaNdZk6dUfAIlDtCo8y5xuXzbGATqzbuAN4sJMAEmwARqT4AFYe33gGdQAIFiXBIrIQgLFYPZ3Elzib2wtbBQUVivH+j8PSp0HQVsO1/CBJhAGQkE38d6e3v5738Z2XJXTIAJMIFGJsB/EBp591po7sW4jVZCEIbFW64SC8FC98HtyWU1C/dbiHWtjgVhRUtQtNBx56UygYoQqNf3joosljtlAkyACTCBggmwICwYFV9YawKFuo1WQhAGhd5YbqIYO1sbK7YuON98MXj1Hv9TjCW31ueJx2cCrUag3lzNW40/r5cJMAEmUK8EWBDW687wvJYiUGjiklIEoR/zl60MRNhdtBRBOJYbZVDk5XO3rPdv+Iux5PIRZwJMoHoE6v29o3okeCQmUGkCXJit0oS5//ITYEFYfqbcYwUJFGIlDAtClH14fnYHbbTOEGUTfEFBlstCF04Ck8tlNHydj6LQOMKxXEbr3Tror7WQPargEeGumQATyEKAS03wsWACTIAJMIFcBFgQ8tloKAKFWKDCLpiw8PktLPiylYHIJgqLSSoTdhstVAzmsw42ygc63200n/trQx08niwTaGACjfJlUgMj5qkzASbABBqaAAvCht6+1px8vji1XFa6sCjMJgZzCUc8nk0UjiX2UHICDcIo2IrJROrf10gf6IIlKHJZUlvz5PKqmUBtCFTOXZRd42qzozwqE2ACTKC8BFgQlpcn91YFAvmshNkEIURZ0FIYniaeh0vppddZmacKtRRCFKJlc0cNj1NqYfpGsQ76680n2qtwTHgIJsAEPAKcTIaPAhNgAkyACYxFgAUhn4+GJDCWW2JYEPrCLpdFMCj8wtcUKgoB0ReGQXHoi9DLrreyCtJ8bqLoq3Lf7ldu6/OJ9sqNzD0zASYQJNCI7x+8g0yACTABJlBdAiwIq8ubRysjAT95SVhUjVXGoRDBV2jB+LFcTvMtE0LzmINiS7mThu9rJFfR8NzZSpjvFPDzTKDyBALeBbN6e3sfq/yIPELpBNgFt3R2fCcTYALjIcCCcDz0+N6aEgjGqgVFoR/rlyupiS+yxkp6UmgpCFyHFnQ1HQtKoUIQfYQEZ8N9mGMrYU1fHjw4E2hI7wLeNibABJgAE6g+ARaE1WfOI5aRgF+bEF2OVbKhlCEhyJAYJpwUJldfvjhEiQvfVTR4byEWQb/vUAKbs3t7e88qZQ21vodLUNR6B3j8ViYQ8JZo2PeQVt4/XjsTYAJMoFoEWBBWizSPUzEClRSFFZv0GB03ixjEErkERS1OEI/JBEZ7GPT29vLfej4UTIAJMAEmkJMA/5Hgw9EUBHzhUQlLYTUBNZMY9ATh1kT0KH7mEhTVPEk8VqsT4GQyrX4CeP1MgAkwgcIJsCAsnBVfWecEgpbCQrJ31ttyQjGDj/X29s6qtzmWMh9OLlMKNb6HCYyPAJeaGB8/vpsJMAEm0EoEWBC20m63wFobVRSGxGBTxfs0U3IZTUT8ptkCbySZJTbmjrN1sJXOKK+VCTABJjB+AvzZZvwMuYc6I9BoojBUN7GpxKB/NDi5TJ29SHg6TU0gUGqiKd9PmnrzeHFMgAkwgRoQYEFYA+g8ZOUJBEtSYLR6dCFFvGCoYH3DlZYodCd9kT5WqY9C++LrmAATyE2gkWuX8r4yASbABJhAbQiwIKwNdx61SgSC1sJ6EYZZhGDTxAvm2tagQC93eZAqHSUehgk0BAF2F22IbWquSeKTJLyruTEBJtCwBFgQNuzW8cQLJZBNFOLeYw7qK7SLslyXTQimQtLg0vVYWQao8064BEWdbxBPr+EJsHWw4beQF8AEGp8Af0HQkHvIgrAht40nXQqBWghDv0B9yDUU029a99Cx9oZjCUs5uXwPEyiMAMcOFsaJr2ICTIAJMIHRBFgQ8oloOQJhYQgAiG3baJ2hslgNxxCBGKqlkzw0WsKflntx8IIbkkDI+6Cl32MacgN50kyACTCBGhNgQVjjDeDha0fAEyeYwJnhWSAJTbBtuPag+yuEI5ov+vDzC690eo91LPWc1wdcQlvGNTTfjoZFIa6vtvtuvjny80yg3gnk+OKp6eOR631feH5MoNkJsEdoc+4wC8Lm3FdeVZEExhKHRXblX84icAxw2ay0JXLm25gAE0gTYMsgn4T6IsDKob72g2fDBMYgwIKQjwcTCBHwMmJuHXp4K+93//FgIpjHvefcx1olSUw5Dk4FhHg5psV9MIFGIOC/B+H9B5bBlkhO1Qgbw3NkAkyACTQaARaEjbZjPF8mwASYABNgAkyACTABJsAEmECZCLAgLBNI7oYJMAEmwASYABNgAkyACTABJtBoBFgQNtqO8XyZABNgAkyACTABJsAEmAATYAJlIsCCsEwguRsmwASYABNgAkyACTABJsAEmECjEWBB2Gg7xvNlAkyACTABJsAEmAATYAJMgAmUiQALwjKB5G6YABNgAkyACTABJsAEmAATYAKNRoAFYaPtGM+XCTABJsAEmECzEeCadc22o7weJsAEGogAC8K63Sz+61i3W8MTYwJMgAkwASbABJgAE2ACTUKABWGTbCQvgwkwASbABJgAE2ACTIAJMAEmUCwBFoTFEuPrmQATYAJMgAkwASbABKpAgL2lqgCZh2ACxIKQDwETYAJMgAkwASbABJgAE2ACTKBFCbAgbNGN52UzAXK/D9IMggkwASbABJgAE2ACTKCFCbAgrMLm88fuKkCu6BC8gxXFy50zASbABJgAE2ACTIAJ1IwAC8KaoeeBmQATYAJMgAkwASbABJgAE2g0As1mKmBB2GgnkOfLBJgAE2ACTIAJMAEmwASYABMoEwEWhGUCyd0wASbABJgAE2ACTIAJMAEmwAQajUBGEDab6bPRNoLnywSYABNgAkyACTABJsAEmAATqDYBthBWmziPxwSYABNgAkyACTABJsAEmAATqBMCLAjrZCN4GkyACTABJsAEmAATYAJMgAkwgWoTYEFYbeI8HhNgAkyACTABJsAEmAATYAJMoE4IsCCsk43gaTABJsAEmAATqB8CnFmgfvaCZ8IEmAATqCwBFoSV5cu9MwEm0KQE+ONyk24sL4sJMAEmwASYQIsRYEHYYhvOy218AjNnztzaW4X//1aBVfmPPeY99nhoxY/19vb6zzU8DI8F1uwz8Nff8GvjBTQ1AbwG3ddmb2/vWU29Ul4cE2ACTIAJ1D0BFoR1v0U8QSZA5AmfM4moXILn7Eb/MDpz5kx8kAYTbkyg0QmczcKw0beQ588EmAATaFwCLAgbd+/GP3P2eRs/wwr2kEsEbvC5iDuq///63u/Bx178JOle85L3vz/NP7wwlG3GDSUOw1zA4TsbdoxiUsFt4a6ZwLgJ4PXpvzYDr0kWheMmyx0wASbABJhAKQRYEJZCje9hAhUkkM3yVW7R88cXhggfSn3hGFhO3X8onTlzpvbFL4SgL4wruCXcNROoGAG8FlkUVgwvd8wEmAATYAIFEGBBWAAkvoQJVIOAZ/l61B+r3CIw1xrwgRQtZD2sS2Hoi+UjN+zIWAWrsTc8BhOoJAF8MXP03f3+ELOaKc63kty4bybABJgAEygPARaE5eHIvTCBkgnkcoEcn+WreH/geheGQcH8/NGyZN58IxOoOYEsL8+ApRCJn2bVfI48ASbABJgAE2gZAiwIW2areaH1SGDmzJmwCLqJYnyL4PiE4PhXGXJhQ4d1YS1k6+D495Z7qG8CG12u3An29vby3+b63iqeHRNgAkygqQjwH52m2s5qLaZ461O1ZtYo4wStXfUiBMPssgjDmrqysSBslNPN8yyVANxGvbjemr7WSp0/38cEmAATYAKNSYAFYWPuG8+6gQkEk8ZADF6+W3ddr6Zekl74yWTYXbSujwtPbhwEWBCOAx7fygSYABNgAiUTYEFYMjq+kQkUTyAoBhspMUo9iELfvRYCutZutcXvPN/BBPITCLzO6sJNO/+MR1+hlDqBiKZJKU8p9l6+vj4JaK27bNu+TAhxl2mad9bnLHlWTIAJjJcAC8LxEuT7mUCBBILxgo0kBv3l1VoUsiAs8KDxZQ1LoNIxhN6He6QzHZZSpot3lrEppT4koulSyq7xdKuUupiIjkNotZTy3+PpqxL35gqa0FpHiWhQCJEuBJul1fvawlO2bXs5rfUnWuu7LMvavRI8uU8mwARqT4AFYe33gGfgE2ji0MSgZbCRLVyh9PhVzYbox102gpstv6iZQCkEKi0Ibds+XWt9DuYmhNjQNM0XS5nnGGKnLILQtu3DHcc5zTCMzU3TnFPOOVaqr3g8voLjOP8jor9KKb+Va5xGWxsLwkqdGO6XCdQXARaE9bUfPJsmJNAsYtDfmpAorJprG5edaMIXBy8pQ6Aa7qJKqY+IaBkiaiOi+6WUO/sTgHVLKTVDSvl2PB6f6jjOlo7jvDhhwoR3gtsEK6NSajPDMLqj0ejDQogB//mghXBgYGAVx3ES0WgUItFt8Xh8+UQiYQ4PD8/t6OhYIdivYRjRZDKpenp63ly8ePGkSCSynJTyTSGEE4vF1kwmk3MmTJgwGI/HdxBCzItGo8+Ej088Ht/EcZxJpmk+2t/fPw3PR6NRrHlUi8Vi0xzHmYC12ba9geM4M5LJ5CMTJ078LCWYI7ZtzxJCdESj0UeC60MnWut227a3dRwnZlnWM5hfX1/fVMMw1ieivwshnk4kEoegb4yjtZ5kWdZ/4/H4jpFI5LWBgYHPgmsLsFkpmUxukkwmH8I8ghMGj/b29i2FEPOzrTu8PrAfHh7eSGv9ck9Pz1sl7HF7PB7fXgixUGv9P7YQ8hsVE2h+AiwIm3+PeYU1JFCvYtDLZEh+7UEg8h/Dz36Mnv//dzYc7V1WQ1HoluloZCtrDY8jD13HBHzrYKXKvEBUCSFeE0LcprXegIiWN02zC4IGWJRSJxPR+UQEAbdSQERcblnWMfjdtu2jtda/8wSlq4+I6LSUiyjuQx8ZC6FSCqKmxxtj2HsedTUgRq8gou9n2w4ppVBK3UBE+zuOs7oQ4jMIISLCP4g8/3PLG1LKNdFHf38/BN1LRDTJ6zNBRAYRLZRSQgCPakqpZ1OCeBMiWkxEE70nweHX3rzavceGwMqyrF5v/t9OcftjYP2DWuuvpVxEzyCibQODaCmlYdv2k1rrr0ILQ5sS0U1EhHHctUGsQTQKIf5FRDMC9z9hmubWnhg+K/X/TwLrHhZC7GWa5j3hdXkuweCwRuC5TxzHWaenp2dhgXv8Da31rYE12kRksstoHb958NSYQBkIsCAsA0TugglkIxC0aNVLzCCEHERgUPwVunvhNYRiCquSJp/dRgvdLb6ukQgEX0uVqkFo2/YtWuu9iWgdIoJl8Oda62Mty7osJAjx66FCiAVa69uIqAPiRmvdadt2vxDCdhxnN631kGEY90MsSCkjWQThlUR0uD8GLHFa6xdgRTMM4wit9Yb+Hmmtz/NEjGu1zCEIcfkFjuPcJ4S4RgixihBiF9M0/6aUgghaLyWqrnEc509CiOOFEHt4gtC1FAZbQBA+5zjOSUKIbYUQZ3rXPG4YxsmO4+xHRD9ICb0npJRbeqLzPYhIcDQM4/Na6z8Q0RLMHS64qTXdS0TPaa0Psyzr9YAg/CQlji8SQjymtT4+KAiVUhCDGwkhILSv01r/NNXHTliraZpngXlKpC4Cc8MwViaia2G1NE3TyrKuvxDRvlrrKx3HuaCtre14rTXE/FVSysMDgjDXHsM6CtGObwBP1FrPFkLcCKsyC8JGekfhuTKB4gmwICyeGd/BBAoi4JdJqBcxiEkHrBAFrSF8UTh+rxofZMNz8LmylbCkLeSb6pBAldxF4doZk1LCjRGZI2G1eltKuXpIEF4rpYQlDBY/WKF2jUQin+/q6pqfsgAeZhjGM37soVLqKk88bmSa5gtBC6EnoP5LRC9LKddXSl1HRAdprbexLAuWfrfFYrG9hBCwSH1smuZKsIrlEISu1c2bF+Z3tRDiLNM0z1ZKwer2vpRyFb9fpRSslwkppW/ty+y8Uuo5ItrYNM02PwGMUgqJYAzTNCMBq+kQLJNSyhWyzV8p5QuwtSKRiHIc5wMhxC2mae6DwXxBODQ0NHHy5MkQjmCasX5alvVuKq4T1szXpZRrBeYOAfmSEOI7cNdMCci3TNNcB0JQKXWIEGIT0zSPDR/lWCy2jWEYq5mmeXmgL6zrP7CmBgRh1j1OJBKbCCFgxXQFJPro6+v7kmEYb7AgrMM3Dp4SEygjARaEZYTJXTEBn0A9FlEPuXmWvFnhOoCB2mlVSTLjZxvl5DIlbyHfWGcEKp1MBiIC1jPEDXrujYiFuwtuo4ZhrBCNRj8OiIUDpJSwCkG8XE9EB2qt14LFSym1AxFBbKwYcCkkx3G26OnpeTKcZdT73XVNtW0bwqZbSil9/IgpdBwHopEMw1jVjzfMIQgzosm27V08axysYH9IJBLvBoWYN3cIQoILani7lVKvw6oXfE4ptYCIpvii0+sD1jIlpVxWKfUyEa2bcpGFSPQb3F9hPd03Eok8k0sQhsbJCMJIJAJXTFg3MwIsy1wfIaJZcM8VQrxLRH+ORqPn+KI1eH3KumjE4/GbtNa7gHXAzfQtCP98e5zq/yAiOkVrvZdlWbd7otbPMvqMZVmb1dlLh6fDBJhAmQiwICwTSO6GCYTFIH6vtyLqITfPojctl1WumgW16zG5zJIBTU98kKCP+zT1DWr6wmSDVp9q0GpTI9Tu2jSat13/7yH68+xhWne5CJ27XRe11XC9i/o1Pf9xkl6bn6RJXcKd03rLud6MdduqZB2c6yWTWYqDL6TyiYWU6+d8wzDmpQQDLI3IVAr3z1OJaJtcgjAWiyH+7UxkNoUQhSXQNM1v+pNQSr2fsvTBDXL/lGCBtc1t2QSh1vpOy7LgBgrLW0YQGoZxqSfEwn2PJQjdGMKQUEP8I2ooQkj58wgKwleI6MuwTIYhOo7zi7a2tnixgtAwDJTnmI0+pZSH5TqksVhslmEYx2qtEaeIOMlM/GTwHtu2/6q1Bt8HtdZ/1FrPNQzjn7AwFiII4W6KfYJLrGVZcBcGa1cQCiGeNE1zi7p9IfHEmAATGBcBFoTjwsc3M4GlCdSjq2hwlrAUvvRJkv7wQvCL7tw7CUscksqMVQw+YH2sqpWwHtxGIYZ+88xgVoBrTjfoVzt209Ro+q0WYvGf78NDjGhCl6AtVoaBoXGbo4k2uQKfmdPt0q9300bL10aAvb/YoaPu6ieIwmA7fIMOOnqjspfcK9umBdy4KxKHiwyVbW1ti2DZ0lofGJi4AfdAIYRCPFo+QSiE2BjCBeLOsiwkOYFwWwirWi5BOH/+fBmNRvt8S5UQYn3TNGFpy1gfkWhFSol4vUwrRhBKKU/xXEY/gWun34nnMpq13qIfQ1ikILw55dq5T1AsYSxk9Ozq6novHo+vVKwgtCwLWU7xhvBOyiq7WmDuEIkvaq0RL3mW1voHlmXBUghurjBNJBKTw9lIPSsnjLCuqPXiPiHgCxKEXlwk4iAze2LbNmIjn2eX0bK95LmjZiDQEGXSipskC8JmOJi8hrohEMwqWm/WwVyQ/AQzEIlo639u5AP9WCIw3F8trIS1dhu9581h+uljo8Xg5G4xSpRMNwXdtE+UrE5Bby506KBbEbpF9KWpBl2/NxIPNnb71VODdNOrw/TFKQZduXs3Rdtr82flkNvj9Pp8N2Emhffgz3tHXYut3yAZazPL0XtdJevgRanEJz9KfR9xvJQSWTSDwsuNESSiHT13SGQLzeoyqrV2EEuWSrSC7KHnIY7NS1KDmoZ+cpel6hAqpSBu1sZ9UsrJGDwWi+2JbKfeRE70Mm+6v5qm+RvbtuGqOirLaC4LoScIfbfKh3CdEOIoz5qH+L+cWUaLEYT9/f2fTyaTcNlExtQzvaQ7yMz6hUQiMXXChAnKtm18y4a6iSdLKa/3YwhzuYwiy6hSyp27N+/bUiU1jtFab+ZZ6u72LIgQ9EiU06m1xh52mabZHnYbDSTXuVEI8R+t9XdT39NMT8V5fiClnJFP9HtuwYh1tIQQl2itP0DWW2RIZUHY2O/TPHsmkI9APfxNzDdHfp4JNAyBerYO+h8+keQGoq8YsRfMTppL6AZjFCuVKTF4EPxYwlpaCYMiZNfV2+nULTupI0L03iKHjrlnxFp1wQ5dtM0qbU0pCLEnAwmirhoaO+0hTVtfhez45LqI4ky8PCdJ+JIC7aTNO2mfmUvlFqn5+0qlS01ggUopuHlODZZ/8Bcej8c3dhwHCVaeSFWbgTj8RdB9M5BIxY0hjMVilwshjvT0NHQ1BCBcPi/whFk2t8uTvH7vkVLu5s3JTTCTbQNM0+y2bRsZSg9IJpNfNAxjCcpOaK3vsCxrT9xj2/bOsJ6hTIaU8tRFixZN6OjoQLZO18oGq6fW2iSiBdkEYSwWQ/3Ar4SEGsTP9Cwuo0jEs1xAyGLu6BsN4vDHUsoLvXW5yWrwM/pO1St8Qmu9eWicP/trQ61C1H+0bRtJdtz7PHGMpC+uC2mqfAcynWJffDM3voE6OiXwEBM6qi1ZsmTVSCSCObjCG1lW4YwAY6GUslMp5e9FxkU3vMdeNljMx81iKoTAHFcNCvKav3B4AkyACZSdAAvCsiPlDluVQD0mkgnuRbb4QYjDYINQ9C2FvuUwXKJiLMtnwEpY8YL19VCCIpi19Y+7d9O6y45YV698cYiueD7tlrv/2mkxcuMrbjm2TPvyMhHaakaEDlyng466u5/ggjklKmjn1drc8iBvf+rQ7ftFacUJhlvwDRbJh95N0Oy5jivAcP8B67QvFSf377lJumH2ML0+P0nzbU1wXV1/uQgdsUEHmR3pt/3/LHTogifS1k3MAePe/WbCFVLL9xj0zZnttN+X2+n+txN01xvDmce/vnobHbxeRyY28tQHB2iem9CR6Lztu2hZKejsRwfpg8Vpa92ZszrpqpeG6IWPk6SGiNZdzqAfbtpJn580YrHDuhGL+Mh/E66Vb51lI7T7Gm301IdJt2/ZQfTbXTKhXUu9xcyJadrthrQg3GHVNjeWEes48q60IPzpNl2002o1VKxZ3hRrkaG3HO/NXuH2tVKxgKhpmHYrGKPFYrHLhBBHQ9yFi9znu7fQ5+GaKqWcmEgkBtrb22VXV9dcr1zDv6SUqDdY1oa4OsT/dXd3uwlxgg2iDL8Xu1YUvE9lLV3dr3kY7hcuqUKISLYxs1y7PB5DsqBSFw5X2IGBgc/Cbqml9sf3MQEmUN8EWBDW9/7w7BqIQD1bB4FxvAll/K0YSxDWwEroKpFaWQkhOCA80CDOzt6m0xVv2dr37+unZ/639Ofn3ddop5O36KRN/zASixe8/6/fitLKEw368UMDrhjM1n68VSehH7Q7Xh+m8/6ZPaYRIgys4FJZSNbZsOulP/b3NumgQ9ZLf5mw+41x+rgvLf5u2TdKMyYatP8tcVfM5mpwo719P5M6PY128j8G6JH3sq/N/WDbLujxw32jzNK94hDseK2dcdU9duMOuublYYoPa3etmFdPZ339uauGu2gt3z69mDpY9GA9myOlzBS7L/e8PNfMjVPWtl8YhvFhqkbiaZ7l8kcpoXhxucfj/pgAE2ACzUagvv5CNhtdXk/LEKh362C1BCHGqXIsIVybtq5VLOGTHyToR/cjZ8NI22ylCH199XY3YYwvePDs0x8m6eH3EnT3myNWQgg5iD2IyWyCEELoz3t3U+88h37yyMg4EGOL+zXd5fWF6+46IErdbYI2v3JEWCKZCvr//XNDGdF2xtadtNuX2pcShHC13HiFCN3/VoI+XDIi5laaYLjWtX99lMyIX4isvx+SFmiFCELMt39Y0197R9Z+0U5dLiP0+91705Y8NFj4MCYsrH7LJwhxXTYhjPsu/XoXrTW9NoluxnoDrHSpiVq/+dq2fSvKF8Ct0jCMzaPRKFw6K9K8WnkPoYyGN8CwEOIK0zSPq8iA3CkTYAJMoMkIsCBssg3l5dSGQCMIwkIsQoXQy5csp5oZR+uhBMU/3knQuY8PutaoYIMY+e4mHbT3Wu1keO+0uZLKJBwaJQiP2biDDlm3gyKesXGvv8QzIu38Hbpo21XSpjU/oQt+/snWnbTZSm10g+eWCjfLw9ZPW/Eg8nxBueMX2+icbbuWEoTPHind8V6Zm6TD7xwRaA9+26SJXcLNkLrt1Wm3TLQnj5Cu4M0nCL//lQ46aN30PM54eIAeeDttCfTj+oKP7bVmO52yZaf7fHAehQjCsLBEH3fsH6UVegx37igNgvY5y8hwLeS8V+KaZrcOgplXrgCupU+ioHolOIb7RCxhNBqdgqyf1RiPx2ACTIAJNAsBFoTNspO8jpoS8N1F84klf5J+sotsk/bLPFRiQeN1G0XMIUpQjNVq4DbqWglr5TYKFhAcd74xTLe/jlqEo10lt/tCmxtbhzfbQgXhM0fKTD2/oSTRV/84YvVDHKBf6w/9PfbftMA6dP0OgqskGmLqnvowQXOVpk/jDt37nxF3TFgwf7Nz91KC0D+7C2xNO18/IvyCZ3qrP9kZ4fvAwaYbd5hPEAYzfAbP31Ebdbgxjci6inWgXbVHt2stRUP5iK9dm55HPkGIUh4nPLC05thjzXY6bctO10J67ctpi+PfDjJpmlnbP33VSCZTifcP7pMJMAEmwASak0Bt/yo2J1NeVYsR8K2DhbotFiLKChWWpaDG+BBt4WQxufrys5Hmq0UYvL/KbqNbp/KiPFoo/1KYFXoPbFCvzk3S9bOHM0IN9/58+y6CMCxUEPrWOtz7UZ9De9yYLlUxVkOWUyRwufW14UyymGzXZxOEQRfQSgrCYKIdXxBC9Pm1A+8+IErLWWmzaKGCEJa/7a4ZEbA/2LRzeXMFewAAIABJREFUVF1IWChRrN6P3wyK7XxMK/F84PVflZqdlVgD98kEmAATYALNRYAFYXPtJ6+mBgSKdRettSAMIvKL1GfD5tcjLKY8hd9PNd1GMWYtSlDMnpvMxMQhTi+csRUumnDVRIPbKBLHlCIIFw9o2j4geJCxNOL7oAY2DnUNUWtv75tGxCPKYKy9bMSN0/v10+lEM9kEIYrJo6g8WlAQhi1z47UQZhOE+9wcp/9+lrYQ3vjNqFvPsBhBGIzj3HzlNvr1Tl2u+EMSn3BDttVr96xt7cdWcBetwdtw3Q8Zi8W+L4RA2Y1PpJQH1/2EeYJMgAm0FAEWhC213bzYShAo1l20VoIQ4/otn9tnmJNfhxCPwzUzX6uB2+hZqHBQTSshsmgimyYahBOsWxO6Rt5SIcD8MhO7rt5GZ87qGiUIIXwggNDCMYRBCyGeD1rR/GQs/h68s8hxY/ymRgX97a0Enekln0EiGJRbQAueuXoThCf9fSBjTUXM5be97KWo5fitv47wzZVl9IkPEnS8l9gnKPiyJZkJZmPNd4Yr8Xy1XxflXAPKIhBRxI8H1Fobtm3HU0XpnzdNc4tSxorFYtsIIR4UQpxtmuZPx+qjmGtLmUsl7/HqNx6FlzoRvSGlXLuS43HfTIAJMIFiCeQVhLhgdKqEYofg65lA8xIoJalJLQXhHwKiEOLJt/751sDgTqEeYbZahIW6s9bCbdQXrKVYNYs9pUmH3Fg7390RJR1gvUNc3ZsLHAqyhnUQVsJgvTyM97Ptumg5KWjN6aOzjIYFYdCyhvtO+Gqnm4nzjQVJuvz5IdeqBqEOq6UvjuAGesHXukilEqoEM6H61sCgOKmlhRBJeVBSw2/Hb9ZJk6OCLnpqMMN2rBjCcLIbcEb20ncXJem3z458CYL+b903XcKjVq2RrYNKqWdT+Yk2CRVZfxnu2lLK40thGovF1hRC3Ku1PsmyrNvyCMKCry1lLpW8Rym1iIi6TdOcVK0EO5VcD/fNBJhA8xHIKwibb8m8IiZQPgLFuoti5HoRhKVSqEdBiLX4bqOFJL4pde3h+95d5NBhd/QvlWE0eB1cOf+4e9QtJI8WdLvE75usEKGLd+4elWU0LAiRWObwO0aSr2SbP6yNy/cI2um6+JjzgZC8bb/oqKQytRSEENbfvn3steVLKnPJc0N0jZc0Zqy9hWj/0+7dZNWoJmGtS03EYrGZKc/c1YaGhh6aMmVKn88qFotNa29vtzo7O9/v7+/fxHGcCSmr38NCCLdOiFfW4W9E9Hmt9VrJZHIOCpb39fWtZhjGEinlPPSB+1CQ3bbtDRzHmZFMJh/BdV4x+1lCiI5oNPpIwMrYqZT6Qn9//4fTpk3rR2H28P5FIhFkDn1Ga525dvr06So4nreuNbTWj/b09CwM9rF48eJJkUhku/b29hc7Ozs/xngpl833wsIsVcMwqpSaIaX8T19f3+cNw1hneHj4ocmTJy8Jz6m/v39GIpHYKDweHtdaJ4aGhuxIJLLD8PDwA+3t7csLIV4jok+11ltirZg/+gQXpdSWKDhvmuajQohModJwX/39/fdZljVVaz3c3d0937btbdCHaZoP4b5PP/20p6OjYzut9byenp6nwnNGofnh4WHM+eWenp63gnvv79tYHGEhtm17lmEYMexHuH/v+W0dx4lZlvWMECJ3IdJyvQFzP0yACZSNAAvCsqHkjlqRAAvC3LtebWuIb62tptsoVj9Pabq5d5huey1dCN1vEDGwGO63dvuoougop3DcfQOZazddMUK/3qmbvhIoTB8WhOgTohCiB+P4Vkk8jrg5FIr/wuS05et/Sxw6/eEBen3+yOcxuGJCNPkNNQQ/WOzQkXel4+wgSn+/a9oV+NO4ph2vy57dMyhm0QeskMEso74FLpg5NBgXGLR0okbi4Ruks6KqIe2W7njo3ZFsqHB59WMw8wlC9IFkOqhz6Mcj4jEIwAPWaafbXx/O8PBdZqv9flXt10NwfbZtr5cSI48Q0UT/cSHEbaZp7o3fY7HY00KITfFjqpqJ5V2TEELsHo1GH7ZtOxyQeYOU8kClFA7Zv6WU6/sWRCJaHBgHz/86lSPo+0QEl1P3KGutN7Asq9e27W9ore9MiYlzDcPA/89n2xchxOdSCWJReN691rKs071i9F8loo8D9Qe11vqbvrVRKXUREf0o0Ke/vm9LKa8NMToNfYfmj0sukFKegh/mz58vo9Hok6mKJusE7v2HlPJr+N227RiEJZGbVBj/cN/5wXGEEGeZpnm2bduHa60vTzkKeF8VEVidIKW8OFtfQog9tNY3EJGf5tm/LyaEuF5rfWxgnE9M01wJQlFr3WXb9ktEtEbwecdx1oF4LpDjSeDgrcndQyLaRUqJ2o+klPo2vusMrGVQa/01y7Ier/brjMdjAkygNAIsCEvjxncxAZdAIwnCatUh9I/GuD8Al+CvXovkMsGXAtwXIdYglHrGsEJBNs5XmoaSmpa1DGov0osRiWYgPqeZue+1h9JzqYe6e/neLsDts37tZhidpxx3zo/+N0GnPph2JYULKGInC2nggsQ46KujjurR17LUhFLqs5Qwm0BE/2cYxlOO41xCRBCJP7Ms64yAIHxZaw0BBWveT1LXx6WUUimFmLd7UpVBVsJ9juN8BDGRQxA+5zjOSUKIbYUQZ3p79rhhGCc7jrMfEf2AiJ6QUm4ZFIRSyp/F4/Ed/T12HGdHIQTi7mKmaU6Mx+NfzyEIP0wlajkSb8dE9MtUBZYPpJQzPBEMIdQnhDjEE2oQVGhjCUKCENZam0T0p5Sg63IcZ3VY1ZRS9xMR5nUZRFjKsgaxu4nW+nuWZV3iCUKJ9Wmtbx4aGrqrs7NzKhHBtRZuo9sODg6+Z5rm1EQi8Y4QAt+8HEhEw57YmyiEWN80zZfDfQkhbk3N+33MB+Mnk8kbDMM4AyHG3pouNAzjNsdxfgvxjFKfqb37Zcrq+pdUxZt9tdZXOo5zQVtb2/EpK+IxqPIipTw8IAizcvT2fjYRwfJ6oNYac7wOY0opO2HJTCaTqPu4WGu9t2EYsCL/ISXEYTmeXMhrlq9hAkyg9gRYENZ+D3gGDUygmoJwrDIRhcbMBeL6SqJejDtmtTONegK95BIUEGn1/YZYgkIuaZerexO4/5+XWOa4r3TQmtMi9HHMoYueGspYUU/cvJO+NdM3MFV3fuUYLegm3tv7/+3dCZgkZX3H8be65+7qRTl0V5FD7kMUMB6I7KIciiAiiqiRwxgTryQajxhMhEQjKkkewHhC1KAGEEERFDkEBBWDIGqLoFlRRHbl0t2unt2do8v5VVf11PT29HT3dHdd33oeH5eZ7qq3Pm/N8Zv3ff9vaaCPWblcPtEPE14A0P34UzhVsaeiX9odx7nDGKMgMhRMW3QcR1NEX1ytVg9bsWLFLYusIQyPEP5AQaThHJoCmSsUCipG4w1ZO46j0aWHbNveMRwINeoXWE9OTj65Wq3epy/JXC6328TExP2Nrw2CzMzMzLaaluqf+2HVeLJtu+A4ziXGmJMUmGzbvtb//FUa2WoVCIOQrNf7o3gXKOAUi8W/UgC2LGttoVDYw3fUNEqV7/2xbdsHOo6jqaCF8DpL/7qaevsr27a9KbGhth0ZjLJVKpVn+iOk19u2fWSzczmO401BCM6vkFupVLzh/OBjmq7ruu4PjTEXz01/fbWK8eRyuT0LhYJGI73DcRz1y722be+7lGO5XL5CAdmyrD8rFAo6r1z+0Rjz3tnZ2YNzuZz67XWu676gWCxqT1idPwih+xWLxbt78TXEORBAoL8CA/3B1N9b4ewIDF6gmxGpbtYQLvWeTqZJLnWuZoo6fyf7EOocUQRCXTeo+hrlRvWDfxKTe8Xfbax6004XO7S+8eyjxlqOuMb97pc9Wr6MG3QcR6Nmf69wZ9v2NaFQ8FNjzH62beccx9Hoz3bhIONvk3Cu67pvm1u79rE2AqF+8d+noeiMAprOWx8D94OOY9v2ysUC4dwURI2E7WyMea1t21/yQ0h9eqnCo+M4Gv07sOF6v5krhLxSI1eO4yi8HNzw+XfOBbaPLjFCWL+mP0VU00xvcF1X20ZoLaCOcLUiTeFcb9v2Kv/exm3bXjA27ThOYyD8ib5VhV38IKXzaluKXZqdqzEQ+u9RSLzHtm1vSqgfph/QaGqxWNQ009zk5OTFc2FTQVjzwoPf+36hgNqGo56TfRvvKfQcafTzGQ0mms6ac1335GKxqGDOgQACMRcgEMa8g2hevAUGFQiXGtnrJBCGRcNbUYRHIMPVR9sdfWzsqQgDof5KvaZbk3g/celsnbbOuPCOqQVrCLX+77Bdhow2sO90Sm3clKIsJuM4zoe0ls2yrGMLhcLVoV/kFeD20i/6juM8aozZtiE8aerof2htWrFY/EQbgbBZFVJNQ9zBtu36XjVLBcK5oi8X+dMoL7Ft++SgvYuNELYIhM3ao7VwH5kbrTvFtm1dp35o1MtfQ1gPhI899tg2IyMjWhN5nQay/amfCm3B1NPg/QpXZ/vTPDXqujJ87iaBUCHq6YsEwgds235qs3M5jqPRwI0Kn6F+1Mjrj2zbPrhZIKxUKpdqXaXuwXXdz7iuuz6Xy33HGOMFwmCEsIWjwqv+cNB0ArbjOPr80+YC/Gcbv+6q1epHVqxYcU/cvh5pDwIIbC1AIOSpQGAZAp3uQahLtTNC11jJs1+BcBm33tZbo/hFuJutQNq6GV7UdwHtx/jIpOvtqxhUZe37Rft8gShHB3VrlUrlGNd1FQTrAUsVOyuViqY3/tG27R2CUaJCoTASVBZ1HOcGY4z2CfSmCg4iEJbL5VdalnWpaiPZtq31iuHAtmCEsI0g8zljjNYOnlgsFi/XicrlsqpfPmeJEcJzbNtWcNTrNSp47lxYPq9QKLy9Uqmo6tE627afHDRsw4YNu6uyqm+tojLtBEKtwdM0y3DbtG5ThX+utm372F4FQsdxNEqrpaBeKPf7Xotz2w2EF8/tnfiqYOqw7/KWufWP78rn84fPzs6qaM5JWj8Y3jpEVU3Hxsa0tpADAQQSIEAgTEAn0cT4ChAIW/dNFIFQLepm5Da+TxktS7JAqJjM4aVS6aYo7sVxnHWaSqliJHPVH7VlwFkqwqoKnKpqGSoqo3V7/+K67nP8gi6P2ratoigKR1+1LOt4v1DM1YVC4Y5mRWUaRpraHiG0LOt8Tb30fTStU232jnw+f4WqYjYrKrPYyNamTZt29YudKPyoQM52xpj3+KdsWVRmbhRO+ypqmqtGVzX9cZW21nAc51vGmKMsy/qeirdYlnXIXGHet81NqbxUo5kdjBA+UVND/Y3qNTI5bVmWrjU+Ozu7p791x1bhspsRwiDsz2038iXLsu51XfctxpgnhIrv3Oq67vOWcFyrAjjVavWMuXaOzlWMVTXWaa3V9J3X6r/n8ub7Lct62HVdOe82MzOzfbC+M4rnnmsigED7AgTC9q14JQJbCXQTPLIyQhjVlFE/EHZdXIbHHIFeCUQ9Ohjcx+Tk5I7ValXTBBUCdWia4bnBhvKhQKiQoi0evAxojDnMtu27/EC42h/B0tqwK4rF4sv9QOhNVwxG35oEiyc0mTJa1rTHSqWiyqFXqpBLLpfTXoP1Ka3hPlAVz1wud3/wWlVGrVQqquR5aMP1tPZQawi9krTlclkjWaq6Gaxh1N6LK5aYMqoCNY8PnCzLelOhUFDVTI2uaQsHFdvR95f6Wjy1o1gsPuwHQq2PrE/p1Pv8KaNrbdveO7gvx3GOVrEf13VVlVTHpOu6pxWLxS/rP5qdy59uqymjQR/p3OrLO23bfqb/vlWu6z4Y9JFGMPP5vAr+BBU/tV5UFWddrbVsx9FxHFWH1ZRQhUEdj8ztwbg6KBhTLpdf7lceVWVWHQqHZ8wFRgV7DgQQSIAAgTABnUQT4ytAIFy8b6IMhGpVN30T3yeNliVRIDTV+6xSqXTmYvcwqPqxKpIyPj6+U2PlxyAQKlxt3Lhxe21SPz4+rtHCBYcC0eTk5P4TExN3W5a1eCWgmHTWxo0b99YaNm24btv2Lx3HuVgVM/P5/FMb7y+8hrBQKFzuOM7u2iux2a34G8qrgI42uF+WQ6VSWWVZ1rAqqfaTTcVmdP6JiQnt29jVMTk5udPs7Owmhd9mJ9C95HK5sWbPTlcX5E0IIDAwAQLhwKi5UBoFugkdWRkhjHp0JKqN6pP2nKugy5S/H/zu28Vr776kWYbbG+VWE526hQNhp++N6+sVBnO53M/ntpm43bIsbbmgfRc1XVKjkxohW3A0KyoT13ujXQgggECvBQiEvRblfJkSGNQ+hN0UldEIXbiKaGPHdLqNRKcdG3UgVHuTsgXFNb+cMefftsUcstOQ0V6POxQG961ZWz5o6wcdXz55wuzyuPoOAZ12+YLXX3TXlPnCj6fNM1blzQePGDNDvTntsto0yDfH4flv937jGAh7MWpaqVQ+7rruX/rrAMWxPp/PH9JsBItA2O7TwusQQCCNAoP7raNbvV78VOj22rwPgSUE4hwIuwmRvezwOPxCHIzgxnkLiocrrjnmIm9vae94w8Ej3lYLgzqWEwg3bnHNd35dG17cZswyz99Z9TeMqbrGPPtTKmJZOz5+3LjRfoJZOqIqqNSNsTY437Bhw2gaC4BoH75yuazpn/dblqUCM02PuS0nhsvl8opisfgHy7JqfyHhQAABBDIiEP9AmJGO4DaTKdDNtMRBTRklEHojhF5xGT1djVt5xOWJ0yjaud/fUm/OtuOW+eYpBZMb0Hfn5QTCex6pmtddVltCtff2OXPRKybq9/Hv391iLv7ptNlju5y54GXjZmJ4QDcUg46Nwx9DYsBAExBAAAEEEiKQnZ/QCekQmpksAQLh4v0Vh3L7al036zwH+RSe+L+T5v4NCwck/uvYcfOsHQczotavQCjDzTMmNfsJdvJMhJ79lsVkOjknr0UAAQQQQKBfAgTCfsly3swIdLpOLSsjhHGZMtdNaB/Uw3v3Q1Vz6uVbFyk8Zs8hc9YLvMr53jE57Zq3XlWb7bbz43Lm5fsOmQvumDJ3rat6gevwXYfMm589YlaMzn9L17rAi+6aNneumzX3/aFqdtomZw5YmTOnHTjinSM4GgPhFXdPm5/+vhZQj9tryJyw77D3b00D/ZurN5lJFZT3avtb5rq1fjUa/2RPe2LerN4lb049cMS897rN5veO633m344c814fHNf+/4zRusmfPTTrfeigJ+XN0bsPmTW71qac6lCYvOxn0+a6tdNGTk8oWGb/J+bNC586ZI7aff51g+qrdq8T+vq+qVQqHd7u+3gdAgj0QYBlR31A5ZRpFCAQprFXuaeBCnQ6ApWFQBi3KXOdhvZBPUDBtEpd7x8OGzXnfX/KC386bnx9wdgjtW/RWqv3ws/OrzNs1j6FJBVv0RGeytn4Wk3dPP8lY+aAlbURyMZAePsDs+Yjt9amsIangf784ao55Svz4VVrAm//XS3QhY+X7TNszlg9utV5g2I1H711i7m05KfKhve+45BR8+oDhs1M1Zi3XrXJqDBSs+M1Bwybtx8SbIk2qN5q7zpxe/bbazWvQgABBBDIskDrQMhfVrL8bHDvbQp0OgKVhUDY7v5rbRIv+2VB8Z84FZeZmjXmyM9V6gHwutMK5mO3TZmv3VMLS/+8ZtQct3dtdK4xEGq070V7DBmFtFt+Mz9Kd8PpBW+UMLx+VK/TqNqV98zUXxsegWwMhAqhL/6f+fD5jdcVvKqnGpH81O1TXnuO2G3IHLfXsLnhVzPmSr+9+riCoEYfD1yVbxoIf7Ru1rzxa5vq/fnaA4a9kcCv3D0fEOWgEcG//Ubtdbs+PmfedeioUfGd9397vibINacUzHYT8fqbZmjvTVMqleLVuGV/FXECBBBAAIG0CvADK609y30NVKCTEagsBMK4TBcNHoJwcZlPvnTcKBhGfdx034x517dqAefZO+bNx44dN9+7f7YehJ6+Mu8VY2kWCIPgp2mcCm+PbaqNKn7hFRNmr+1z5tM/nPKClo7TDhz2QuKD5ao5/ou1ET6NEt78FwXv383WEGp07gcP1EbngmCq4jEaedRxzovGzOpdhhaMRDYWlWl2Xk0jvd6fZvrOQ0fNq/avBd7wqOFHjx7zwl8wSnnS/sNeINRxSWna3PdYrQ0n7jfsFayJ08HoYJx6g7YggAACCLQrQCBsV4rXIdBCoJNpo3EJhNrvTnsR9vqI6y/FQR/16747dXznNZvNzf6WDd4Uy32GjUYNn/eZ+e0aLn/1hHnKNrmtRgjDFVPf8NVN5sfra+EtHHadKdfc8utZr2CNAtajm1xza2g0MThHs+B29S9mzJn+aJyC37ufP2pe4m+NoTB57akFMzq0cGpqO4HwpEsmvfWMOoJ707/XlavmXj9s7rZtzpS3mAVrK3Xu1bsOmec+JW/22SE/sAqsnfZp3P4Q0mn7eT0CCCCAQDYFCITZ7HfuuscCnUwb1bSyOx+cXXR9lEavGoNaN5vMK5gttgZLt9+vjeljHAi9LSjiMG1UI3pHf35+WuaJ+w7XN6P/pD8tU30UhNfGKaPhQKgpmJqKGQ6EpYdmzemXz0/NbPa4twqEjdfTaN45/rrC4/ceNu9bUxuxa7XtRLOgGaq+aa4/reDtXbjYodHA4Jrh12i67AeOGDP77MDoYI+/jXE6BBBAAIGMChAIM9rx3HbvBTqZNtr7q8fjjOHRzziuoepkJLefoiqqommSSx2qrPn1Py8YjfaFi8q0CoSq2Pmiz89PIz35acPmmD1rUzPDRWFaBUK99j3Xbjbf/tXCKqL6eHhLjE4DYTgk6r7ClUebWTxUcc2N982YW349U5/CGrzuljfYsdrSgq0mlnqa+TwCCCCAQFwFCIRx7RnalTiBOBYuGTRiXEcHA4dORnL7afeaL0+aXz66cO/Bxa73iePGzZ7b59oOhApZCl46tMn9NacWjL7Ra9roMf60T31uqUCoIPZuf41j0DZNF/326QWT9wfnwoFQ6/m+9Mr5jembjRC+/Zub69NWP3TkmFecRsdXfz7tbZGh403PGjF/3OyaB8u1dZGnPGPYPG7M8j725q9vqrv954vHzKE7x2P7ibj/IaSfzzLnRgABBBBIvgCBMPl9yB3ESCDLo4RJ+aU46j5SEFQgDI6gimf4Mf6nGzZ7+/TpOHYvbbEw0nYg1Bo8VS8NDu0BqJHG82+bqq811Odue6PtBbvFNqZXUZrnXzC/nlHvadzuYV3ZNS/94vy1NJVzlW15W1o0O6/2Hzzj+lohHYXVv3vuqFHs+/AtW+rVVi87ecJcde+M+dyPahVNX7HfsBcStf/hO745HwjjUhxIbYz7H0Ji9C2SpiCAAAIIxFCAQBjDTqFJyRXo1QhUsPav02qYg35fuKfiM2Wu9X45wbTRqNYSnnfblLnorlrYCVcSDVuGK5Dq41e+dsK81K8Qqv9eag2htmxQxdJWR7Btw2KBUO8968Yt5qp757eE+O8Txo02nw8fqy+c3zpDHw8qpjY7r6qiakuMYM1jY/u0Rca/vnDM/HZD1ahYTlA9tfF1KjJz4QkTZiT6YrFe0ygmk9zv2bQcAQQQQMB4M4k4EECghwLLXacWHmnrpCLmoN8XJkvK6KDaHN6CIhysevgILHoqjYaF1/e9+9BR80p/64XwmzbNuOawC+ZH3t63etR84Ob5NYfhdof3HPz08ePeHoDa3P6DN28xGpELDo20qRppMFVV2zus2XVowUieRue0j2BwNAbT//tre6sfGj9ZP2vedvXm+gifKoGe95LxRc+rSqraz/Cyn03X36MRzBP2HTavP2ikXkFUU1zP+e4Wc9tvZ+uvU7t0HyqIpBHGOByMDsahF2gDAggggMByBOLxE3U5d8B7EYiZQLejhEEl0cbKoAqFOhbbImLQ72vGHZ/RwfYehuWG9vauEv2rpqvGrC9XzQ6FXFcFWDQ6qFFCHacfNGLe/Kzm25Qo6D7kuGZq1jUrizkz3GYBUIU+yzJm+xYbzOvc68uuN71Vr8vF7KdW6Nk/vFQq3RR9r9MCBBBAAAEEOhOI2Y/WzhrPqxHoh0DrCYftXXGpaYkaVQiOIAC22iJCr9UUx/AU0n6/r9k1VcGycRprEkdIug3t7fV+8l+loHbPI7Pm7O9sMar0qePikyaM1idyzAsk8dmn/xBAAAEEEGgUIBDyTCDQJ4GgeEnjtE8FOU3zS+LRWMgjSVNFG72zMkrYzXP23us2m+vXzk83VTVPVfXkWCgQmq57VqlUOhMfBBBAAAEEkihAIExir9HmRAiE16qFQ2FaAmE4DBpjEjddjlHCxb+MwoFQhW8+fNSY2a7FtM5EfEH2uJFJ/mNIjyk4HQIIIIBAwgUIhAnvQJofb4Fgb0K1MhhdC9b8xbvlzVundYyaMtoQahM7OhL1FhRxfQYemXTNgxtraw9XFi2qjzXpKKaLxvXppV0IIIAAAp0KEAg7FeP1CHQo0CwUdniKWL08LWFQqEut9YwVPI2JlQBbTfSmO3qxZrs3LeEsCCCAQHYFCITZ7XvufIACQfAIjxQO8PI9u1SawqAfCNcYY27Uvwe9BUXPOoUTDVyA0cGBk3NBBBBAAIE+ChAI+4jLqREIC4RHCjvZXzAuig1rBm8qlUqHx6VtLduxxBAExWUS0YuxamTStlmJFR6NQQABBBCInQCBMHZdQoPSLJDUUNgQBhO7ZrDZs0VxmTR/xfX+3kJfC8n5o0jvGTgjAggsEGDyMw9EsgUIhMnuP1qfQIGkhcJQaX1ppyoMBo8PxWUS+IUUUZOZLhoRPJdFAAEEEOibAIGwb7ScuBuBrPyNLbwlhZziOIU0qIaq//ePxG0t0e4zGIR0VVBVNVgOBJoJhNfQlkolfn7ymCCAAAIIpEKAH2ip6EZuIqkC4dHCuARWBN4YAAAIRUlEQVTDJkEw9VPjwgE92B6kn8+UOzfUyjfffgr359yMDvbHlbMigAACCEQrwO8k0fpzdQS09cGZxpj3BxQaLdShPf8GeTQLgv4U0ZsG2Y6orhUUl4njaG1UJlx3oQBbTfBEIIAAAgikUYBAmMZe5Z4SKRBFMAymg2rkIzQ1VH6pnR662MMx6FHCRD6kaW70EvPVGR1Mc+dzbwgggEACBPq4riqVgbCPXgl4Wmhi0gUag6HuR2vb9L9ejBq2CIG6VCqLxrT7TCSt4E+798XrlicQrrLL2sHlWfLuJgL80sJjgQACEQukMhBGbMrlEeiJgB9OdK76dNLgxMG00uC/D3pS3vunQqOO8GjfnX5RmOBjDSOBermmhCoIZmJq6FKd0xgKZRu4LvVePp8ugSbTqDP9B5N09S53gwACCCAQCBAIeRYQSIBAq3DYZfMJgS3gmo3SdunM29IjkLlp1OnpOu4EAQQQQKCVAIGw588Hcz96TsoJFwj4a93WNLCs9v87+Hh4tO9m/3PexxgJbP+B8oOhbBu92z8Jr0yygL5mbi6VSir8xIEAAggggEAqBQiEqexWbgoBBBBAAIE4C/DH0zj3Dm1DAIFsCRAIM9Xf/ABOU3fTm2nqTe4FAQQQQAABBBCIRoBAGI07V0UAAQQQQAABBBBAAAEEIhcgEEbeBTQAAQQQQAABBBBAAAEEEIhGgEAYjTtXRQABBBBAAAEEEEAAAQQiFyAQRt4FNAABBBBAAAEEEEAAAQQQiEaAQBiNO1dFAAEEEEAAAQQQQAABBCIXIBBG3gU0AAEEEEAAAQQQQAABBBCIRoBAGI07V0UAAQQQQAABBBBAAAEEIhcgEEbeBTQAAQQQQAABBBBAAAEEEIhGgEAYjTtXRQABBBBAAAEEEEAAAQQiFyAQRt4FNAABBBBAAAEEEEAAAQQQiEaAQBiNO1dFAAEEEEAAAQQQQAABBCIXIBBG3gU0AAEEEEAAAQQQQAABBBCIRoBAGI07V0UAAQQQQAABBBBAAAEEIhcgEEbeBTQAAQQQQAABBBBAAAEEEIhGgEAYjTtXRQABBBBAAAEEEEAAAQQiFyAQRt4FrRugDnJj3kaahwACCCCAAAIIIIAAAskUIBAms99oNQIIIIAAAggggAACCCCwbIEEBULGypbd25wAgT4K8BXaR1xOjQACCCCAAAII9EkgQYGwTwKcFgEEEEAAAQQQQAABBBDIqACBMKMdz20jgAACCCCAAAIIIIAAAgRCngEEEEAAAQQQQAABBBBAIKMCBMKMdjy3jQACCCCAAAIIIIAAAggQCHkGthagOghPBQIIIIAAAggggAACmRAgEGaim7lJBBBAoD8C/P2oP66cNYUCfLGksFO5JQTSIUAgTEc/chcIIIAAAggggAACCCCAQMcCBMKOyXgDAggggAACCCCAAAIIIJAOAQJhOvqRu0AAAQQQQAABBBBAAAEEOhYgEHZMxhsQQAABBBBAAAEEEEAAgXQIEAjT0Y/cBQIIIIAAAggggAAC6ROgIFPf+5RA2HdiLoAAAggggAACCCCAAAIIxFOAQBjPfqFVCCCAAAIIIIAAAggggEDfBQiEfSfmAghkQIDpHBnoZG4RAQQQQAABBNIoQCCs9yq/0abxAeeeEEAg6wJ8b8/6E8D9I4AAAgi0FiAQ8oQggAACCCCAAAIIIIAAAhkVSEcg5A/AGX18uW0EEEAAAQQQQAABBBBYjkA6AuFyBHgvAggggAACCCCAAAIIIJBRgXogZJAto08At40AAggggAACCCCAAAKZFWCEMLNdz40jgAACCCCAAAIIIIBA1gUIhFl/Arh/BBBAAAEEEEAAAQQQyKwAgTCzXc+NI4AAAggggAACCCCAQNYFCIRZfwK4fwQQQAABBBBAAAEEEMisAIEws13PjSOAAAIIIIAAAggggEDWBdIXCCmXmvVnmvtHAAEEEEAAAQQQQACBNgXSFwjbvHFehgACCCCAAAIIIIAAAghkXYBAmIUngFHTLPQy94gAAggggAACCCCAQMcCBMKOyXgDAggggAACaRTgr4dp7FXuCQEEEFhKgEC4lBCfRwABBBBAAAEE+ihAFO8jLqdGAIElBQiESxLxAgQQQAABBBBAAAEEEEAgnQIEwnT2K3eFAAIIIIAAAggggAACAxdI3pg/gXDgDwkXRAABBBBAAAEEEEAAAQTiIUAgjEc/0AoEEEAAAQQQQAABBBBAYOACBMKBk3NBBBBAAAEEEEAAAQQQ6EYgeRMyu7nLwb6HQDhYb66GAAIIIBBHAX7DiGOv0CYEEEAAgQEIEAgHgMwlEEAAAQQQQAABBBBAAIE4ChAIu+gV/pDcBVpHb0G4Iy5ejAACCCCAAAIIIIBAlwIEwi7heBsCCCCAAAIIIIAAAgggkHQBAmHSe5D2I4AAAggggAACCCCAAAJdChAIu4TjbQgggAACCCCAAAIIIIBA0gUIhEnvQdqPAAI1AZae8iQgkHoBvsxT38XcIAIIRCBAIIwAnUsigAACCCCAAAIIIIAAAnEQIBDGoRd62Ab+etpDTE6FAAIIIIAAAggggEDKBQiEKe9gbg8BBBBAAAEEEEAAAQQQWEyAQMizgQACCCCAAAIIIIAAAghkVIBAmNGO57YRQAABBBBAYFACLOgYlDTXQQCBzgUIhJ2b8Q4EEEAAAQQQQAABBBBAIBUCBMJUdCM3gQACCCCAAAIIIIAAAgh0LkAg7NyMdyCAAAIIIIAAAggkWIBJvAnuPJrecwECYc9JOSECCCCAAAIIIIAAAgggkAwBAmEy+olWIoAAAggggAACCCCAAAI9F/gT4a8GMKLTR+4AAAAASUVORK5CYII=;" vertex="1" parent="1">
          <mxGeometry x="80" y="100" width="722.72" height="530" as="geometry" />
        </mxCell>
        <mxCell id="hr-9_k5K6Eu0wiCesBMs-3" value="Payments Processing System&amp;nbsp;" style="rounded=1;whiteSpace=wrap;html=1;strokeWidth=1;fillWeight=4;hachureGap=8;hachureAngle=45;sketch=1;dashed=1;" vertex="1" parent="1">
          <mxGeometry x="290" y="100" width="220" height="70" as="geometry" />
        </mxCell>
        <mxCell id="hr-9_k5K6Eu0wiCesBMs-6" style="edgeStyle=orthogonalEdgeStyle;rounded=0;orthogonalLoop=1;jettySize=auto;html=1;exitX=0.5;exitY=1;exitDx=0;exitDy=0;entryX=0.443;entryY=0.208;entryDx=0;entryDy=0;entryPerimeter=0;" edge="1" parent="1" source="hr-9_k5K6Eu0wiCesBMs-3" target="hr-9_k5K6Eu0wiCesBMs-2">
          <mxGeometry relative="1" as="geometry" />
        </mxCell>
      </root>
    </mxGraphModel>
  </diagram>
</mxfile>
